<svg width="35" height="7" viewBox="0 0 35 7" fill="none" xmlns="http://www.w3.org/2000/svg">
<g id="Group">
<path id="Vector" fill-rule="evenodd" clip-rule="evenodd" d="M13.9596 5.01053C12.7296 5.92053 10.9396 6.40053 9.39961 6.40053C7.23961 6.40053 5.29962 5.60053 3.82962 4.28053C3.70962 4.18053 3.81962 4.03053 3.95962 4.11053C5.54962 5.03053 7.50962 5.59053 9.52962 5.59053C10.8996 5.59053 12.3996 5.31053 13.7796 4.72053C13.9896 4.63053 14.1596 4.86053 13.9596 5.01053Z" fill="#F8991D"/>
<path id="Vector_2" fill-rule="evenodd" clip-rule="evenodd" d="M14.47 4.42015C14.31 4.22015 13.43 4.32015 13.03 4.37015C12.91 4.38015 12.89 4.28015 13 4.20015C13.71 3.70015 14.86 3.85015 15 4.01015C15.14 4.18015 14.96 5.34015 14.3 5.89015C14.2 5.98015 14.1 5.93015 14.15 5.82015C14.3 5.45015 14.63 4.62015 14.47 4.41015V4.42015Z" fill="#F8991D"/>
<path id="Vector_3" fill-rule="evenodd" clip-rule="evenodd" d="M13.0597 0.699609V0.219609C13.0597 0.149609 13.1197 0.0996094 13.1797 0.0996094H15.3397C15.4097 0.0996094 15.4597 0.149609 15.4597 0.219609V0.629609C15.4597 0.699609 15.3997 0.789609 15.2997 0.929609L14.1797 2.52961C14.5897 2.52961 15.0297 2.57961 15.4097 2.78961C15.4897 2.83961 15.5197 2.90961 15.5197 2.97961V3.48961C15.5197 3.55961 15.4397 3.63961 15.3597 3.59961C14.6997 3.24961 13.8097 3.20961 13.0797 3.59961C12.9997 3.63961 12.9297 3.55961 12.9297 3.48961V2.99961C12.9297 2.91961 12.9297 2.78961 13.0097 2.66961L14.3097 0.809609H13.1797C13.1097 0.809609 13.0597 0.75961 13.0597 0.68961V0.699609Z" fill="#333E47"/>
<path id="Vector_4" fill-rule="evenodd" clip-rule="evenodd" d="M5.19016 3.71004H4.53015C4.47015 3.71004 4.42016 3.66004 4.41016 3.60004V0.23004C4.41016 0.16004 4.47015 0.110039 4.54015 0.110039H5.15015C5.21015 0.110039 5.27016 0.160039 5.27016 0.220039V0.660039H5.28015C5.44015 0.230039 5.74015 0.0400391 6.14015 0.0400391C6.54015 0.0400391 6.81016 0.240039 6.99016 0.660039C7.15016 0.230039 7.51015 0.0400391 7.90015 0.0400391C8.18015 0.0400391 8.48016 0.150039 8.66016 0.410039C8.87016 0.690039 8.83015 1.10004 8.83015 1.47004V3.60004C8.83015 3.67004 8.77015 3.72004 8.70015 3.72004H8.04015C7.97015 3.72004 7.92015 3.66004 7.92015 3.60004V1.81004C7.92015 1.67004 7.93015 1.31004 7.90015 1.18004C7.85015 0.950039 7.70015 0.890039 7.51015 0.890039C7.35015 0.890039 7.19015 1.00004 7.12015 1.17004C7.05015 1.34004 7.06015 1.62004 7.06015 1.82004V3.61004C7.06015 3.68004 7.00015 3.73004 6.93015 3.73004H6.27016C6.20016 3.73004 6.15015 3.67004 6.15015 3.61004V1.82004C6.15015 1.44004 6.21016 0.890039 5.74016 0.890039C5.27016 0.890039 5.29015 1.43004 5.29015 1.82004V3.61004C5.29015 3.68004 5.23016 3.73004 5.16016 3.73004L5.19016 3.71004Z" fill="#333E47"/>
<path id="Vector_5" fill-rule="evenodd" clip-rule="evenodd" d="M17.3296 0.730274C16.8496 0.730274 16.8196 1.39027 16.8196 1.80027C16.8196 2.21027 16.8196 3.09027 17.3296 3.09027C17.8396 3.09027 17.8596 2.38027 17.8596 1.95027C17.8596 1.67027 17.8496 1.33027 17.7596 1.06027C17.6896 0.830274 17.5396 0.730274 17.3296 0.730274ZM17.3296 0.0402737C18.2996 0.0402737 18.8296 0.880274 18.8296 1.94027C18.8296 3.00027 18.2496 3.78027 17.3296 3.78027C16.4096 3.78027 15.8496 2.94027 15.8496 1.90027C15.8496 0.860274 16.3796 0.0302734 17.3296 0.0302734V0.0402737Z" fill="#333E47"/>
<path id="Vector_6" fill-rule="evenodd" clip-rule="evenodd" d="M20.0903 3.71004H19.4403C19.3703 3.71004 19.3203 3.65004 19.3203 3.59004V0.220039C19.3203 0.160039 19.3803 0.110039 19.4503 0.110039H20.0603C20.1203 0.110039 20.1603 0.150039 20.1803 0.200039V0.720039H20.1903C20.3703 0.260039 20.6303 0.0400391 21.0803 0.0400391C21.3703 0.0400391 21.6603 0.15004 21.8503 0.44004C22.0203 0.71004 22.0203 1.16004 22.0203 1.49004V3.61004C22.0203 3.67004 21.9603 3.72004 21.8903 3.72004H21.2303C21.1703 3.72004 21.1203 3.67004 21.1103 3.61004V1.78004C21.1103 1.41004 21.1503 0.870039 20.7003 0.870039C20.5403 0.870039 20.3903 0.980039 20.3203 1.14004C20.2303 1.35004 20.2203 1.55004 20.2203 1.78004V3.59004C20.2203 3.66004 20.1603 3.71004 20.0903 3.71004Z" fill="#333E47"/>
<path id="Vector_7" fill-rule="evenodd" clip-rule="evenodd" d="M12.0002 3.70023C12.0002 3.70023 11.8902 3.74023 11.8502 3.72023C11.6302 3.54023 11.5902 3.45023 11.4702 3.28023C11.1102 3.65023 10.8502 3.76023 10.3902 3.76023C9.84015 3.76023 9.41016 3.42023 9.41016 2.74023C9.41016 2.21023 9.70015 1.84023 10.1102 1.67023C10.4702 1.51023 10.9601 1.49024 11.3401 1.44024V1.35023C11.3401 1.19024 11.3501 1.01023 11.2601 0.870234C11.1801 0.750234 11.0302 0.700234 10.8902 0.700234C10.6402 0.700234 10.4202 0.830235 10.3602 1.09023C10.3502 1.15023 10.3102 1.21023 10.2502 1.21023L9.61015 1.14023C9.56015 1.13023 9.50015 1.08023 9.51015 1.00023C9.65015 0.240235 10.3301 0.000234375 10.9501 -0.00976562H11.0002C11.3202 -0.00976562 11.7202 0.0802343 11.9702 0.320234C12.2902 0.620234 12.2601 1.02023 12.2601 1.45023V2.47023C12.2601 2.78023 12.3901 2.91023 12.5101 3.08023C12.5501 3.14023 12.5601 3.21023 12.5101 3.25023C12.3801 3.36023 12.1401 3.57024 12.0101 3.69024L12.0002 3.70023ZM11.3401 2.10023C11.3401 2.36023 11.3402 2.57023 11.2202 2.80023C11.1202 2.98023 10.9502 3.10023 10.7702 3.10023C10.5202 3.10023 10.3701 2.91023 10.3701 2.62023C10.3701 2.06023 10.8702 1.96023 11.3502 1.96023V2.10023H11.3401Z" fill="#333E47"/>
<path id="Vector_8" fill-rule="evenodd" clip-rule="evenodd" d="M3.39005 3.70023C3.39005 3.70023 3.28004 3.74023 3.23004 3.72023C3.01004 3.54023 2.97005 3.45023 2.85005 3.28023C2.49005 3.65023 2.23005 3.76023 1.77005 3.76023C1.22005 3.76023 0.790039 3.42023 0.790039 2.74023C0.790039 2.21023 1.08005 1.84023 1.49005 1.67023C1.85005 1.51023 2.34005 1.49024 2.72005 1.44024V1.35023C2.72005 1.19024 2.73005 1.01023 2.64005 0.870234C2.56005 0.750234 2.41005 0.700234 2.27005 0.700234C2.02005 0.700234 1.80005 0.830235 1.74005 1.09023C1.73005 1.15023 1.69005 1.21023 1.63005 1.21023L0.990051 1.14023C0.940051 1.13023 0.880045 1.08023 0.890045 1.00023C1.03005 0.240235 1.71005 0.000234375 2.33005 -0.00976562H2.38005C2.70005 -0.00976562 3.10005 0.0802343 3.35005 0.320234C3.67005 0.620234 3.64005 1.02023 3.64005 1.45023V2.47023C3.64005 2.78023 3.77005 2.91023 3.89005 3.08023C3.93005 3.14023 3.94005 3.21023 3.89005 3.25023C3.76005 3.36023 3.52005 3.57024 3.39005 3.69024V3.70023ZM2.73004 2.10023C2.73004 2.36023 2.73005 2.57023 2.61005 2.80023C2.51005 2.98023 2.34005 3.10023 2.16005 3.10023C1.91005 3.10023 1.76004 2.91023 1.76004 2.62023C1.76004 2.06023 2.26005 1.96023 2.74005 1.96023V2.10023H2.73004Z" fill="#333E47"/>
<path id="Vector_9" fill-rule="evenodd" clip-rule="evenodd" d="M30.9905 4.92012V4.67012C30.9905 4.60012 31.0205 4.55012 31.1005 4.56012C31.2405 4.58012 31.4305 4.60012 31.5705 4.57012C31.7505 4.53012 31.8805 4.41012 31.9605 4.23012C32.0705 3.98012 32.1405 3.79012 32.1805 3.66012L30.8105 0.280117C30.7905 0.220117 30.7805 0.120117 30.8905 0.120117H31.3705C31.4605 0.120117 31.5005 0.180118 31.5205 0.230118L32.5105 2.98012L33.4605 0.230118C33.4805 0.170118 33.5204 0.120117 33.6104 0.120117H34.0605C34.1705 0.120117 34.1705 0.230117 34.1405 0.280117L32.7805 3.77012C32.6005 4.23012 32.3705 4.97012 31.8405 5.10012C31.5805 5.17012 31.2404 5.14012 31.0504 5.06012C31.0004 5.04012 30.9805 4.97012 30.9805 4.93012L30.9905 4.92012Z" fill="#333E47"/>
<path id="Vector_10" fill-rule="evenodd" clip-rule="evenodd" d="M30.3505 3.51051C30.3505 3.57051 30.3005 3.62051 30.2405 3.62051H29.9005C29.8305 3.62051 29.7805 3.57051 29.7705 3.51051L29.7405 3.28051C29.5905 3.41051 29.4005 3.53051 29.1905 3.61051C28.7905 3.76051 28.3405 3.79051 27.9505 3.55051C27.6705 3.38051 27.5205 3.04051 27.5205 2.70051C27.5205 2.43051 27.6005 2.17051 27.7905 1.97051C28.0305 1.71051 28.3905 1.58051 28.8205 1.58051C29.0805 1.58051 29.4505 1.61051 29.7205 1.70051V1.24051C29.7205 0.770507 29.5205 0.570507 29.0005 0.570507C28.6005 0.570507 28.3005 0.630508 27.8705 0.760508C27.8005 0.760508 27.7605 0.710508 27.7605 0.650508V0.390508C27.7605 0.330508 27.8105 0.270507 27.8705 0.250507C28.1705 0.120507 28.6005 0.0405078 29.0605 0.0205078C29.6505 0.0205078 30.3605 0.150507 30.3605 1.07051V3.53051L30.3505 3.51051ZM29.7005 2.84051V2.14051C29.4705 2.08051 29.1005 2.05051 28.9605 2.05051C28.7305 2.05051 28.4805 2.10051 28.3505 2.24051C28.2505 2.34051 28.2105 2.49051 28.2105 2.63051C28.2105 2.82051 28.2705 3.00051 28.4205 3.09051C28.5905 3.21051 28.8605 3.19051 29.1205 3.12051C29.3605 3.05051 29.5905 2.93051 29.7105 2.82051L29.7005 2.84051Z" fill="#333E47"/>
<path id="Vector_11" fill-rule="evenodd" clip-rule="evenodd" d="M25.3903 0.570507C26.1403 0.570507 26.3403 1.16051 26.3403 1.83051C26.3403 2.28051 26.2603 2.69051 26.0303 2.92051C25.8503 3.09051 25.6603 3.14051 25.3603 3.14051C25.1003 3.14051 24.7503 3.00051 24.4903 2.81051V0.890508C24.7603 0.680508 25.1003 0.570507 25.3903 0.570507ZM24.3803 5.05051H23.9303C23.8703 5.05051 23.8203 5.00051 23.8203 4.94051V0.240507C23.8203 0.180507 23.8703 0.130507 23.9303 0.130507H24.2803C24.3503 0.130507 24.4003 0.180507 24.4103 0.240507L24.4503 0.490507C24.7703 0.200507 25.1903 0.0205078 25.5903 0.0205078C26.7003 0.0205078 27.0703 0.940508 27.0703 1.89051C27.0703 2.91051 26.5103 3.73051 25.5703 3.73051C25.1703 3.73051 24.8003 3.58051 24.5103 3.33051V4.95051C24.5103 5.01051 24.4603 5.06051 24.4003 5.06051L24.3803 5.05051Z" fill="#333E47"/>
</g>
</svg>
