<svg width="129" height="18" viewBox="0 0 129 18" fill="none" xmlns="http://www.w3.org/2000/svg">
<g id="Group 12">
<path id="Vector" d="M96.1218 17.3358L92.1202 10.3213C93.8822 9.48158 95.0185 7.6868 95.0185 5.72735C95.0349 2.91168 92.7295 0.606445 89.9135 0.606445H81.3668V17.3194H85.1708V10.8318H88.2009L91.9061 17.3194H96.1383L96.1218 17.3358ZM85.1049 7.62093V3.85023H89.2054C90.4569 3.9161 91.2474 4.6406 91.2474 5.74382C91.2474 6.84703 90.3911 7.57154 89.123 7.62093H85.1214H85.1049ZM65.8543 17.3358V0.606445H78.3532V3.80084H69.7571V7.14342H77.2828V10.4037H69.7571V13.9768H78.7649V17.3358H65.8543ZM48.0363 17.3358L44.0347 10.3213C45.7967 9.48158 46.933 7.6868 46.933 5.72735C46.933 2.91168 44.644 0.606445 41.828 0.606445H33.2813V17.3194H37.0853V10.8318H40.1154L43.8206 17.3194H48.0528L48.0363 17.3358ZM37.0195 7.62093V3.85023H41.1199C42.3714 3.9161 43.1619 4.6406 43.1619 5.74382C43.1619 6.84703 42.3056 7.57154 41.0376 7.62093H37.0359H37.0195ZM23.1537 17.7475C27.7317 17.7475 30.4489 15.1129 30.4489 10.7165V0.622911H26.5461V10.4531C26.5461 12.8406 25.311 14.1908 23.1537 14.1908C20.9965 14.1908 19.7614 12.8242 19.7614 10.4531V0.622911H15.8586V10.7165C15.8586 15.1129 18.5922 17.7475 23.1537 17.7475ZM10.7536 8.08198C13.0097 8.85588 14.0965 10.7659 14.0965 12.6101C14.0965 15.2117 11.9887 17.3358 9.38678 17.3358H0.148438V0.606445H8.64573C10.8524 0.622911 12.6474 2.4177 12.6474 4.6406C12.6474 6.0402 11.9228 7.34101 10.7371 8.06551L10.7536 8.08198ZM3.9854 14.2238H8.25051C9.58439 14.2238 10.2925 13.2194 10.2925 12.2314C10.2925 11.441 9.66673 10.3213 8.25051 10.3213H3.9854V14.2238ZM7.11425 7.19282C8.1023 7.19282 8.85981 6.43539 8.85981 5.4639C8.85981 4.49241 8.0529 3.73497 7.09778 3.73497H3.96893V7.19282H7.09778H7.11425Z" fill="#2C2C2C"/>
<path id="Vector_2" d="M60.2808 8.00158C62.5014 8.76884 63.5712 10.6625 63.5712 12.4909C63.5712 15.0702 61.4965 17.1761 58.9354 17.1761H49.8584V0.606445H58.2223C60.3943 0.62277 62.161 2.40217 62.161 4.60602C62.161 5.99363 61.4478 7.28329 60.2808 8.00158ZM53.6189 14.0907H57.817C59.13 14.0907 59.8269 13.0949 59.8269 12.1154C59.8269 11.3318 59.1948 10.2218 57.817 10.2218H53.6189V14.0907ZM56.6986 7.12004C57.6711 7.12004 58.433 6.3691 58.433 5.40594C58.433 4.44277 57.6387 3.69183 56.6986 3.69183H53.6189V7.12004H56.6986Z" fill="#2C2C2C"/>
<path id="Vector_3" d="M112.503 17.1761L108.53 10.2286C110.279 9.39685 111.407 7.6192 111.407 5.67846C111.424 2.88967 109.135 0.606445 106.339 0.606445H97.8525V17.1598H101.63V10.7342H104.638L108.317 17.1598H112.519L112.503 17.1761ZM101.564 7.55397V3.81927H105.635C106.878 3.8845 107.663 4.60208 107.663 5.69477C107.663 6.78745 106.813 7.50504 105.554 7.55397H101.581H101.564ZM118.013 17.1761V10.4243L111.44 0.606445H116.28L120.073 6.29819L123.867 0.606445H128.706L122.101 10.4243V17.1761H118.013Z" fill="#2C2C2C"/>
</g>
</svg>
