<svg width="155" height="31" viewBox="0 0 155 31" fill="none" xmlns="http://www.w3.org/2000/svg">
<g id="Group 129675">
<path id="Path 20028" d="M0.554688 26.4524V30.6551H3.91683V29.8355H1.52089V28.9525H3.60142V28.1299H1.52089V27.2758H3.88354V26.4524H0.554688Z" fill="#2C2C2C"/>
<path id="Path 20029" d="M12.1081 26.4524L11.0711 28.1397L10.0565 26.4524H8.96094L10.5974 28.9998V30.6551H11.5311V28.9826L13.1636 26.4524H12.1081Z" fill="#2C2C2C"/>
<path id="Path 20030" d="M19.0469 26.4524V30.6551H22.409V29.8355H20.0119V28.9525H22.0898V28.1299H20.0119V27.2758H22.3733V26.4524H19.0469Z" fill="#2C2C2C"/>
<path id="Path 20031" d="M29.4148 29.2815L28.4957 26.4632H27.4521L28.9678 30.6551H29.8117L30.8143 27.9382L31.8169 30.6551H32.6666L34.1764 26.4663H33.1563L32.2372 29.2846L31.2421 26.4524H30.4066L29.4148 29.2815Z" fill="#2C2C2C"/>
<path id="Path 20032" d="M40.0596 26.4524V30.6551H43.4217V29.8355H41.0216V28.9525H43.1021V28.1299H41.0216V27.2758H43.3893V26.4524H40.0596Z" fill="#2C2C2C"/>
<path id="Path 20033" d="M50.9708 27.5529L51.604 28.9063H50.3376L50.9708 27.5529ZM50.5051 26.4524L48.4648 30.6551H49.5315L49.9668 29.7211H51.9739L52.4127 30.6551H53.5081L51.4714 26.4524H50.5051Z" fill="#2C2C2C"/>
<g id="Clip path group">
<mask id="mask0_206_1954" style="mask-type:luminance" maskUnits="userSpaceOnUse" x="0" y="0" width="155" height="31">
<g id="clip-path">
<path id="Rectangle 13" d="M154.375 0.395996H0.556641V30.6553H154.375V0.395996Z" fill="white"/>
</g>
</mask>
<g mask="url(#mask0_206_1954)">
<g id="Group 19">
<path id="Path 20034" d="M60.7048 28.4981C61.2262 28.4981 61.528 28.2577 61.528 27.9023V27.8905C61.528 27.4951 61.2097 27.29 60.6865 27.29H59.6292V28.4981H60.7048ZM58.5527 26.4554H60.7762C61.0333 26.4421 61.2909 26.4729 61.5339 26.5461C61.7768 26.6192 62.0003 26.7332 62.1911 26.8813C62.3328 27.0091 62.4429 27.1601 62.5148 27.3251C62.5868 27.4902 62.6192 27.666 62.61 27.842V27.8537C62.6264 28.1386 62.5332 28.4202 62.3447 28.6554C62.1562 28.8906 61.8828 29.0663 61.5664 29.1557L62.7554 30.6551H61.5015L60.4615 29.3092H59.6219V30.6551H58.5527V26.4554Z" fill="#2C2C2C"/>
<path id="Path 20035" d="M74.5234 29.8749L75.075 29.1084C75.421 29.4764 75.873 29.6882 76.3464 29.7042C76.732 29.7042 76.9581 29.5299 76.9581 29.2434V29.2297C76.9581 28.956 76.813 28.82 76.1051 28.6102C75.2473 28.3574 74.6926 28.0846 74.6926 27.1119V27.0982C74.6968 26.8867 74.7398 26.6786 74.8186 26.4871C74.8975 26.2957 75.0106 26.125 75.1507 25.9861C75.2908 25.8471 75.4548 25.743 75.6322 25.6803C75.8097 25.6175 75.9967 25.5976 76.1813 25.6218C76.7561 25.6102 77.3161 25.8296 77.7629 26.2413L77.2739 27.0553C76.9569 26.7686 76.5702 26.5995 76.166 26.5708C75.8077 26.5708 75.6201 26.7633 75.6201 27.0024V27.0142C75.6201 27.3354 75.7989 27.4376 76.5348 27.653C77.3998 27.9139 77.8856 28.2671 77.8856 29.1221V29.1376C77.8856 30.1103 77.2443 30.655 76.3232 30.655C75.659 30.6547 75.0184 30.3753 74.5242 29.8703" fill="#2C2C2C"/>
<path id="Rectangle 12" d="M84.6101 26.4524H83.7695V30.6551H84.6101V26.4524Z" fill="#2C2C2C"/>
<path id="Path 20036" d="M93.671 26.4524V29.0418L91.4569 26.4524H90.4951V30.6551H91.5255V27.9865L93.8145 30.6551H94.6978V26.4524H93.671Z" fill="#2C2C2C"/>
<path id="Path 20037" d="M100.581 28.1477V28.1341C100.593 27.6282 100.745 27.1373 101.017 26.7219C101.29 26.3065 101.672 25.9849 102.115 25.7969C102.558 25.609 103.044 25.5629 103.512 25.6644C103.979 25.7659 104.409 26.0105 104.747 26.3679L104.115 27.1565C103.811 26.8159 103.393 26.6166 102.951 26.6023C102.769 26.6074 102.59 26.651 102.424 26.7306C102.259 26.8102 102.11 26.9242 101.987 27.0658C101.863 27.2074 101.768 27.3738 101.706 27.5551C101.645 27.7364 101.618 27.9289 101.628 28.1213V28.1368C101.616 28.3303 101.642 28.5242 101.703 28.7071C101.764 28.8899 101.859 29.0579 101.982 29.2009C102.106 29.344 102.255 29.4592 102.421 29.5397C102.588 29.6202 102.768 29.6643 102.951 29.6695C103.177 29.6667 103.399 29.614 103.605 29.5148C103.81 29.4156 103.994 29.2721 104.144 29.0935L104.784 29.783C104.465 30.171 104.043 30.4473 103.573 30.5753C103.103 30.7032 102.607 30.6767 102.151 30.4994C101.696 30.3221 101.302 30.0022 101.022 29.5822C100.742 29.1622 100.589 28.662 100.583 28.1477" fill="#2C2C2C"/>
<path id="Path 20038" d="M109.826 26.4524V30.6551H113.188V29.8355H110.788V28.9525H112.874V28.1299H110.788V27.2758H113.156V26.4524H109.826Z" fill="#2C2C2C"/>
<path id="Path 20039" d="M126.9 25.6126L125.796 25.9722L125.969 26.7232L126.64 26.5457V29.8145H127.477V25.6118L126.9 25.6126Z" fill="#2C2C2C"/>
<path id="Path 20040" d="M135.759 27.288V27.278C135.758 27.1716 135.738 27.0667 135.699 26.97C135.66 26.8733 135.603 26.7871 135.533 26.7171C135.462 26.647 135.379 26.5947 135.29 26.5635C135.2 26.5323 135.105 26.5231 135.012 26.5363C134.921 26.5232 134.828 26.5326 134.74 26.5639C134.652 26.5952 134.571 26.6476 134.503 26.7176C134.435 26.7876 134.38 26.8734 134.344 26.9694C134.308 27.0653 134.29 27.169 134.292 27.2735V27.2871C134.292 27.3926 134.312 27.497 134.351 27.593C134.389 27.689 134.446 27.7746 134.516 27.8439C134.586 27.9132 134.669 27.9647 134.758 27.9949C134.847 28.025 134.941 28.0332 135.033 28.0188C135.124 28.0321 135.217 28.0233 135.304 27.9928C135.392 27.9624 135.473 27.9111 135.542 27.8424C135.611 27.7737 135.666 27.6891 135.704 27.5942C135.741 27.4994 135.761 27.3966 135.761 27.2925M133.459 30.0806L133.953 29.2635C134.204 29.5302 134.535 29.6789 134.879 29.6793C135.405 29.6793 135.679 29.2254 135.742 28.5754C135.5 28.8029 135.193 28.9215 134.879 28.9086C134.685 28.9365 134.488 28.9163 134.302 28.8493C134.116 28.7824 133.945 28.6703 133.8 28.5209C133.656 28.3715 133.542 28.1883 133.467 27.984C133.391 27.7797 133.356 27.5593 133.363 27.3379V27.3225C133.363 27.0873 133.406 26.8545 133.488 26.6388C133.571 26.4232 133.692 26.2292 133.844 26.0691C133.996 25.909 134.176 25.7863 134.371 25.7086C134.567 25.6309 134.775 25.5998 134.982 25.6175C135.208 25.5967 135.436 25.6333 135.648 25.7247C135.86 25.8161 136.051 25.96 136.208 26.1459C136.398 26.3972 136.541 26.6898 136.627 27.0057C136.714 27.3217 136.743 27.6543 136.713 27.9834V27.997C136.713 29.5795 136.063 30.6544 134.855 30.6544C134.342 30.6678 133.844 30.4624 133.459 30.0788" fill="#2C2C2C"/>
<path id="Path 20041" d="M141.766 30.0322L142.358 29.3785C142.635 29.648 143.017 29.8078 143.421 29.824C143.876 29.824 144.16 29.6174 144.16 29.2548V29.2433C144.16 28.8884 143.836 28.6817 143.372 28.6817C143.116 28.6861 142.863 28.7383 142.629 28.8353L142.065 28.4851L142.193 26.4524H144.924V27.2452H143.032L142.98 27.9604C143.171 27.9122 143.369 27.889 143.566 27.8912C143.767 27.8651 143.972 27.8804 144.166 27.9359C144.36 27.9914 144.538 28.0858 144.687 28.2122C144.836 28.3386 144.953 28.4939 145.029 28.6667C145.105 28.8396 145.138 29.0258 145.125 29.2118V29.2202C145.132 29.4195 145.091 29.6177 145.007 29.8014C144.923 29.9851 144.797 30.1502 144.637 30.2854C144.477 30.4206 144.288 30.5228 144.082 30.5851C143.875 30.6475 143.657 30.6685 143.441 30.6468C143.131 30.6553 142.822 30.6051 142.534 30.4993C142.246 30.3936 141.985 30.2346 141.766 30.0322" fill="#2C2C2C"/>
<path id="Path 20042" d="M153.443 29.0088V28.9943C153.443 28.5871 153.165 28.2851 152.702 28.2851C152.24 28.2851 151.977 28.5799 151.977 28.9906V29.0024C151.978 29.1072 151.999 29.2104 152.038 29.3053C152.078 29.4003 152.134 29.4847 152.204 29.5532C152.274 29.6217 152.356 29.6727 152.444 29.7028C152.533 29.7329 152.626 29.7415 152.718 29.7279C152.808 29.7431 152.9 29.7359 152.988 29.7069C153.076 29.6778 153.157 29.6275 153.226 29.5595C153.295 29.4916 153.35 29.4074 153.387 29.313C153.425 29.2185 153.444 29.116 153.443 29.0124M151.53 30.1251C151.338 29.874 151.195 29.5807 151.108 29.2638C151.021 28.9469 150.993 28.6131 151.026 28.2833V28.2688C151.026 26.7698 151.621 25.6127 152.886 25.6127C153.372 25.5971 153.846 25.789 154.214 26.1505L153.726 26.9766C153.49 26.7287 153.18 26.5897 152.858 26.5866C152.332 26.5866 152.064 27.0718 152.004 27.7129C152.26 27.5039 152.569 27.3944 152.884 27.401C153.075 27.3763 153.268 27.3984 153.45 27.4657C153.633 27.5331 153.8 27.644 153.942 27.7912C154.083 27.9383 154.195 28.1182 154.269 28.3185C154.344 28.5189 154.38 28.7351 154.374 28.9526V28.968C154.372 29.2012 154.328 29.4315 154.244 29.6445C154.16 29.8575 154.039 30.0488 153.887 30.2065C153.736 30.3641 153.557 30.4849 153.363 30.5612C153.168 30.6375 152.962 30.6678 152.757 30.6501C152.531 30.6662 152.306 30.6278 152.094 30.5374C151.883 30.4471 151.691 30.3068 151.531 30.126" fill="#2C2C2C"/>
<path id="Path 20043" d="M140.315 14.2933H146.528L144.802 7.61562H144.368L140.315 14.2933ZM29.222 14.2933H35.4346L33.7072 7.61562H33.2711L29.222 14.2933ZM148.537 0.395996C152.641 15.2868 154.294 21.1011 154.375 21.4094H147.994L147.125 18.5366H137.826L135.829 21.4094H128.421C121.173 21.4094 118.256 16.6656 120.795 9.65978H123.552C124.151 9.71662 124.751 9.54981 125.232 9.19231C125.713 8.83482 126.041 8.31268 126.149 7.72913C126.531 6.57323 126.357 5.74546 124.315 5.74546H119.93L114.095 21.4061H84.6841C77.4445 21.4061 74.5259 16.6623 77.0623 9.65646H79.8192C80.4193 9.71389 81.0194 9.5473 81.5006 9.18971C81.9818 8.83212 82.3089 8.30963 82.4171 7.72582C82.7917 6.56992 82.6309 5.74214 80.5752 5.74214H76.1977L70.3606 21.4094H61.1082C53.8686 21.4094 50.9534 16.6656 53.4898 9.65978H56.2484C56.8486 9.71687 57.4488 9.55018 57.9301 9.19268C58.4115 8.83518 58.739 8.31291 58.8479 7.72913C59.2192 6.57323 59.0618 5.74546 57.012 5.74546H52.6345L46.7948 21.4061H36.8985L36.0407 18.5333H26.7378L24.7317 21.4094H11.7577C3.8101 21.4094 -1.16334 18.5366 1.10872 9.49406C2.51118 3.86701 7.05446 0.395996 14.8985 0.395996H24.411L22.4083 5.80097H15.0003C12.5692 5.80097 8.93928 6.18959 7.86176 10.3773C6.94839 14.0721 7.80536 15.8958 12.9472 15.8958H21.4343L31.5428 0.395996H37.5492L41.7625 16.0566L48.0357 0.395996H55.9833C59.3354 0.395996 61.6638 0.395996 63.605 1.55604C64.6216 2.19282 65.3859 3.15313 65.7706 4.27708C66.1554 5.40103 66.1374 6.62079 65.7197 7.73328C65.3 8.93131 64.676 10.0502 63.8744 11.0419C63.2033 11.7983 62.3834 12.413 61.4642 12.8488C60.545 13.2845 59.5456 13.5324 58.5264 13.5774C58.358 15.7823 59.5525 16.0632 61.8768 16.0632H65.6599L71.6107 0.395996H79.5515C82.9079 0.395996 85.2287 0.395996 87.1775 1.55604C88.1943 2.19246 88.9582 3.15331 89.3413 4.27779C89.7244 5.40227 89.7035 6.62215 89.2821 7.73328C88.8679 8.93151 88.2474 10.0507 87.4478 11.0419C86.7758 11.7982 85.9553 12.4127 85.0356 12.8485C84.1158 13.2842 83.116 13.5322 82.0963 13.5774C81.928 15.7823 83.1225 16.0632 85.4451 16.0632H89.5026L95.4467 0.395996H111.501L109.449 5.63525H100.15L99.0118 8.55608H106.901L105.236 13.2393H97.4401L96.3558 16.0566H109.389L115.336 0.395996H123.284C126.636 0.395996 128.964 0.395996 130.907 1.55604C131.922 2.19407 132.685 3.15501 133.068 4.27892C133.45 5.40282 133.431 6.62191 133.012 7.73328C132.592 8.92897 131.972 10.0472 131.177 11.0419C130.504 11.7982 129.683 12.4127 128.762 12.8484C127.841 13.2842 126.841 13.5321 125.82 13.5774C125.663 15.7823 126.851 16.0632 129.176 16.0632H132.529L142.908 0.395996H148.533" fill="#2C2C2C"/>
</g>
</g>
</g>
</g>
</svg>
