<svg width="91" height="37" viewBox="0 0 91 37" fill="none" xmlns="http://www.w3.org/2000/svg">
<g id="_&#195;&#131;&#226;&#128;&#152;&#195;&#131;&#194;&#171;&#195;&#131;&#194;&#174;&#195;&#131;&#194;&#169;_1" clip-path="url(#clip0_117_4094)">
<path id="Vector" d="M11.7661 8.07417C5.34892 8.07417 0 10.8363 0 19.173C0 25.7775 3.59636 29.9362 11.9334 29.9362C21.7454 29.9362 22.3727 23.378 22.3727 23.378H17.6168C17.6168 23.378 16.598 26.9079 11.6406 26.9079C7.60329 26.9079 4.69883 24.1418 4.69883 20.2609H22.8707V17.8266C22.8707 13.9882 20.4681 8.07031 11.7661 8.07031V8.07417ZM11.6026 11.1835C15.4461 11.1835 18.0654 13.5715 18.0654 17.1554H4.80528C4.80528 13.3516 8.22296 11.1835 11.5988 11.1835H11.6026Z" fill="#E43238"/>
<path id="Vector_2" d="M22.8673 0V25.7507C22.8673 27.2128 22.7646 29.2651 22.7646 29.2651H27.3C27.3 29.2651 27.4635 27.7915 27.4635 26.4451C27.4635 26.4451 29.7027 30.002 35.7967 30.002C42.2101 30.002 46.5668 25.4807 46.5668 19.0073C46.5668 12.9814 42.5636 8.13992 35.8043 8.13992C29.4746 8.13992 27.5053 11.6081 27.5053 11.6081V0H22.8635H22.8673ZM34.6372 11.3187C38.9939 11.3187 41.7615 14.6017 41.7615 19.0034C41.7615 23.7254 38.5643 26.8116 34.6676 26.8116C30.0182 26.8116 27.5091 23.1274 27.5091 19.042C27.5091 15.2382 29.7597 11.3149 34.6372 11.3149V11.3187Z" fill="#3566AF"/>
<path id="Vector_3" d="M57.8384 8.07422C48.1822 8.07422 47.5625 13.4404 47.5625 14.2968H52.3678C52.3678 14.2968 52.6187 11.1643 57.5076 11.1643C60.682 11.1643 63.1417 12.638 63.1417 15.4734V16.4842H57.5076C50.026 16.4842 46.0723 18.7063 46.0723 23.2122C46.0723 27.7181 49.7256 30.0597 54.664 30.0597C61.3929 30.0597 63.5636 26.2868 63.5636 26.2868C63.5636 27.7875 63.6777 29.265 63.6777 29.265H67.9507C67.9507 29.265 67.7835 27.4326 67.7835 26.2598V16.1216C67.7835 9.47459 62.4992 8.07422 57.8384 8.07422ZM63.1379 19.5087V20.8551C63.1379 22.6103 62.0734 26.9735 55.7893 26.9735C52.3488 26.9735 50.8737 25.2298 50.8737 23.2122C50.8737 19.5357 55.8387 19.5125 63.1379 19.5125V19.5087Z" fill="#F2AE1C"/>
<path id="Vector_4" d="M65.1903 8.91553H70.6001L78.3592 24.69L86.0994 8.91553H90.9959L76.8956 37.0002H71.7558L75.8235 29.1727L65.1865 8.91553H65.1903Z" fill="#85B940"/>
</g>
<defs>
<clipPath id="clip0_117_4094">
<rect width="91" height="37" fill="white"/>
</clipPath>
</defs>
</svg>
