<svg width="32" height="13" viewBox="0 0 32 13" fill="none" xmlns="http://www.w3.org/2000/svg">
<g id="GPAY---SVGs">
<g id="GPay-Brand-Mark">
<g id="GPay">
<g id="Pay">
<path id="Fill-1" d="M15.1507 2.29996V5.37996H17.0507C17.5007 5.37996 17.8807 5.22996 18.1707 4.91996C18.4707 4.61996 18.6307 4.24996 18.6307 3.82996C18.6307 3.40996 18.4807 3.05996 18.1707 2.75996C17.8707 2.44996 17.5007 2.28996 17.0507 2.28996H15.1507V2.29996ZM15.1507 6.46996V10.05H14.0107V1.20996H17.0207C17.7907 1.20996 18.4307 1.46996 18.9707 1.96996C19.5107 2.47996 19.7907 3.09996 19.7907 3.82996C19.7907 4.55996 19.5207 5.19996 18.9707 5.69996C18.4407 6.19996 17.7907 6.44996 17.0207 6.44996H15.1407L15.1507 6.46996Z" fill="#5F6368"/>
<path id="Fill-3" d="M20.9405 8.18981C20.9405 8.48981 21.0705 8.7298 21.3205 8.9298C21.5705 9.1298 21.8605 9.2298 22.2005 9.2298C22.6805 9.2298 23.1005 9.0498 23.4805 8.6998C23.8505 8.3498 24.0405 7.9298 24.0405 7.4598C23.6905 7.1798 23.1905 7.0398 22.5605 7.0398C22.1005 7.0398 21.7105 7.1498 21.4105 7.3698C21.1005 7.5898 20.9505 7.8698 20.9505 8.1998L20.9405 8.18981ZM22.4105 3.7998C23.2505 3.7998 23.9105 4.0198 24.4005 4.4698C24.8905 4.9198 25.1305 5.5298 25.1305 6.3098V10.0298H24.0405V9.18981H23.9905C23.5205 9.87981 22.9005 10.2298 22.1105 10.2298C21.4405 10.2298 20.8805 10.0298 20.4405 9.6398C19.9905 9.2398 19.7705 8.7498 19.7705 8.1598C19.7705 7.5398 20.0105 7.0398 20.4805 6.6698C20.9505 6.2998 21.5905 6.1098 22.3805 6.1098C23.0505 6.1098 23.6105 6.2298 24.0505 6.4798V6.2198C24.0505 5.8298 23.8905 5.4898 23.5805 5.2198C23.2705 4.9398 22.9005 4.8098 22.4805 4.8098C21.8505 4.8098 21.3405 5.0798 20.9705 5.6098L19.9705 4.9798C20.5205 4.1898 21.3405 3.7998 22.4205 3.7998H22.4105Z" fill="#5F6368"/>
<g id="Group-7">
<path id="Fill-5" d="M31.3605 4L27.5706 12.71H26.4005L27.8105 9.66L25.3105 4H26.5505L28.3506 8.34H28.3806L30.1306 4H31.3605Z" fill="#5F6368"/>
</g>
</g>
<g id="G">
<path id="Fill-8" d="M10.5704 5.69992C10.5704 5.33992 10.5404 4.99992 10.4804 4.66992H5.69043V6.61992H8.43042C8.31042 7.25992 7.96044 7.79992 7.42044 8.15992V9.42992H9.06042C10.0204 8.54992 10.5704 7.23992 10.5704 5.69992Z" fill="#4285F4"/>
<path id="Fill-10" d="M5.6904 10.6498C7.0604 10.6498 8.21039 10.1998 9.06039 9.4198L7.42041 8.14981C6.96041 8.45981 6.3804 8.6398 5.6904 8.6398C4.3704 8.6398 3.24039 7.7498 2.84039 6.5498H1.15039V7.8598C1.99039 9.5198 3.7004 10.6598 5.6904 10.6598V10.6498Z" fill="#34A853"/>
<path id="Fill-12" d="M2.84036 6.5498C2.74036 6.2398 2.68036 5.9198 2.68036 5.5798C2.68036 5.2398 2.74036 4.9198 2.84036 4.6098V3.2998H1.15036C0.80036 3.9898 0.610352 4.7598 0.610352 5.5798C0.610352 6.3998 0.81036 7.1698 1.15036 7.8598L2.84036 6.5498Z" fill="#FABB05"/>
<path id="Fill-14" d="M5.6904 2.51C6.4404 2.51 7.11041 2.77 7.64041 3.27L9.09039 1.82C8.21039 1 7.0604 0.5 5.6904 0.5C3.7104 0.5 1.99039 1.64 1.15039 3.3L2.84039 4.61C3.24039 3.41 4.3704 2.52 5.6904 2.52V2.51Z" fill="#E94235"/>
</g>
</g>
</g>
</g>
</svg>
