<svg width="159" height="47" viewBox="0 0 159 47" fill="none" xmlns="http://www.w3.org/2000/svg">
<g id="LENOVO" clip-path="url(#clip0_111_2302)">
<path id="Vector" d="M159 0H0V47H159V0Z" fill="#E1251B"/>
<g id="Group">
<path id="Vector_2" d="M68.7315 14.4818C66.2519 14.4818 63.4444 15.6192 61.7231 17.8941V14.8474H55.8213V36.1335H61.7231V24.0281C61.7231 21.8548 63.4239 19.5393 66.5798 19.5393C69.0184 19.5393 71.5389 21.2251 71.5389 24.0281V36.1335H77.4407V22.9312C77.4407 18.0363 73.916 14.4818 68.711 14.4818" fill="white"/>
<path id="Vector_3" d="M119.347 14.8474L114.019 29.3496L108.691 14.8474H101.949L110.802 36.1132H117.257L126.089 14.8474H119.347Z" fill="white"/>
<path id="Vector_4" d="M49.5506 29.5933C47.0711 31.4213 45.6571 31.8479 43.3825 31.8479C41.3537 31.8479 39.7553 31.2182 38.6282 30.1214L53.7106 23.9265C53.3827 21.611 52.5015 19.5596 51.1286 17.9957C49.1408 15.7208 46.2104 14.5021 42.6447 14.5021C36.1691 14.5021 31.2715 19.2346 31.2715 25.5108C31.2715 31.7869 36.1691 36.5194 43.3005 36.5194C47.2965 36.5194 51.3745 34.6508 53.2802 32.4572L49.5506 29.6136V29.5933ZM38.2389 21.2658C39.243 19.9252 40.8414 19.1534 42.7677 19.1534C44.8989 19.1534 46.4973 20.3517 47.3375 22.1391L37.0298 26.3842C36.7429 24.2109 37.3167 22.5047 38.2184 21.2861L38.2389 21.2658Z" fill="white"/>
<path id="Vector_5" d="M30.7178 30.7511H17.3158V8.49005H11.3525V36.1335H30.7178V30.7511Z" fill="white"/>
<path id="Vector_6" d="M136.663 36.4788C130.208 36.4788 125.167 31.726 125.167 25.4905C125.167 19.2549 130.249 14.4818 136.745 14.4818C143.241 14.4818 148.241 19.2346 148.241 25.4905C148.241 31.7463 143.159 36.4788 136.663 36.4788ZM136.663 19.4987C133.364 19.4987 130.987 21.9766 130.987 25.4905C130.987 29.0043 133.528 31.4822 136.745 31.4822C139.962 31.4822 142.422 28.9434 142.422 25.4905C142.422 22.0376 139.88 19.4987 136.663 19.4987Z" fill="white"/>
<path id="Vector_7" d="M91.2726 36.4788C84.8175 36.4788 79.7764 31.726 79.7764 25.4905C79.7764 19.2549 84.8585 14.4818 91.3545 14.4818C97.8506 14.4818 102.851 19.2346 102.851 25.4905C102.851 31.7463 97.7686 36.4788 91.2726 36.4788ZM91.2726 19.4987C87.9733 19.4987 85.5962 21.9766 85.5962 25.4905C85.5962 29.0043 88.1372 31.4822 91.3545 31.4822C94.5718 31.4822 97.0309 28.9434 97.0309 25.4905C97.0309 22.0376 94.4899 19.4987 91.2726 19.4987Z" fill="white"/>
<path id="Vector_8" d="M149.061 33.5946H148.098V33.0665H150.598V33.5946H149.635V36.1132H149.04V33.5946H149.061ZM151.274 33.0665H151.909L152.852 34.5289L153.795 33.0665H154.409V36.1335H153.836V33.9602L152.872 35.4429H152.811L151.848 33.9602V36.1335H151.274V33.0665Z" fill="white"/>
</g>
</g>
<defs>
<clipPath id="clip0_111_2302">
<rect width="159" height="47" fill="white"/>
</clipPath>
</defs>
</svg>
