<svg width="26" height="16" viewBox="0 0 26 16" fill="none" xmlns="http://www.w3.org/2000/svg">
<g id="Group">
<path id="Vector" fill-rule="evenodd" clip-rule="evenodd" d="M13.4798 13.3696C14.7998 14.5796 16.5798 15.3096 18.5098 15.3096C22.6598 15.3096 26.0098 11.9596 26.0098 7.80957C26.0098 3.65957 22.6598 0.30957 18.5098 0.30957C16.5798 0.30957 14.7998 1.04957 13.4798 2.24957C11.9698 3.62957 11.0098 5.59957 11.0098 7.80957C11.0098 10.0196 11.9698 11.9996 13.4798 13.3696Z" fill="#FCB131"/>
<path id="Vector_2" fill-rule="evenodd" clip-rule="evenodd" d="M25.0098 11.9793C25.0098 11.8493 25.1098 11.7393 25.2598 11.7393C25.3898 11.7393 25.4998 11.8393 25.4998 11.9793C25.4998 12.1193 25.3998 12.2293 25.2598 12.2293C25.1098 12.2293 25.0098 12.1093 25.0098 11.9793ZM25.2598 12.1693C25.3498 12.1693 25.4398 12.0793 25.4398 11.9793C25.4398 11.8793 25.3498 11.7993 25.2598 11.7993C25.1598 11.7993 25.0698 11.8693 25.0698 11.9793C25.0698 12.0893 25.1598 12.1693 25.2598 12.1693ZM25.2198 12.0993H25.1798V11.8793H25.2698C25.2698 11.8793 25.3098 11.8793 25.3298 11.8893C25.3398 11.8993 25.3598 11.9193 25.3598 11.9293C25.3598 11.9593 25.3498 11.9893 25.3198 11.9893L25.3598 12.0893H25.2998L25.2698 11.9993H25.2298V12.0893L25.2198 12.0993ZM25.2198 11.9693H25.2798C25.2798 11.9693 25.2898 11.9593 25.2898 11.9393C25.2898 11.9393 25.2898 11.9293 25.2798 11.9293H25.2198V11.9693Z" fill="#FCB131"/>
<path id="Vector_3" fill-rule="evenodd" clip-rule="evenodd" d="M15.91 7.01008C15.88 6.75008 15.84 6.48008 15.78 6.22008H11.19C11.25 5.96008 11.32 5.69008 11.41 5.43008H15.56C15.47 5.17008 15.37 4.90008 15.25 4.64008H11.72C11.85 4.38008 12 4.11008 12.16 3.85008H14.81C14.65 3.57008 14.46 3.31008 14.24 3.06008H12.74C12.96 2.78008 13.23 2.52008 13.49 2.27008C12.17 1.06008 10.4 0.330078 8.45996 0.330078C4.30996 0.330078 0.959961 3.70008 0.959961 7.83008C0.959961 11.9601 4.30996 15.3301 8.45996 15.3301C10.4 15.3301 12.17 14.5901 13.49 13.3901C13.75 13.1401 14.02 12.8801 14.25 12.6001H12.74C12.53 12.3501 12.34 12.0901 12.17 11.8101H14.82C14.98 11.5601 15.13 11.3001 15.26 11.0201H11.73C11.61 10.7701 11.51 10.5101 11.42 10.2301H15.57C15.66 9.97008 15.73 9.70008 15.79 9.44008C15.85 9.18008 15.89 8.91008 15.92 8.65008C15.95 8.39008 15.96 8.12008 15.96 7.86008C15.96 7.60008 15.95 7.33008 15.92 7.07008L15.91 7.01008Z" fill="#ED1C2E"/>
<path id="Vector_4" fill-rule="evenodd" clip-rule="evenodd" d="M25.0098 9.5398C25.0098 9.4098 25.1098 9.2998 25.2598 9.2998C25.3898 9.2998 25.4998 9.3998 25.4998 9.5398C25.4998 9.6798 25.3998 9.7898 25.2598 9.7898C25.1098 9.7898 25.0098 9.6698 25.0098 9.5398ZM25.2598 9.7298C25.3498 9.7298 25.4398 9.6398 25.4398 9.5398C25.4398 9.4398 25.3498 9.3598 25.2598 9.3598C25.1598 9.3598 25.0698 9.4298 25.0698 9.5398C25.0698 9.6498 25.1598 9.7298 25.2598 9.7298ZM25.2198 9.6598H25.1798V9.43981H25.2698C25.2698 9.43981 25.3098 9.4398 25.3298 9.4498C25.3398 9.4598 25.3598 9.4798 25.3598 9.4898C25.3598 9.5198 25.3498 9.5498 25.3198 9.5498L25.3598 9.64981H25.2998L25.2698 9.5598H25.2298V9.64981L25.2198 9.6598ZM25.2198 9.5298H25.2798C25.2798 9.5298 25.2898 9.5198 25.2898 9.4998C25.2898 9.4998 25.2898 9.4898 25.2798 9.4898H25.2198V9.5298Z" fill="white"/>
<path id="Vector_5" fill-rule="evenodd" clip-rule="evenodd" d="M10.9402 9.96922C10.6902 10.0392 10.5102 10.0692 10.3202 10.0692C9.94019 10.0692 9.7002 9.82922 9.7002 9.38922C9.7002 9.29922 9.71019 9.20922 9.73019 9.10922L9.7702 8.81922L9.8102 8.56922L10.1602 6.44922H10.9402L10.8502 6.91922H11.3402L11.2202 7.69922H10.7302L10.5102 8.95922C10.5102 8.95922 10.5002 9.04922 10.5002 9.07922C10.5002 9.23922 10.5902 9.31922 10.7802 9.31922C10.8802 9.31922 10.9402 9.30922 11.0302 9.28922L10.9302 9.96922H10.9402Z" fill="#003473"/>
<path id="Vector_6" fill-rule="evenodd" clip-rule="evenodd" d="M13.4495 9.93984C13.1695 10.0298 12.8895 10.0698 12.6095 10.0698C11.7395 10.0698 11.2295 9.59984 11.2295 8.68984C11.2295 7.62984 11.8295 6.83984 12.6595 6.83984C13.3195 6.83984 13.7495 7.27984 13.7495 7.96984C13.7495 8.18984 13.7195 8.40984 13.6495 8.72984H12.0295V8.81984C12.0295 9.18984 12.2695 9.35984 12.7395 9.35984C13.0295 9.35984 13.2995 9.29984 13.5895 9.16984L13.4595 9.92984L13.4495 9.93984ZM12.9595 8.09984V7.94984C12.9595 7.69984 12.8095 7.54984 12.5795 7.54984C12.3195 7.54984 12.1395 7.73984 12.0695 8.08984H12.9695L12.9595 8.09984Z" fill="#003473"/>
<path id="Vector_7" fill-rule="evenodd" clip-rule="evenodd" d="M4.72043 10.0092H3.91043L4.38043 7.08922L3.33043 10.0092H2.77043L2.72043 7.09922L2.22043 10.0092H1.44043L2.07043 6.19922H3.23043L3.27043 8.55922L4.05043 6.19922H5.35043L4.72043 10.0092Z" fill="#003473"/>
<path id="Vector_8" fill-rule="evenodd" clip-rule="evenodd" d="M6.6698 8.62961C6.5798 8.62961 6.5698 8.61961 6.5098 8.61961C6.0498 8.61961 5.81981 8.79961 5.81981 9.08961C5.81981 9.29961 5.93981 9.40961 6.10981 9.40961C6.50981 9.40961 6.6498 9.08961 6.6698 8.62961ZM7.31981 10.0096H6.60981V9.68961C6.44981 9.93961 6.20981 10.0696 5.76981 10.0696C5.36981 10.0696 5.0498 9.71961 5.0498 9.21961C5.0498 9.06961 5.07981 8.93961 5.10981 8.81961C5.23981 8.32961 5.7298 8.03961 6.4598 8.02961C6.5498 8.02961 6.69981 8.02961 6.80981 8.03961C6.83981 7.93961 6.83981 7.88961 6.83981 7.82961C6.83981 7.61961 6.6798 7.56961 6.2998 7.56961C6.0598 7.56961 5.8098 7.60961 5.6198 7.65961L5.51981 7.69961H5.4598L5.57981 7.00961C5.95981 6.88961 6.22981 6.84961 6.51981 6.84961C7.22981 6.84961 7.58981 7.15961 7.58981 7.75961C7.58981 7.90961 7.5998 8.01961 7.5498 8.35961L7.3898 9.45961L7.35981 9.64961L7.32981 9.80961V9.99961H7.31981V10.0096Z" fill="#003473"/>
<path id="Vector_9" fill-rule="evenodd" clip-rule="evenodd" d="M17.3604 6.94965C17.5804 6.94965 17.7904 7.00965 18.0804 7.15965L18.2104 6.31965C18.1404 6.28965 18.1204 6.28965 18.0204 6.24965L17.6804 6.17965C17.5804 6.14965 17.4604 6.13965 17.3104 6.13965C16.9104 6.13965 16.6804 6.13965 16.4304 6.29965C16.3004 6.36965 16.1404 6.48965 15.9404 6.69965L15.8504 6.66965L15.0104 7.25965L15.0504 6.93965H14.1804L13.6904 10.0296H14.5004L14.7904 8.36965C14.7904 8.36965 14.9104 8.12965 14.9704 8.05965C15.1204 7.86965 15.2504 7.86965 15.4104 7.86965H15.4704C15.4604 8.04965 15.4404 8.24965 15.4404 8.45965C15.4404 9.46965 16.0104 10.1096 16.9004 10.1096C17.1204 10.1096 17.3104 10.0796 17.6104 9.98965L17.7604 9.11965C17.5004 9.24965 17.2704 9.30965 17.0704 9.30965C16.6004 9.30965 16.3204 8.96965 16.3204 8.37965C16.3204 7.55965 16.7304 6.96965 17.3504 6.96965L17.3604 6.94965Z" fill="#003473"/>
<path id="Vector_10" fill-rule="evenodd" clip-rule="evenodd" d="M24.2304 6.19922L24.0504 7.28922C23.8604 6.99922 23.6204 6.85922 23.3104 6.85922C22.8804 6.85922 22.4904 7.09922 22.2404 7.54922L21.7304 7.23922L21.7704 6.91922H20.9004L20.4004 10.0092H21.2204L21.4804 8.34922C21.4804 8.34922 21.6904 8.10922 21.7404 8.03922C21.8604 7.88922 21.9904 7.84922 22.0904 7.84922C22.0004 8.10922 21.9404 8.41922 21.9404 8.75922C21.9404 9.53922 22.3504 10.0492 22.9404 10.0492C23.2304 10.0492 23.4704 9.94922 23.6904 9.69922L23.6504 10.0092H24.4304L25.0504 6.19922H24.2104H24.2304ZM23.2404 9.26922C22.9604 9.26922 22.8304 9.07922 22.8304 8.66922C22.8304 8.06922 23.0804 7.62922 23.4604 7.62922C23.7404 7.62922 23.8904 7.84922 23.8904 8.24922C23.8904 8.84922 23.6304 9.27922 23.2404 9.27922V9.26922Z" fill="#003473"/>
<path id="Vector_11" fill-rule="evenodd" clip-rule="evenodd" d="M19.4898 8.62961C19.3998 8.62961 19.3898 8.61961 19.3298 8.61961C18.8698 8.61961 18.6398 8.79961 18.6398 9.08961C18.6398 9.29961 18.7598 9.40961 18.9298 9.40961C19.3298 9.40961 19.4698 9.08961 19.4898 8.62961ZM20.1398 10.0096H19.4298V9.68961C19.2698 9.93961 19.0298 10.0696 18.5898 10.0696C18.1898 10.0696 17.8398 9.72961 17.8398 9.21961C17.8498 8.47961 18.3998 8.02961 19.2798 8.02961C19.3698 8.02961 19.5198 8.02961 19.6298 8.03961C19.6598 7.93961 19.6599 7.88961 19.6599 7.82961C19.6599 7.61961 19.4999 7.56961 19.1199 7.56961C18.8799 7.56961 18.6198 7.60961 18.4398 7.65961L18.3198 7.69961H18.2798L18.3998 7.00961C18.7798 6.88961 19.0498 6.84961 19.3398 6.84961C20.0498 6.84961 20.4099 7.15961 20.4099 7.75961C20.4099 7.90961 20.4199 8.01961 20.3699 8.35961L20.2098 9.45961L20.1798 9.64961L20.1498 9.80961V9.90961L20.1398 9.99961V10.0096Z" fill="#003473"/>
<path id="Vector_12" fill-rule="evenodd" clip-rule="evenodd" d="M9.01023 7.58961C9.17023 7.58961 9.39023 7.59961 9.63023 7.62961L9.75023 6.90961C9.51023 6.87961 9.21023 6.84961 9.01023 6.84961C8.11023 6.84961 7.80023 7.33961 7.80023 7.90961C7.80023 8.27961 7.98023 8.55961 8.40023 8.74961C8.74023 8.90961 8.80023 8.93961 8.80023 9.06961C8.80023 9.25961 8.62023 9.37961 8.30023 9.37961C8.06023 9.37961 7.84023 9.33961 7.58023 9.25961L7.49023 9.96961H7.50023L7.65023 9.99961C7.65023 9.99961 7.77023 10.0296 7.86023 10.0296C8.07023 10.0596 8.23023 10.0596 8.33023 10.0596C9.23023 10.0596 9.61023 9.71961 9.61023 9.02961C9.61023 8.59961 9.40023 8.34961 8.99023 8.17961C8.65023 8.01961 8.61023 7.99961 8.61023 7.85961C8.61023 7.71961 8.76023 7.59961 9.01023 7.59961V7.58961Z" fill="#003473"/>
<path id="Vector_13" fill-rule="evenodd" clip-rule="evenodd" d="M18.4397 6.08941L18.3097 6.90941C18.0197 6.75941 17.8097 6.69941 17.5897 6.69941C16.9697 6.69941 16.5497 7.28941 16.5497 8.12941C16.5497 8.69941 16.8397 9.05941 17.3097 9.05941C17.5197 9.05941 17.7397 8.99941 17.9997 8.86941L17.8497 9.73941C17.5597 9.80941 17.3597 9.83941 17.1297 9.83941C16.2597 9.83941 15.7197 9.21941 15.7197 8.20941C15.7197 6.83941 16.4697 5.89941 17.5397 5.89941C17.6897 5.89941 17.7997 5.90941 17.9097 5.92941L18.2497 6.01941C18.3497 6.05941 18.3697 6.05941 18.4397 6.08941Z" fill="white"/>
<path id="Vector_14" fill-rule="evenodd" clip-rule="evenodd" d="M15.8302 6.65941C15.8302 6.65941 15.7702 6.64941 15.7402 6.64941C15.4802 6.64941 15.3302 6.77941 15.0802 7.14941L15.1502 6.67941H14.4002L13.9102 9.77941H14.7202C15.0102 7.87941 15.0902 7.55941 15.4802 7.55941H15.5402C15.6102 7.18941 15.7002 6.90941 15.8502 6.65941H15.8202H15.8302Z" fill="white"/>
<path id="Vector_15" fill-rule="evenodd" clip-rule="evenodd" d="M11.1404 9.72922C10.9204 9.79922 10.7404 9.82922 10.5504 9.82922C10.1404 9.82922 9.90039 9.58922 9.90039 9.14922C9.90039 9.05922 9.91039 8.96922 9.93039 8.86922L9.97039 8.55922L10.0104 8.31922L10.3604 6.19922H11.1704L11.0804 6.65922H11.4904L11.3704 7.41922H10.9604L10.7404 8.69922C10.7404 8.75922 10.7304 8.79922 10.7304 8.82922C10.7304 8.98922 10.8204 9.06922 11.0104 9.06922C11.1104 9.06922 11.1704 9.05922 11.2304 9.03922L11.1304 9.71922L11.1404 9.72922Z" fill="white"/>
<path id="Vector_16" fill-rule="evenodd" clip-rule="evenodd" d="M8.01019 7.65914C8.01019 8.03914 8.2002 8.31914 8.6302 8.50914C8.9702 8.66914 9.01019 8.71914 9.01019 8.85914C9.01019 9.04914 8.8602 9.13914 8.5402 9.13914C8.3002 9.13914 8.08019 9.09914 7.82019 9.00914L7.7002 9.72914H7.7402L7.89019 9.75914C7.89019 9.75914 8.01019 9.78914 8.10019 9.78914C8.29019 9.79914 8.4502 9.81914 8.5602 9.81914C9.4102 9.81914 9.8102 9.49914 9.8102 8.78914C9.8102 8.35914 9.6502 8.10914 9.2402 7.91914C8.9002 7.76914 8.8602 7.72914 8.8602 7.59914C8.8602 7.41914 8.99019 7.33914 9.26019 7.33914C9.42019 7.33914 9.64019 7.36914 9.85019 7.39914L9.9702 6.67914C9.7602 6.64914 9.44019 6.61914 9.25019 6.61914C8.34019 6.61914 8.03019 7.08914 8.03019 7.65914H8.01019Z" fill="white"/>
<path id="Vector_17" fill-rule="evenodd" clip-rule="evenodd" d="M24.6597 9.77973H23.8797L23.9197 9.46973C23.6997 9.70973 23.4597 9.80973 23.1697 9.80973C22.5797 9.80973 22.1797 9.30973 22.1797 8.52973C22.1797 7.49973 22.7797 6.62973 23.4997 6.62973C23.8197 6.62973 24.0597 6.75973 24.2797 7.05973L24.4597 5.96973H25.2697L24.6497 9.77973H24.6597ZM23.4497 9.03973C23.8297 9.03973 24.0997 8.60973 24.0997 7.99973C24.0997 7.61973 23.9497 7.39973 23.6697 7.39973C23.2997 7.39973 23.0397 7.82973 23.0397 8.43973C23.0397 8.83973 23.1697 9.03973 23.4497 9.03973Z" fill="white"/>
<path id="Vector_18" fill-rule="evenodd" clip-rule="evenodd" d="M13.6301 9.69961C13.3501 9.78961 13.0902 9.82961 12.7902 9.82961C11.8802 9.82961 11.4102 9.33961 11.4102 8.44961C11.4102 7.37961 12.0101 6.59961 12.8401 6.59961C13.5001 6.59961 13.9302 7.03961 13.9302 7.72961C13.9302 7.94961 13.9001 8.16961 13.8401 8.48961H12.2202C12.2202 8.48961 12.2102 8.54961 12.2102 8.57961C12.2102 8.92961 12.4502 9.11961 12.9302 9.11961C13.2102 9.11961 13.4701 9.05961 13.7701 8.92961L13.6402 9.68961L13.6301 9.69961ZM13.1702 7.85961V7.69961C13.1702 7.44961 13.0402 7.29961 12.7902 7.29961C12.5402 7.29961 12.3502 7.50961 12.2802 7.85961H13.1802H13.1702Z" fill="white"/>
<path id="Vector_19" fill-rule="evenodd" clip-rule="evenodd" d="M4.91992 9.77973H4.10992L4.57993 6.84973L3.53992 9.77973H2.97992L2.91992 6.86973L2.41992 9.77973H1.66992L2.29992 5.96973H3.46992L3.50992 8.31973L4.28992 5.96973H5.54992L4.91992 9.77973Z" fill="white"/>
<path id="Vector_20" fill-rule="evenodd" clip-rule="evenodd" d="M6.93953 8.38938C6.84953 8.37938 6.80953 8.37938 6.74953 8.37938C6.28953 8.37938 6.05953 8.53938 6.05953 8.84938C6.05953 9.03938 6.17953 9.16938 6.34953 9.16938C6.68953 9.16938 6.91953 8.84938 6.93953 8.38938ZM7.52953 9.76938H6.84953V9.44938C6.65953 9.69938 6.38953 9.81938 6.00953 9.81938C5.56953 9.81938 5.26953 9.47938 5.26953 8.97938C5.26953 8.22938 5.77953 7.78938 6.69953 7.78938C6.78953 7.78938 6.90953 7.78938 7.01953 7.79938C7.04953 7.70938 7.04953 7.66937 7.04953 7.60938C7.04953 7.39938 6.91953 7.32938 6.53953 7.32938C6.29953 7.32938 6.03953 7.35938 5.85953 7.41938L5.73953 7.44938H5.66953L5.78953 6.76938C6.19953 6.64938 6.46953 6.60938 6.75953 6.60938C7.46953 6.60938 7.82953 6.91938 7.82953 7.50938C7.82953 7.66938 7.81953 7.78938 7.75953 8.12938L7.59953 9.22938L7.56953 9.41938V9.57938L7.53953 9.67938V9.76938H7.52953Z" fill="white"/>
<path id="Vector_21" fill-rule="evenodd" clip-rule="evenodd" d="M19.7601 8.38938C19.6701 8.37938 19.6301 8.37938 19.5701 8.37938C19.1101 8.37938 18.8801 8.53938 18.8801 8.84938C18.8801 9.03938 19.0001 9.16938 19.1701 9.16938C19.4901 9.16938 19.7401 8.84938 19.7601 8.38938ZM20.3501 9.76938H19.6701V9.44938C19.4801 9.69938 19.2001 9.81938 18.8301 9.81938C18.3901 9.81938 18.0801 9.47938 18.0801 8.97938C18.0801 8.22938 18.6101 7.78938 19.5201 7.78938C19.6101 7.78938 19.7301 7.78938 19.8401 7.79938C19.8701 7.70938 19.8701 7.66937 19.8701 7.60938C19.8701 7.39938 19.7401 7.32938 19.3601 7.32938C19.1201 7.32938 18.8601 7.35938 18.6801 7.41938L18.5601 7.44938H18.4901L18.6101 6.76938C19.0201 6.64938 19.2901 6.60938 19.5801 6.60938C20.2901 6.60938 20.6501 6.91938 20.6501 7.50938C20.6501 7.66938 20.6401 7.78938 20.5801 8.12938L20.4201 9.22938L20.3901 9.41938L20.3601 9.57938V9.67938L20.3501 9.76938Z" fill="white"/>
<path id="Vector_22" fill-rule="evenodd" clip-rule="evenodd" d="M22.5196 6.65941C22.5196 6.65941 22.4796 6.64941 22.4496 6.64941C22.1896 6.64941 22.0196 6.77941 21.7696 7.14941L21.8396 6.67941H21.0996L20.5996 9.77941H21.4196C21.6996 7.87941 21.7896 7.55941 22.1696 7.55941H22.2296C22.2996 7.18941 22.4096 6.90941 22.5396 6.65941H22.5096H22.5196Z" fill="white"/>
</g>
</svg>
