<svg width="114" height="19" viewBox="0 0 114 19" fill="none" xmlns="http://www.w3.org/2000/svg">
<g id="Isolation_Mode" clip-path="url(#clip0_117_4030)">
<path id="Vector" fill-rule="evenodd" clip-rule="evenodd" d="M13.8376 -0.000624548C18.0015 -0.000624548 20.9165 0.0884352 22.55 0.295772C24.8564 0.592168 26.2977 1.62956 26.8101 3.37837C27.1624 4.56395 27.3545 6.60916 27.3545 9.48442C27.3545 12.3597 27.1624 14.4049 26.8101 15.62C26.2977 17.3688 24.8564 18.4062 22.55 18.6731C20.8842 18.8804 17.9376 18.999 13.6774 18.999C9.41729 18.999 6.43835 18.8804 4.80489 18.6731C2.46654 18.4062 1.05714 17.3688 0.544739 15.62C0.16015 14.4049 0 12.3597 0 9.51398C0 6.6683 0.16015 4.59387 0.544359 3.37837C1.05714 1.62956 2.46654 0.592168 4.80489 0.295772C6.43835 0.0884352 9.44925 -0.000624548 13.8376 -0.000624548ZM13.5173 4.80121C10.4421 4.80121 8.58459 4.86035 7.91165 5.03847C7.14285 5.21623 6.63045 5.66083 6.40601 6.31311C6.18195 6.96504 6.08571 8.18055 6.08571 9.95893C6.08571 11.1149 6.14962 11.945 6.27781 12.4487C6.53421 13.3675 7.23872 13.9011 8.48797 14.0493C9.41691 14.168 11.1466 14.2271 13.6771 14.2271C16.2075 14.2271 17.9692 14.168 18.8981 14.0493C20.1154 13.9011 20.8519 13.3675 21.0763 12.4487C21.2365 11.9151 21.3004 11.1149 21.3004 10.0776C21.3004 8.71421 21.2365 7.76553 21.1722 7.2023C21.044 6.28354 20.7237 5.66083 20.2432 5.33486C19.7947 5.06804 18.8977 4.89027 17.4883 4.83113C16.944 4.80156 15.6304 4.80156 13.5165 4.80156L13.5173 4.80121ZM29.7571 18.7325V0.295772H43.4026C46.0932 0.295772 47.8229 0.325341 48.6237 0.44397C50.7376 0.681228 52.1793 1.39265 52.8838 2.54832C53.3962 3.40794 53.6526 4.94941 53.6526 7.20195C53.6526 9.45449 53.3643 11.0551 52.788 11.9742C52.2436 12.8634 51.3466 13.4562 50.0974 13.7822C49.1684 14.0194 47.9511 14.1676 46.3816 14.1972C45.6771 14.1972 44.7158 14.2268 43.4665 14.2268H35.8109V18.7322H29.7568L29.7571 18.7325ZM35.8113 9.60304H43.4026C44.6519 9.60304 45.3887 9.57348 45.6447 9.54391C46.5417 9.51434 47.118 9.24751 47.3744 8.77334C47.5026 8.44738 47.5985 7.94329 47.5985 7.17273C47.5985 6.46131 47.5023 5.95758 47.3421 5.66118C47.0857 5.24616 46.5094 5.00925 45.6763 4.94976C45.4199 4.94976 44.6511 4.92019 43.4022 4.89062H35.8109V9.6034L35.8113 9.60304ZM54.2613 0.295772H78.3808V4.97898H69.5083V18.7325H63.1338V4.97898H54.2613V0.295772ZM79.7583 0.295772H86.1327V18.7325H79.7583V0.295772ZM107.85 11.6187H113.936C113.968 12.5079 114 13.1302 114 13.4566C114 14.7903 113.744 15.8872 113.295 16.6873C112.815 17.5174 111.918 18.1102 110.573 18.4362C109.099 18.8216 106.569 18.9994 102.949 18.9994C98.9771 18.9994 96.2865 18.9402 94.909 18.8216C93.1154 18.6734 91.8338 18.4066 90.9692 18.0211C89.944 17.5174 89.2714 16.7465 88.9192 15.6795C88.6308 14.8199 88.5026 12.8043 88.5026 9.63261C88.5026 6.99461 88.5665 5.21624 88.7267 4.29712C88.9507 2.93377 89.5274 1.92595 90.4564 1.30324C91.1932 0.829074 92.3462 0.503109 93.9158 0.29542C95.5492 0.0880832 98.4962 -0.000976562 102.821 -0.000976562C105.223 -0.000976562 106.985 0.0581619 108.106 0.147222C109.708 0.29542 110.893 0.591816 111.629 1.00684C112.558 1.5405 113.135 2.31106 113.359 3.34844C113.551 4.05987 113.615 4.88992 113.615 5.83824C113.615 5.98644 113.615 6.34198 113.583 6.87563H107.529C107.497 6.04558 107.369 5.48236 107.177 5.24545C106.953 4.97862 106.28 4.80086 105.159 4.74172C104.006 4.65266 102.629 4.62309 101.027 4.62309C98.9132 4.62309 97.4714 4.68223 96.6707 4.77129C95.6778 4.91949 95.0692 5.39365 94.8447 6.25327C94.6526 6.93512 94.5564 8.06122 94.5564 9.60269C94.5564 11.1442 94.6526 12.2703 94.8447 12.8631C95.0688 13.6635 95.7098 14.1081 96.7665 14.2264C97.6312 14.3155 99.0406 14.3746 101.059 14.3746C103.525 14.3746 105.191 14.345 106.056 14.256C106.856 14.1669 107.337 13.9004 107.561 13.4558C107.753 13.0704 107.818 12.448 107.85 11.618L107.85 11.6187Z" fill="#2C2C2C"/>
</g>
<defs>
<clipPath id="clip0_117_4030">
<rect width="114" height="19" fill="white"/>
</clipPath>
</defs>
</svg>
