<svg width="33" height="13" viewBox="0 0 33 13" fill="none" xmlns="http://www.w3.org/2000/svg">
<g id="Group">
<path id="Vector" d="M20.5697 1.05959C20.5697 1.05959 21.5197 1.71959 20.5697 1.84959C20.5697 1.84959 17.0097 2.25959 14.3597 4.74959C14.3597 4.74959 10.3897 8.22959 8.88967 12.0396C8.88967 12.0396 8.38967 12.0396 8.55967 11.2896C8.72967 10.5396 9.71967 7.26959 14.1497 3.25959C14.1497 3.25959 18.4097 -0.630407 20.5697 1.06959V1.05959ZM9.26968 1.55959C9.30968 2.46959 10.0997 5.94959 10.0997 5.94959C10.3897 6.64959 10.6397 5.94959 10.6397 5.94959C11.5897 3.08959 9.64967 1.43959 9.64967 1.43959C9.14967 1.14959 9.27967 1.55959 9.27967 1.55959H9.26968Z" fill="#F64D25"/>
<g id="Group_2">
<path id="Vector_2" d="M2.92007 6.61895C2.68007 6.61895 2.54008 6.59894 2.39008 6.56894L2.75008 4.64895C2.86008 4.62895 3.05007 4.60894 3.31007 4.60894C3.84007 4.60894 4.28008 4.80895 4.28008 5.42895C4.28008 6.08895 3.74007 6.61895 2.92007 6.61895ZM3.21008 3.91895C2.70008 3.91895 2.17008 3.96895 1.83008 4.05895L0.830078 9.37895H1.94008L2.30008 7.42895C2.42008 7.42895 2.58008 7.45895 2.77008 7.45895C3.42008 7.45895 4.04007 7.29894 4.48007 6.94895C4.89007 6.62895 5.20007 6.10895 5.20007 5.42895C5.20007 4.90895 4.99007 4.51894 4.62007 4.27894C4.23007 3.99894 3.69008 3.91895 3.21008 3.91895Z" fill="#363636"/>
<path id="Vector_3" d="M6.4005 8.72887C6.0305 8.72887 5.8605 8.42887 5.8605 7.98887C5.8605 7.15887 6.48051 6.11887 7.33051 6.11887C7.47051 6.11887 7.5805 6.13887 7.6805 6.15887L7.5005 7.18887C7.3005 8.28887 6.8005 8.72887 6.4005 8.72887ZM7.6705 5.33887C5.6805 5.33887 4.77051 6.79887 4.77051 8.15887C4.77051 8.99887 5.27051 9.56887 5.99051 9.56887C6.46051 9.56887 6.9805 9.34887 7.3605 8.67887H7.38051C7.36051 8.96887 7.34051 9.24887 7.33051 9.47887H8.4205C8.4005 8.97887 8.4905 8.17887 8.5905 7.65887L9.0005 5.53887C8.6705 5.42887 8.1605 5.33887 7.6705 5.33887Z" fill="#363636"/>
<path id="Vector_4" d="M15.1301 8.75887C14.6601 8.75887 14.3801 8.41887 14.3801 7.89887C14.3801 7.21887 14.79 6.12887 15.59 6.12887C16.14 6.12887 16.33 6.54887 16.33 6.96887C16.33 7.71887 15.9 8.74887 15.14 8.74887L15.1301 8.75887ZM15.7101 5.33887C14.2701 5.33887 13.29 6.49887 13.29 7.89887C13.29 8.89887 13.98 9.56887 15.01 9.56887C16.4 9.56887 17.42 8.48887 17.42 7.00887C17.42 6.07887 16.79 5.33887 15.7 5.33887H15.7101Z" fill="#363636"/>
<path id="Vector_5" d="M20.6 5.3291C20.07 5.3291 19.57 5.5691 19.19 6.0891H19.17L19.24 5.4191H18.19C18.14 5.7791 18.07 6.2191 17.97 6.7391L17.46 9.4691H18.6499L18.9799 7.6691C19.1499 6.7791 19.6 6.2891 19.99 6.2891C20.3 6.2891 20.3999 6.4891 20.3999 6.7791C20.3999 6.9291 20.38 7.0891 20.36 7.2291L19.94 9.4691H21.13L21.58 7.1191C21.61 6.9191 21.6499 6.6191 21.6499 6.4391C21.6499 5.7391 21.27 5.3291 20.61 5.3291H20.6Z" fill="#363636"/>
<path id="Vector_6" d="M23.0704 7.12887C23.0704 7.12887 23.0104 7.12887 22.9704 7.12887C23.0704 6.67887 23.4503 6.11887 24.1203 6.11887C24.4503 6.11887 24.6503 6.28887 24.6503 6.52887C24.6503 6.97887 24.1203 7.12887 23.0603 7.12887H23.0704ZM24.2204 5.33887C22.7604 5.33887 21.8604 6.61887 21.8604 7.85887C21.8604 8.91887 22.4604 9.56887 23.6104 9.56887C24.0604 9.56887 24.6403 9.48887 25.1203 9.24887L25.0403 8.38887C24.7203 8.54887 24.3404 8.64887 23.9104 8.64887C23.5604 8.64887 23.2904 8.53887 23.1304 8.33887C23.0504 8.21887 23.0103 8.03887 23.0103 7.92887C23.0903 7.92887 23.1704 7.92887 23.2404 7.92887C24.7204 7.92887 25.6304 7.54887 25.6304 6.56887C25.6304 5.81887 25.0404 5.34887 24.2204 5.34887V5.33887Z" fill="#363636"/>
<path id="Vector_7" d="M26.8604 7.12887C26.8604 7.12887 26.8004 7.12887 26.7604 7.12887C26.8604 6.67887 27.2404 6.11887 27.9104 6.11887C28.2404 6.11887 28.4404 6.28887 28.4404 6.52887C28.4404 6.97887 27.9104 7.12887 26.8504 7.12887H26.8604ZM28.0104 5.33887C26.5504 5.33887 25.6504 6.61887 25.6504 7.85887C25.6504 8.91887 26.2504 9.56887 27.4004 9.56887C27.8504 9.56887 28.4304 9.48887 28.9104 9.24887L28.8304 8.38887C28.5104 8.54887 28.1404 8.64887 27.7004 8.64887C27.3504 8.64887 27.0804 8.53887 26.9204 8.33887C26.8404 8.21887 26.8004 8.03887 26.8004 7.92887C26.8804 7.92887 26.9604 7.92887 27.0304 7.92887C28.5104 7.92887 29.4204 7.54887 29.4204 6.56887C29.4204 5.81887 28.8304 5.34887 28.0104 5.34887V5.33887Z" fill="#363636"/>
<path id="Vector_8" d="M32.1203 5.32859C31.5703 5.32859 31.2404 5.71859 30.9604 6.25859H30.9303C30.9603 5.96859 30.9904 5.69859 31.0004 5.41859H29.9704C29.9904 5.83859 29.9304 6.69859 29.8204 7.30859L29.3604 9.45859H30.3504L30.6104 7.94859C30.7604 7.15859 31.1604 6.34859 31.9104 6.34859C31.9804 6.34859 32.0403 6.34859 32.0903 6.34859L32.3403 5.30859C32.2703 5.30859 32.2003 5.30859 32.1203 5.30859V5.32859Z" fill="#363636"/>
</g>
</g>
</svg>
