<svg width="31" height="9" viewBox="0 0 31 9" fill="none" xmlns="http://www.w3.org/2000/svg">
<g id="Group">
<path id="Vector" fill-rule="evenodd" clip-rule="evenodd" d="M3.36059 2.69969H5.50059C6.65059 2.69969 7.08059 3.27969 7.02059 4.13969C6.91059 5.54969 6.06059 6.32969 4.92059 6.32969H4.35059C4.19059 6.32969 4.09059 6.42969 4.05059 6.70969L3.80059 8.32969C3.78059 8.43969 3.73059 8.49969 3.65059 8.49969H2.31059C2.18059 8.49969 2.14059 8.39969 2.17059 8.18969L2.99059 2.98969C3.02059 2.77969 3.14059 2.67969 3.36059 2.67969V2.69969Z" fill="#009DE2"/>
<path id="Vector_2" fill-rule="evenodd" clip-rule="evenodd" d="M11.2703 2.59961C11.9903 2.59961 12.6604 2.98961 12.5704 3.96961C12.4604 5.12961 11.8404 5.77961 10.8504 5.77961H9.99035C9.87035 5.77961 9.81035 5.87961 9.77035 6.08961L9.60035 7.14961C9.58035 7.30961 9.49036 7.38961 9.37036 7.38961H8.57035C8.44035 7.38961 8.40035 7.30961 8.43035 7.12961L9.09035 2.89961C9.12035 2.68961 9.20035 2.60961 9.34035 2.60961H11.2504L11.2703 2.59961ZM9.97035 4.85961H10.6204C11.0304 4.83961 11.3004 4.55961 11.3204 4.05961C11.3404 3.74961 11.1204 3.51961 10.7904 3.51961H10.1804L9.97035 4.85961ZM14.7404 7.04961C14.8104 6.97961 14.8904 6.94961 14.8804 7.02961L14.8504 7.22961C14.8404 7.32961 14.8804 7.38961 14.9704 7.38961H15.6804C15.8004 7.38961 15.8604 7.33961 15.8904 7.15961L16.3304 4.41961C16.3504 4.27961 16.3204 4.20961 16.2104 4.20961H15.4304C15.3604 4.20961 15.3304 4.24961 15.3104 4.35961L15.2804 4.52961C15.2604 4.61961 15.2204 4.62961 15.1904 4.53961C15.0604 4.22961 14.7204 4.08961 14.2504 4.09961C13.1604 4.11961 12.4203 4.94961 12.3403 6.01961C12.2803 6.83961 12.8704 7.48961 13.6504 7.48961C14.2104 7.48961 14.4704 7.31961 14.7504 7.05961L14.7404 7.04961ZM14.1504 6.62961C13.6804 6.62961 13.3504 6.24961 13.4204 5.78961C13.4904 5.32961 13.9304 4.94961 14.4004 4.94961C14.8704 4.94961 15.2004 5.32961 15.1304 5.78961C15.0603 6.24961 14.6204 6.62961 14.1504 6.62961ZM17.7204 4.18961H17.0004C16.8504 4.18961 16.7903 4.29961 16.8403 4.43961L17.7304 7.05961L16.8504 8.29961C16.7804 8.39961 16.8304 8.49961 16.9404 8.49961H17.7504C17.8704 8.49961 17.9304 8.46961 17.9904 8.37961L20.7404 4.43961C20.8204 4.31961 20.7804 4.18961 20.6504 4.18961H19.8904C19.7604 4.18961 19.7104 4.23961 19.6304 4.34961L18.4804 6.00961L17.9704 4.34961C17.9404 4.24961 17.8604 4.18961 17.7304 4.18961H17.7204Z" fill="#113984"/>
<path id="Vector_3" fill-rule="evenodd" clip-rule="evenodd" d="M23.5907 2.59961C24.3107 2.59961 24.9807 2.98961 24.8907 3.96961C24.7807 5.12961 24.1607 5.77961 23.1707 5.77961H22.3107C22.1907 5.77961 22.1307 5.87961 22.0907 6.08961L21.9207 7.14961C21.9007 7.30961 21.8107 7.38961 21.6907 7.38961H20.8907C20.7607 7.38961 20.7207 7.30961 20.7507 7.12961L21.4107 2.89961C21.4407 2.68961 21.5207 2.60961 21.6607 2.60961H23.5707L23.5907 2.59961ZM22.2907 4.85961H22.9407C23.3507 4.83961 23.6207 4.55961 23.6407 4.05961C23.6607 3.74961 23.4407 3.51961 23.1107 3.51961H22.5007L22.2907 4.85961ZM27.0607 7.04961C27.1307 6.97961 27.2107 6.94961 27.2007 7.02961L27.1707 7.22961C27.1607 7.32961 27.2007 7.38961 27.2907 7.38961H28.0007C28.1207 7.38961 28.1807 7.33961 28.2107 7.15961L28.6507 4.41961C28.6707 4.27961 28.6407 4.20961 28.5307 4.20961H27.7507C27.6807 4.20961 27.6507 4.24961 27.6307 4.35961L27.6007 4.52961C27.5907 4.61961 27.5407 4.62961 27.5107 4.53961C27.3807 4.22961 27.0407 4.08961 26.5707 4.09961C25.4807 4.11961 24.7407 4.94961 24.6607 6.01961C24.6007 6.83961 25.1907 7.48961 25.9707 7.48961C26.5307 7.48961 26.7907 7.31961 27.0707 7.05961L27.0607 7.04961ZM26.4707 6.62961C26.0007 6.62961 25.6707 6.24961 25.7407 5.78961C25.8107 5.32961 26.2507 4.94961 26.7207 4.94961C27.1907 4.94961 27.5207 5.32961 27.4507 5.78961C27.3807 6.24961 26.9407 6.62961 26.4707 6.62961ZM29.7407 7.38961H28.9207C28.8607 7.38961 28.8107 7.33961 28.8207 7.27961L29.5407 2.71961C29.5407 2.65961 29.6107 2.60961 29.6807 2.60961H30.5007C30.5707 2.60961 30.6107 2.65961 30.6007 2.71961L29.8807 7.27961C29.8807 7.33961 29.8107 7.38961 29.7407 7.38961Z" fill="#009DE2"/>
<path id="Vector_4" fill-rule="evenodd" clip-rule="evenodd" d="M2.02041 0.909414H4.17041C4.77041 0.909414 5.49042 0.929414 5.97042 1.34941C6.29042 1.62941 6.46041 2.07941 6.42041 2.56941C6.29041 4.20941 5.31041 5.12941 3.99041 5.12941H2.93042C2.75042 5.12941 2.63042 5.24941 2.58042 5.56941L2.28041 7.44941C2.26041 7.56941 2.21042 7.63941 2.11042 7.64941H0.790416C0.640416 7.64941 0.590413 7.53941 0.630413 7.28941L1.58042 1.25941C1.62042 1.01941 1.75042 0.899414 2.01042 0.899414L2.02041 0.909414Z" fill="#113984"/>
<path id="Vector_5" fill-rule="evenodd" clip-rule="evenodd" d="M2.61059 5.36945L2.98059 2.99945C3.01059 2.78945 3.13059 2.68945 3.35059 2.68945H5.49059C5.84059 2.68945 6.13059 2.74945 6.36059 2.84945C6.14059 4.30945 5.20059 5.11945 3.97059 5.11945H2.91059C2.77059 5.11945 2.67059 5.18945 2.60059 5.36945H2.61059Z" fill="#172C70"/>
</g>
</svg>
