<svg width="134" height="21" viewBox="0 0 134 21" fill="none" xmlns="http://www.w3.org/2000/svg">
<g id="Group">
<path id="Vector" d="M52.7062 3.14059C52.181 4.21125 52.0735 5.36381 51.8589 6.48679C51.0398 10.774 50.243 15.0652 49.4672 19.3601C49.3811 19.8374 49.1971 19.9553 48.7488 19.9453C47.5839 19.9189 46.4163 19.8971 45.2538 19.953C44.6789 19.9808 44.4761 19.7842 44.3773 19.2491C43.5782 14.9296 42.7582 10.6138 41.9423 6.2975C41.7555 5.30875 41.5597 4.32136 41.3679 3.33352C41.2973 3.33944 41.2266 3.3449 41.1565 3.35081C41.1565 5.19227 41.1624 7.03418 41.1551 8.87563C41.1415 12.2537 41.0886 15.6322 41.1246 19.0098C41.1333 19.8247 40.8722 19.9926 40.1333 19.9517C39.0564 19.892 37.9735 19.9171 36.8943 19.9453C36.4483 19.9571 36.3121 19.8252 36.3239 19.3711C36.4807 13.4404 36.6246 7.50967 36.7531 1.57807C36.7636 1.08847 36.9358 0.964703 37.4018 0.969253C39.5903 0.990184 41.7788 0.993823 43.9668 0.967432C44.4907 0.961061 44.6183 1.16218 44.6921 1.64404C45.3599 5.98718 46.0574 10.3253 46.7503 14.6648C46.7753 14.8227 46.8418 14.9742 47.0327 15.1212C47.383 12.9885 47.7334 10.8563 48.0837 8.72365C48.4746 6.34573 48.8882 3.97145 49.2381 1.58808C49.3173 1.04888 49.5355 0.966069 50.0034 0.970164C52.135 0.989275 54.2665 0.992458 56.3981 0.968342C56.9014 0.962427 57.0896 1.08619 57.1001 1.62493C57.2103 7.52832 57.3397 13.4313 57.4841 19.3337C57.4959 19.8265 57.3524 19.9603 56.8709 19.9466C55.7065 19.9139 54.5389 19.8998 53.3759 19.9507C52.77 19.9771 52.6948 19.7282 52.6962 19.2154C52.7112 13.8571 52.7053 8.49842 52.7053 3.14014L52.7062 3.14059Z" fill="#054FA2"/>
<path id="Vector_2" d="M103.548 4.7532C103.548 9.35706 103.529 14.0979 103.567 18.8383C103.573 19.5786 103.42 19.8284 102.649 19.7715C101.631 19.6964 100.602 19.7278 99.5802 19.7638C99.0768 19.7815 98.8941 19.6664 98.8959 19.1163C98.9164 13.2948 98.9178 7.4733 98.8945 1.65226C98.8923 1.0571 99.1059 0.960637 99.628 0.968372C101.419 0.995673 103.212 1.02616 105 0.956541C105.77 0.92651 106.069 1.16995 106.276 1.89615C107.512 6.22791 108.796 10.5465 110.077 14.865C110.154 15.1244 110.138 15.4411 110.279 15.5439C110.279 11.8842 110.283 8.14035 110.277 4.39601C110.275 3.45913 110.252 2.5218 110.211 1.58583C110.193 1.17449 110.268 0.957908 110.755 0.969739C111.949 0.998405 113.145 1.01979 114.336 0.962912C115.024 0.930151 114.959 1.31555 114.958 1.75783C114.953 6.78394 114.955 11.8105 114.955 16.8366C114.955 17.6315 114.938 18.4274 114.962 19.2218C114.974 19.6241 114.845 19.7642 114.432 19.7606C112.499 19.7428 110.565 19.7333 108.632 19.7651C108.099 19.7738 108.061 19.4457 107.952 19.0908C106.542 14.4856 105.127 9.88215 103.713 5.27875C103.642 5.04532 103.567 4.81326 103.548 4.7532H103.548Z" fill="#054FA2"/>
<path id="Vector_3" d="M80.2341 8.70451C80.2332 6.3771 80.2528 4.04968 80.22 1.72272C80.2114 1.1221 80.3931 0.94237 80.9863 0.966031C82.0928 1.01017 83.2044 1.02245 84.3096 0.962392C84.9879 0.925536 85.0936 1.18671 85.0904 1.79007C85.0671 6.21784 85.0717 10.6452 85.0835 15.0729C85.0872 16.4648 85.8015 17.1269 87.1445 17.0477C88.1704 16.9872 88.8118 16.2669 88.8282 15.0816C88.8501 13.464 88.8351 11.8459 88.8351 10.2284C88.8351 7.38996 88.8533 4.55157 88.8209 1.71363C88.8141 1.11073 88.9858 0.941464 89.5799 0.965125C90.7429 1.01154 91.9101 0.996975 93.0745 0.969674C93.5205 0.959209 93.6521 1.09662 93.6498 1.54391C93.6289 6.17006 93.6612 10.7967 93.6084 15.4224C93.5797 17.9109 92.2759 19.5071 89.8514 20.1486C87.8656 20.6742 85.8543 20.6628 83.875 20.1104C81.6204 19.4811 80.4273 17.935 80.2975 15.5998C80.277 15.2313 80.2391 14.8632 80.2382 14.4946C80.2323 12.5644 80.2355 10.6347 80.2346 8.70451H80.2341Z" fill="#054FA2"/>
<path id="Vector_4" d="M124.719 10.1866C124.719 11.9857 124.702 13.4331 124.724 14.8801C124.744 16.2429 125.409 16.8849 126.713 16.8599C127.976 16.8357 128.606 16.1864 128.624 14.8783C128.633 14.1689 128.6 13.4582 128.636 12.7501C128.66 12.2628 128.565 12.0522 128 12.0608C126.72 12.0795 126.719 12.0435 126.719 10.769C126.719 9.76979 127.227 9.27018 128.243 9.27018C129.72 9.27018 131.198 9.29338 132.675 9.25835C133.247 9.2447 133.473 9.37939 133.456 10.0018C133.406 11.7882 133.451 13.5774 133.403 15.3642C133.346 17.4932 132.265 18.9734 130.291 19.7033C127.921 20.5796 125.494 20.5814 123.123 19.6983C121.333 19.0317 120.173 17.7189 120.063 15.771C119.857 12.1177 119.761 8.45206 120.124 4.80646C120.326 2.78482 121.604 1.46846 123.534 0.861468C125.617 0.206244 127.735 0.19441 129.829 0.806407C133.031 1.74238 133.553 4.15124 133.52 6.57284C133.516 6.85905 133.413 6.9819 133.121 6.98054C131.786 6.97416 130.45 6.97143 129.115 6.98326C128.784 6.98599 128.652 6.86086 128.667 6.53507C128.681 6.25205 128.675 5.96721 128.662 5.68419C128.609 4.48431 128.027 3.89597 126.806 3.79997C125.732 3.71533 124.968 4.29593 124.811 5.43757C124.578 7.12978 124.785 8.83791 124.719 10.1861L124.719 10.1866Z" fill="#054FA2"/>
<path id="Vector_5" d="M2.75267 13.6371C3.43463 13.6371 4.11706 13.6544 4.79857 13.6303C5.17076 13.6171 5.30743 13.7468 5.28511 14.1162C5.26142 14.5121 5.27372 14.9107 5.28192 15.3079C5.30242 16.3231 5.67825 16.8914 6.48687 17.1435C7.36928 17.4183 8.41478 17.1689 8.83572 16.5829C9.3259 15.9004 9.2767 14.7341 8.71545 14.0339C8.15329 13.3322 7.39024 12.8854 6.62991 12.4418C5.38123 11.7137 4.07469 11.0835 2.90027 10.2286C0.585581 8.54364 -0.131921 6.48832 0.672592 3.7473C1.14455 2.13973 2.27706 1.16827 3.83234 0.684128C5.97345 0.0175283 8.14555 -0.0111376 10.2949 0.621791C12.7389 1.34117 14.0099 3.45336 13.6045 5.95459C13.5567 6.2508 13.4382 6.33498 13.1726 6.33453C11.8656 6.33089 10.5582 6.32498 9.25119 6.33863C8.91043 6.34227 8.79791 6.20439 8.82068 5.88543C8.83663 5.65974 8.83025 5.43132 8.8216 5.20472C8.78697 4.3006 8.34417 3.71408 7.5515 3.51342C6.74426 3.30912 5.88052 3.60306 5.51334 4.20732C5.09651 4.89349 5.17942 5.92046 5.7229 6.50152C6.27366 7.09031 6.97659 7.46934 7.67222 7.8552C8.88674 8.52953 10.1336 9.1438 11.2994 9.90687C14.0323 11.6951 14.6049 13.9743 13.5316 17.4406C13.092 18.8611 11.9157 19.6729 10.5236 20.1079C8.26581 20.8127 5.9853 20.8282 3.73485 20.1042C1.10355 19.2579 -0.3556 16.6857 0.15918 13.982C0.23298 13.5939 0.459392 13.6407 0.706304 13.6394C1.38827 13.6357 2.07024 13.638 2.75221 13.638L2.75267 13.6371Z" fill="#054FA2"/>
<path id="Vector_6" d="M64.7978 13.6854C64.8547 13.6854 64.9116 13.6845 64.9681 13.6854C65.6774 13.6963 66.5284 13.4702 67.0578 13.7842C67.6186 14.1172 67.204 15.0332 67.2951 15.6889C67.4085 16.507 67.8719 16.9543 68.6349 17.1431C69.4836 17.3529 70.392 17.0566 70.7706 16.4597C71.1737 15.8236 71.1437 14.7429 70.6817 14.1191C70.1455 13.3947 69.3916 12.9305 68.6299 12.486C67.3316 11.7288 65.9781 11.0682 64.7435 10.2014C63.1783 9.10204 62.2526 7.671 62.294 5.69942C62.3478 3.14086 63.6047 1.47504 66.0924 0.809805C68.0482 0.286991 70.033 0.283347 71.9864 0.822997C74.5148 1.52099 75.7858 3.57676 75.3899 6.15443C75.3321 6.53028 75.1384 6.52937 74.8738 6.52937C73.6515 6.52846 72.4288 6.51481 71.207 6.53665C70.7706 6.54438 70.6667 6.346 70.6931 5.96924C70.7091 5.7431 70.7009 5.51513 70.6918 5.28808C70.6617 4.52138 70.2954 3.94396 69.5497 3.78197C68.7903 3.6168 67.9712 3.61316 67.4828 4.38669C67.0591 5.05739 67.04 5.78678 67.5106 6.46566C67.824 6.9175 68.2791 7.22373 68.7461 7.4931C69.5811 7.97496 70.438 8.41814 71.2753 8.89591C71.94 9.27539 72.6001 9.6658 73.2429 10.0812C76.0154 11.8749 76.3971 14.3147 75.3653 17.4825C74.9011 18.9081 73.7066 19.6825 72.314 20.0989C70.1956 20.7327 68.0518 20.7568 65.9307 20.1276C63.1618 19.3058 61.7182 16.8851 62.2193 14.0517C62.2858 13.6768 62.4885 13.6836 62.7518 13.6845C63.4338 13.6859 64.1162 13.6845 64.7982 13.6845L64.7978 13.6854Z" fill="#054FA2"/>
<path id="Vector_7" d="M24.7661 3.00368C23.9502 8.41337 23.1284 13.8222 22.3294 19.2346C22.2551 19.7374 22.1353 19.974 21.5549 19.9522C20.2493 19.9021 18.9409 19.928 17.6335 19.9412C17.2312 19.9453 17.0467 19.9289 17.147 19.3966C18.2722 13.4372 19.3669 7.47149 20.4538 1.50485C20.5336 1.06622 20.7422 0.969295 21.1458 0.971571C23.5899 0.985221 26.0344 0.988865 28.478 0.969299C28.9463 0.965659 29.0903 1.12582 29.1737 1.58266C30.2574 7.52109 31.3594 13.4563 32.4833 19.3875C32.5789 19.8935 32.4241 19.9503 31.9967 19.9435C30.7749 19.9239 29.5499 19.8875 28.3318 19.9558C27.6535 19.9936 27.4138 19.7943 27.3209 19.1254C26.8171 15.503 26.2704 11.8865 25.7351 8.26868C25.4759 6.51413 25.2099 4.7605 24.947 3.00686C24.8864 3.00595 24.8263 3.00504 24.7657 3.00413L24.7661 3.00368Z" fill="#054FA2"/>
</g>
</svg>
