<svg width="31" height="11" viewBox="0 0 31 11" fill="none" xmlns="http://www.w3.org/2000/svg">
<path id="Vector" d="M24.4299 1.51953L26.9099 1.07953V10.6195H24.4299V1.51953ZM28.0599 1.51953V10.6195H30.5499V1.07953L28.0599 1.51953ZM20.8899 10.6195H23.3799V3.63953H20.8899V10.6195ZM4.45993 4.62953C4.14993 4.60953 3.41992 4.55953 3.41992 3.90953C3.41992 3.11953 4.46992 3.11953 4.85992 3.11953C5.54992 3.11953 6.44993 3.31953 7.07993 3.51953C7.07993 3.51953 7.43993 3.64953 7.73993 3.76953H7.76993V3.74953V1.60953H7.72992C6.97992 1.32953 6.09993 1.07953 4.46992 1.07953C1.66992 1.07953 0.669922 2.70953 0.669922 4.10953C0.669922 4.91953 1.01992 6.80953 4.21992 7.02953C4.48992 7.04953 5.20993 7.08953 5.20993 7.75953C5.20993 8.31953 4.61992 8.64953 3.61992 8.64953C2.52992 8.64953 1.46993 8.36953 0.829926 8.10953V10.3395C1.78993 10.5895 2.86992 10.7195 4.13992 10.7195C6.87992 10.7195 8.10992 9.17953 8.10992 7.63953C8.10992 5.89953 6.73992 4.77953 4.42992 4.61953L4.45993 4.62953ZM19.4899 3.53953C17.1899 3.60953 16.0299 4.63953 16.0299 6.68953V10.6195H18.5399V7.41953C18.5399 6.18953 18.6999 5.66953 20.1599 5.61953V3.57953C19.9199 3.52953 19.4999 3.53953 19.4999 3.53953H19.4899ZM12.7499 3.62953C12.6899 3.76953 12.2999 4.88953 11.3299 6.05953V1.07953L8.75992 1.58953V10.6195H11.3299V7.82953C12.0699 8.93953 12.4399 10.6195 12.4399 10.6195H15.5099C15.2099 9.35953 13.8799 7.02953 13.8799 7.02953C15.0699 5.51953 15.5999 3.90953 15.6799 3.63953H12.7499V3.62953ZM22.1399 2.96953C22.8199 2.96953 23.3699 2.41953 23.3699 1.74953C23.3699 1.07953 22.8199 0.519531 22.1399 0.519531C21.4599 0.519531 20.9199 1.06953 20.9199 1.74953C20.9199 2.42953 21.4699 2.96953 22.1399 2.96953Z" fill="#862165"/>
</svg>
