<svg width="140" height="24" viewBox="0 0 140 24" fill="none" xmlns="http://www.w3.org/2000/svg">
<g id="SONY" clip-path="url(#clip0_117_3778)">
<path id="Vector" d="M24.3465 10.596C23.6504 10.2702 22.5367 9.88235 21.6241 9.66516C19.8608 9.24628 15.8701 8.71881 13.9675 8.53264C11.9722 8.33096 8.49188 8.05171 7.11524 7.63284C6.6976 7.50873 5.8314 7.10536 5.8314 6.1435C5.8314 5.46089 6.2181 4.87136 6.99149 4.40595C8.21346 3.66128 10.7038 3.19586 13.2869 3.19586C16.3496 3.19586 18.9327 3.86296 20.5878 4.5766C21.1446 4.82482 21.8097 5.16613 22.3202 5.585C22.908 6.05042 23.7278 7.0278 24.0371 8.3775H26.8059V1.05494H23.7278V1.90821C23.7278 2.18746 23.4339 2.54428 22.8925 2.24952C21.5004 1.53588 17.587 0.0155139 12.8074 0C10.1005 0 7.00696 0.511958 4.39288 1.64447C1.97989 2.69942 0 4.39043 0 7.21396C0 9.74273 1.65507 11.2321 1.60866 11.201C2.32019 11.8371 3.44934 12.9076 6.40371 13.5436C7.73395 13.8229 10.5646 14.2573 13.3797 14.552C16.1794 14.8468 18.9327 15.1105 20.0464 15.3898C20.9435 15.607 22.4285 15.9173 22.4285 17.5462C22.4285 19.1752 20.8507 19.6716 20.5723 19.7802C20.2939 19.8888 18.4068 20.7266 15.0039 20.7266C12.4981 20.7266 9.48182 19.9974 8.36814 19.6096C7.09977 19.1752 5.76953 18.5856 4.5321 17.1118C4.22274 16.7395 3.74323 15.7466 3.74323 14.7382H0.680588V23.1312H4.09899V21.9987C4.09899 21.8746 4.26914 21.3316 4.84145 21.5953C5.55298 21.9056 7.65661 22.7279 9.85305 23.1778C11.6473 23.5501 12.8074 23.8138 15.0503 23.8138C18.7007 23.8138 20.6651 23.2398 22.0108 22.852C23.2947 22.4951 24.8569 21.8591 26.1408 20.8662C26.8368 20.3232 28.3527 18.9425 28.3527 16.4447C28.3527 13.947 27.0224 12.5507 26.5584 12.1008C25.9242 11.4803 25.1508 10.9994 24.3465 10.627V10.596Z" fill="black"/>
<path id="Vector_2" d="M49.8683 0C45.0114 0 39.8606 1.62896 36.9526 4.21978C34.6324 6.28313 33.4414 9.12217 33.4414 11.9922C33.4414 14.8623 34.586 17.7169 36.9526 19.7802C40.0926 22.5262 44.7948 24 49.8683 24C54.9418 24 59.7523 22.5417 62.815 19.7802C65.0887 17.7324 66.2798 14.7692 66.2798 11.9922C66.2798 9.21526 65.1506 6.29864 62.815 4.23529C59.5358 1.3342 55.2357 0.0155139 49.8683 0.0155139V0ZM56.8134 18.2443C55.0655 19.9354 52.5752 20.8352 49.8838 20.8352C47.2078 20.8352 44.6556 19.9043 42.9387 18.2443C41.2836 16.6464 40.402 14.3814 40.402 11.9767C40.402 9.57207 41.2682 7.30705 42.9387 5.70911C44.6556 4.04913 47.2233 3.13381 49.8838 3.13381C52.5443 3.13381 55.0965 4.06464 56.8134 5.70911C58.4839 7.30705 59.3501 9.57207 59.3501 11.9767C59.3501 14.3814 58.5458 16.5533 56.8134 18.2443Z" fill="black"/>
<path id="Vector_3" d="M90.9516 4.00262H93.7823C95.0816 4.00262 95.2981 4.48355 95.3136 5.66261L95.4683 14.5676L80.418 1.33423H69.6523V4.00262H72.0499C73.7823 4.00262 73.906 4.94897 73.906 5.75569V18.2444C73.906 18.989 73.9524 20.013 72.8387 20.013H69.8844V22.6814H82.5216V20.013H79.4281C78.1906 20.013 78.1442 19.47 78.1288 18.3064V7.61736L95.4683 22.6814H99.8766L99.6446 5.66261C99.6601 4.42149 99.7374 4.00262 101.068 4.00262H103.821V1.34974H90.9516V4.01813V4.00262Z" fill="black"/>
<path id="Vector_4" d="M127.625 1.33423V4.00262H129.497C130.023 4.00262 130.193 4.54561 129.945 4.82486C129.899 4.8714 124.764 10.7512 124.702 10.8132C124.64 10.8753 124.594 10.8598 124.547 10.7977C124.501 10.7357 119.427 4.82486 119.427 4.82486C119.072 4.39047 119.35 4.00262 119.768 4.00262H121.593V1.33423H106.496V4.00262H109.172C110.332 4.00262 111.106 4.71626 111.539 5.18168C111.894 5.55401 119.582 14.0401 119.768 14.2883C119.938 14.521 119.953 14.5521 119.953 14.6607V18.8649C119.953 18.958 119.938 19.3459 119.891 19.4389C119.798 19.6561 119.597 19.8578 119.304 19.9509C119.195 19.9819 118.669 19.9974 118.546 19.9974H115.87V22.6658H130.889V19.9974H128.058C127.935 19.9974 127.409 19.9974 127.3 19.9509C127.007 19.8578 126.805 19.6561 126.713 19.4389C126.666 19.3459 126.651 18.9425 126.651 18.8649V14.6607C126.651 14.5521 126.651 14.3814 126.759 14.2728C126.976 14.0401 134.74 5.39887 135.081 5.02654C135.839 4.18879 136.241 4.01813 137.246 4.01813H140.015V1.33423H127.641H127.625Z" fill="black"/>
</g>
<defs>
<clipPath id="clip0_117_3778">
<rect width="140" height="24" fill="white"/>
</clipPath>
</defs>
</svg>
