<svg width="127" height="28" viewBox="0 0 127 28" fill="none" xmlns="http://www.w3.org/2000/svg">
<g id="_&#195;&#131;&#226;&#128;&#152;&#195;&#131;&#194;&#171;&#195;&#131;&#194;&#174;&#195;&#131;&#194;&#169;_1" clip-path="url(#clip0_117_4099)">
<path id="Vector" d="M13.5586 18.7386C16.1421 18.7386 18.2355 16.5767 18.2355 13.9088C18.2355 11.2409 16.1421 9.07907 13.5586 9.07907C10.9752 9.07907 8.88535 11.2409 8.88535 13.9088C8.88535 16.5767 10.9788 18.7386 13.5586 18.7386ZM13.5586 23.3005C18.531 23.3005 22.5629 19.1367 22.5629 14.0019C22.5629 8.86698 18.531 4.70326 13.5586 4.70326C8.58629 4.70326 4.55437 8.86698 4.55437 14.0019C4.55437 19.1367 8.58629 23.3005 13.5586 23.3005ZM0 13.9981C0 6.26605 6.0713 0 13.5586 0C21.046 0 27.1173 6.26605 27.1173 13.9981C27.1173 21.7302 21.046 28 13.5586 28C6.0713 28 0 21.734 0 13.9981Z" fill="#E6051E"/>
<path id="Vector_2" d="M31.5166 3.95166H46.9669V7.97771H41.6522V24.1079H36.9321V8.00747H31.5166V3.95166Z" fill="#1C1C1C"/>
<path id="Vector_3" d="M70.2328 8.00747H65.9018V12.0335C65.9018 12.0335 69.2816 12.0447 69.786 12.0335C71.1444 12.0038 72.1929 11.3786 72.1929 10.0056C72.1929 8.51352 71.3029 8.00747 70.2328 8.00747ZM61.3979 3.95166H70.5643C75.778 3.95166 76.4987 7.63538 76.4987 9.77864C76.4987 12.8968 73.9008 14.4596 73.6702 14.5191C73.6702 14.5191 75.951 15.3972 75.951 18.0689V21.827C75.951 23.334 76.8446 23.7507 77.0031 24.1079H73.2775C71.5011 23.8996 71.5299 22.441 71.5443 21.6038V18.3703C71.5011 17.5814 71.2705 16.6996 69.6671 16.6698H65.8982V24.1079H61.3799L61.3943 3.95166H61.3979Z" fill="#1C1C1C"/>
<path id="Vector_4" d="M96.4238 3.95166V24.1079H110.483V19.9628H101.014V15.4605H109.096V11.6465H101.014V8.00747H110.483V3.95166H96.4238Z" fill="#1C1C1C"/>
<path id="Vector_5" d="M111.149 8.00747H116.72V24.1079H121.339V8.00747H127V3.95166H111.149V8.00747Z" fill="#1C1C1C"/>
<path id="Vector_6" d="M51.8457 11.0622L50.1847 16.264H53.6077L51.8457 11.0622ZM49.2298 3.94775H54.2418L61.0662 24.1078H56.2091L54.8003 19.918H49.0389L47.7093 24.1078H42.8955L49.2298 3.94775Z" fill="#1C1C1C"/>
<path id="Vector_7" d="M94.8056 12.8519H86.4174V16.7737H90.4025C90.3953 17.5812 90.5178 18.3849 89.581 19.5198C89.2603 19.9068 88.1722 20.77 86.648 20.77C85.3617 20.77 84.4393 20.3905 83.6394 19.6872C81.8703 18.1356 81.4523 15.2333 81.4523 13.7151C81.4523 11.8063 82.1873 7.06584 86.7057 6.87235C86.7057 6.87235 89.754 6.6677 90.5466 10.4668H94.7767C94.6903 8.54304 92.5248 3.14025 86.7057 3.13281C84.6987 3.13281 82.1477 3.75421 80.0399 5.93839C78.5121 7.51979 77.1357 10.1728 77.1357 13.9123C77.1357 17.9682 78.5806 20.6063 79.903 22.0537C82.2234 24.5989 84.5654 24.7961 85.7833 24.7961C86.7489 24.7961 88.5973 24.6472 90.997 22.9765L91.6312 24.1077H94.8092V12.8519H94.8056Z" fill="#1C1C1C"/>
</g>
<defs>
<clipPath id="clip0_117_4099">
<rect width="127" height="28" fill="white"/>
</clipPath>
</defs>
</svg>
