<svg width="138" height="31" viewBox="0 0 138 31" fill="none" xmlns="http://www.w3.org/2000/svg">
<g id="Group 129677">
<path id="Path 20001" d="M134.065 0.395996L126.778 16.651L124.026 10.4833H121.049L125.573 20.5688H127.977L137.019 0.395996H134.065Z" fill="#2C2C2C"/>
<g id="Clip path group">
<mask id="mask0_206_1982" style="mask-type:luminance" maskUnits="userSpaceOnUse" x="0" y="0" width="138" height="31">
<g id="clip-path">
<path id="Rectangle 6" d="M137.02 0.395996H0.0136719V30.6553H137.02V0.395996Z" fill="white"/>
</g>
</mask>
<g mask="url(#mask0_206_1982)">
<g id="Group 5">
<path id="Path 20002" d="M102.137 30.0649H108.184V18.9173C108.184 16.3748 109.657 14.5751 111.826 14.5751C113.92 14.5751 115.004 16.0618 115.004 18.1736V30.0649H121.051V17.0008C121.051 12.5802 118.416 9.45167 114.151 9.45167C112.942 9.41598 111.745 9.70517 110.683 10.2896C109.621 10.8741 108.731 11.7329 108.106 12.778H107.99V10.0393H102.138L102.137 30.0649ZM90.2783 9.4909C83.9593 9.4909 79.7371 14.0668 79.7371 20.0909C79.762 22.896 80.8836 25.5777 82.8578 27.5524C84.832 29.5271 87.4991 30.6349 90.2787 30.6349C93.0582 30.6349 95.7253 29.5271 97.6996 27.5524C99.6738 25.5777 100.795 22.896 100.82 20.0909C100.82 14.0668 96.5938 9.4909 90.2783 9.4909ZM90.2385 26.1936C87.371 26.1936 85.86 23.7679 85.86 20.0909C85.86 16.3748 87.371 13.99 90.2385 13.99C93.106 13.99 94.6965 16.3782 94.6965 20.0909C94.6965 23.7679 93.106 26.1936 90.2385 26.1936ZM62.5279 30.0649H79.503V25.2545H69.8923V25.1359L79.077 14.7304V10.0393H62.5279V14.8498H71.8293V14.9666L62.5279 25.449V30.0649ZM54.7757 30.0649H60.8622V10.0393H54.7774L54.7757 30.0649ZM40.6681 30.0649H46.7132V20.8739C46.7132 16.6878 49.1945 14.8498 52.9925 15.359H53.1082V10.082C52.7077 9.95366 52.2872 9.90047 51.8676 9.92504C49.5013 9.92504 47.915 11.021 46.5586 13.3683H46.4428V10.0419H40.6689L40.6681 30.0649ZM29.5455 26.2319C26.8715 26.2319 25.2447 24.4715 24.9345 21.7729H39.2339C39.2737 17.4699 38.1488 14.0284 35.7842 11.8791C33.9603 10.225 31.5688 9.35464 29.1187 9.45337C23.1513 9.45337 19.0035 14.0293 19.0035 20.0133C19.0035 26.0375 22.9569 30.6517 29.5066 30.6517C31.6713 30.7074 33.799 30.0781 35.5915 28.8521C37.2548 27.7564 38.4454 26.0657 38.9238 24.1201H33.111C32.806 24.801 32.2994 25.3698 31.6608 25.7481C31.0223 26.1265 30.2833 26.2949 29.5455 26.2319ZM29.2353 13.8348C31.3684 13.8348 32.8389 15.44 33.073 17.7847H24.9726C25.4374 15.3965 26.716 13.8348 29.2353 13.8348ZM6.91322 30.0649H13.2685L20.1664 10.0393H14.0815L10.2066 22.9064H10.1289L6.25318 10.0393H0.0136719L6.91322 30.0649ZM54.7774 2.91748H60.8622V8.35567H54.7774V2.91748Z" fill="#2C2C2C"/>
</g>
</g>
</g>
</g>
</svg>
