<svg width="128" height="28" viewBox="0 0 128 28" fill="none" xmlns="http://www.w3.org/2000/svg">
<g id="Group 146062">
<path id="Vector" fill-rule="evenodd" clip-rule="evenodd" d="M5.11121 7.24609H1L6.67738 20.6855H11.1801L16.8715 7.24609H12.7603L8.90079 16.2832L5.11121 7.24609Z" fill="#E64011" stroke="#E64011" stroke-width="0.09" stroke-miterlimit="2.61"/>
<path id="Vector_2" fill-rule="evenodd" clip-rule="evenodd" d="M110.311 7.31445H106.284V15.4219L101.152 7.31445H96.3271V20.6855H100.271V12.5781L105.486 20.6855H110.311V7.31445Z" fill="#E64011" stroke="#E64011" stroke-width="0.09" stroke-miterlimit="2.61"/>
<path id="Vector_3" fill-rule="evenodd" clip-rule="evenodd" d="M127.846 7.16406H123.735V15.2715L118.673 7.16406H113.862V20.5215H117.806V12.4141L123.022 20.5215H127.846V7.16406Z" fill="#E64011" stroke="#E64011" stroke-width="0.09" stroke-miterlimit="2.61"/>
<path id="Vector_4" fill-rule="evenodd" clip-rule="evenodd" d="M84.5672 7.31445H88.6784L95.3906 20.6719H91.0417L89.937 18.4297H83.3087L82.204 20.6719H78.0928L84.5672 7.31445ZM86.6088 11.252L84.5532 15.1895H88.5806L86.6088 11.252Z" fill="#E64011" stroke="#E64011" stroke-width="0.09" stroke-miterlimit="2.61"/>
<path id="Vector_5" fill-rule="evenodd" clip-rule="evenodd" d="M59.9971 7.24609V20.7539H64.1083V12.6465L67.1847 20.6855H70.0234L73.1837 12.5781V20.6855H77.211V7.24609H71.3658L68.611 14.7383L65.7584 7.24609H59.9971Z" fill="#E64011" stroke="#E64011" stroke-width="0.09" stroke-miterlimit="2.61"/>
<path id="Vector_6" fill-rule="evenodd" clip-rule="evenodd" d="M52.5726 24.6914C53.2857 24.6914 53.8311 24.459 53.8311 23.8438C53.8311 22.9961 53.1179 22.8457 52.3348 22.8457H46.4057C44.2802 22.7637 42.2945 21.3008 42.2246 18.8262C42.2246 16.9668 43.567 14.7383 46.2519 14.5059H56.3621V17.7461H46.4057C45.9303 17.7461 45.6926 18.293 45.6926 18.6758C45.6926 19.1406 46.0142 19.6055 46.4757 19.6055L52.4747 19.6875C55.1595 19.6875 57.1312 21.1504 57.1312 24.0078C57.1312 27.0156 54.0548 27.9453 52.5446 27.9453H43.0636V24.7051H52.5446L52.5726 24.6914Z" fill="#E64011" stroke="#E64011" stroke-width="0.09" stroke-miterlimit="2.61"/>
<path id="Vector_7" fill-rule="evenodd" clip-rule="evenodd" d="M52.5726 10.2539C53.2857 10.2539 53.8311 9.93945 53.8311 9.40625C53.8311 8.55859 53.1179 8.4082 52.3348 8.4082H46.4057C44.2802 8.32617 42.2945 6.86328 42.2246 4.38867C42.2246 2.5293 43.567 0.300781 46.2519 0.0683594H56.3621V3.30859H46.4057C45.9303 3.30859 45.6926 3.85547 45.6926 4.23828C45.6926 4.70312 46.0142 5.16797 46.4757 5.16797H52.4747C55.1595 5.25 57.1312 6.71289 57.1312 9.57031C57.1312 12.5781 54.0548 13.5078 52.5446 13.5078H43.0636V10.2676H52.5446L52.5726 10.2539Z" fill="#E64011" stroke="#E64011" stroke-width="0.09" stroke-miterlimit="2.61"/>
<path id="Vector_8" fill-rule="evenodd" clip-rule="evenodd" d="M26.1992 20.6855V7.31445H39.6935V10.5684H30.2265V12.4141H37.8756V15.6543H30.2265V17.4316H39.6935V20.6855H26.1992Z" fill="#E64011" stroke="#E64011" stroke-width="0.09" stroke-miterlimit="2.61"/>
<path id="Vector_9" fill-rule="evenodd" clip-rule="evenodd" d="M18.5361 7.31445H22.5634V20.6855H18.5361V7.31445Z" fill="#E64011" stroke="#E64011" stroke-width="0.09" stroke-miterlimit="2.61"/>
</g>
</svg>
