<svg width="33" height="12" viewBox="0 0 33 12" fill="none" xmlns="http://www.w3.org/2000/svg">
<g id="Group">
<g id="Group_2">
<path id="Vector" d="M13.91 11.0605H11.29L12.93 1.02051H15.54L13.91 11.0605Z" fill="#0066B2"/>
<path id="Vector_2" d="M9.08977 1.02051L6.59977 7.93051L6.30977 6.44051L5.42977 1.92051C5.42977 1.92051 5.31977 1.02051 4.18977 1.02051H0.0597656L0.00976562 1.19051C0.00976562 1.19051 1.26977 1.45051 2.74977 2.34051L5.01977 11.0705H7.74977L11.9098 1.02051H9.08977Z" fill="#0066B2"/>
<path id="Vector_3" d="M29.6695 11.0598H32.0695L29.9795 1.00977H27.8795C26.9095 1.00977 26.6695 1.75977 26.6695 1.75977L22.7695 11.0598H25.4995L26.0495 9.56977H29.3795L29.6895 11.0598H29.6695ZM26.7895 7.50977L28.1595 3.74977L28.9295 7.50977H26.7795H26.7895Z" fill="#0066B2"/>
<path id="Vector_4" d="M22.9695 3.43008L23.3395 1.27008C23.3395 1.27008 22.1895 0.830078 20.9895 0.830078C19.6895 0.830078 16.6095 1.40008 16.6095 4.16008C16.6095 6.76008 20.2295 6.79008 20.2295 8.15008C20.2295 9.51008 16.9895 9.27008 15.9095 8.41008L15.5195 10.6701C15.5195 10.6701 16.6895 11.2401 18.4695 11.2401C20.2495 11.2401 22.9495 10.3201 22.9495 7.80008C22.9495 5.28008 19.2995 4.94008 19.2995 3.81008C19.2995 2.68008 21.8495 2.82008 22.9695 3.44008V3.43008Z" fill="#0066B2"/>
</g>
<path id="Vector_5" d="M6.32 6.45L5.44 1.91C5.44 1.91 5.33 1 4.19 1H0.05L0 1.27C0 1.27 1.99 1.58 3.9 3.12C5.73 4.6 6.32 6.44 6.32 6.44V6.45Z" fill="#F9A533"/>
</g>
</svg>
