<svg width="143" height="35" viewBox="0 0 143 35" fill="none" xmlns="http://www.w3.org/2000/svg">
<g id="Group 129676">
<mask id="mask0_206_1976" style="mask-type:luminance" maskUnits="userSpaceOnUse" x="0" y="0" width="143" height="35">
<g id="clip-path">
<path id="Rectangle 10" d="M142.943 0.519287H0.443359V34.9487H142.943V0.519287Z" fill="white"/>
</g>
</mask>
<g mask="url(#mask0_206_1976)">
<g id="Group 15">
<path id="Path 20016" d="M84.9473 19.0624C84.9473 15.7019 83.4961 12.7457 78.5901 12.7457C76.638 12.7144 74.7094 13.1693 72.9818 14.0684L73.7805 16.7704C75.019 16.0441 76.429 15.6531 77.8687 15.6367C80.3528 15.6301 80.7665 17.0302 80.7665 17.9258V18.1384C75.3407 18.1299 71.9137 19.9864 71.9137 23.7711C71.9115 24.3807 72.0355 24.9843 72.278 25.5447C72.5206 26.1051 72.8766 26.6105 73.3241 27.0297C73.7716 27.4489 74.3011 27.7732 74.8801 27.9824C75.4591 28.1917 76.0753 28.2816 76.6907 28.2465C77.5172 28.2767 78.3398 28.1197 79.0955 27.7875C79.8512 27.4553 80.5202 26.9566 81.0512 26.3295H81.1467C81.1467 26.3295 81.7649 28.8918 85.1805 27.913C85.0023 26.7301 84.923 25.5347 84.9435 24.3389L84.9473 19.0624ZM80.8983 22.6109C80.9093 22.9774 80.8426 23.3421 80.7025 23.6815C80.5624 24.0209 80.352 24.3276 80.0848 24.5818C79.8176 24.8359 79.4995 25.0319 79.1511 25.1572C78.8027 25.2825 78.4316 25.3343 78.0617 25.3092C77.7936 25.3333 77.5235 25.2994 77.27 25.2097C77.0166 25.1199 76.786 24.9766 76.5943 24.7897C76.4027 24.6028 76.2545 24.3767 76.1603 24.1274C76.0661 23.8781 76.028 23.6114 76.0487 23.346C76.0487 21.3081 78.3159 20.745 80.8983 20.7583V22.6109ZM4.92709 8.17017C5.34461 10.2609 6.53505 16.3245 6.53505 16.3245C7.03377 18.8177 7.49619 21.4319 7.84204 23.499H7.90319C8.24045 21.3043 8.77166 19.2239 9.3363 16.6485L11.3427 8.17017H15.7786L17.6541 16.8668C18.1461 19.2872 18.5369 21.1503 18.8445 23.4008H18.9038C19.2429 21.1286 19.6824 19.188 20.1659 16.7033L21.9687 8.17017H26.226L20.9512 27.9092C17.592 28.6367 16.306 27.2998 15.8426 25.1769C15.3793 23.054 14.4812 19.0114 14.4812 19.0114C14.0165 17.0157 13.6571 14.9975 13.4044 12.9649H13.3414C12.9802 15.2153 12.6057 16.7921 12.043 19.0038L9.83121 27.9092C6.40224 28.5828 5.21276 27.5823 4.55257 24.8623C3.98697 22.5306 0.443359 8.17017 0.443359 8.17017H4.92709ZM38.3234 19.0624C38.3234 15.7019 36.8721 12.7457 31.9699 12.7457C30.0176 12.7141 28.0886 13.169 26.3607 14.0684L27.1575 16.7704C28.3967 16.044 29.8073 15.653 31.2476 15.6367C33.7384 15.6301 34.1454 17.0302 34.1454 17.9258V18.1384C28.7196 18.1299 25.2926 19.9864 25.2926 23.7711C25.2901 24.3808 25.4139 24.9845 25.6564 25.545C25.8989 26.1055 26.2548 26.611 26.7024 27.0303C27.15 27.4496 27.6796 27.7738 28.2587 27.983C28.8378 28.1922 29.4541 28.2818 30.0696 28.2465C30.8967 28.2768 31.7198 28.1199 32.4762 27.7877C33.2326 27.4554 33.9022 26.9567 34.4339 26.3295H34.5295C34.5295 26.3295 35.1495 28.8918 38.5651 27.913C38.3854 26.7302 38.3055 25.5348 38.3263 24.3389L38.3234 19.0624ZM34.2744 22.6109C34.2863 22.9775 34.2202 23.3424 34.0805 23.6821C33.9408 24.0218 33.7306 24.3287 33.4634 24.583C33.1963 24.8373 32.8781 25.0334 32.5295 25.1585C32.1809 25.2835 31.8096 25.3349 31.4397 25.3092C31.1716 25.3333 30.9014 25.2994 30.648 25.2097C30.3945 25.1199 30.164 24.9766 29.9723 24.7897C29.7806 24.6028 29.6325 24.3767 29.5383 24.1274C29.444 23.8781 29.4059 23.6114 29.4266 23.346C29.4266 21.3081 31.6938 20.745 34.2744 20.7583V22.6109ZM45.081 27.9092H41.0282V8.17017H45.081V27.9092ZM102.109 8.17017V12.8383H105.644V16.6173H102.109V22.1915C102.109 23.9941 102.573 24.868 103.954 24.868C104.473 24.8716 104.989 24.8109 105.492 24.6875L105.545 27.8194C104.596 28.1112 103.606 28.2562 102.612 28.2493C102.006 28.2741 101.401 28.1772 100.834 27.9645C100.267 27.7518 99.7489 27.4277 99.3119 27.0117C98.4941 26.1529 98.1129 24.7442 98.1129 22.7385V8.17017H102.109ZM91.3132 13.083V15.8795H91.4269C91.6881 14.9999 92.2227 14.2239 92.955 13.6617C93.6873 13.0996 94.58 12.7797 95.5065 12.7476C95.8165 12.7441 96.1258 12.7758 96.4285 12.842V16.725C96.0301 16.6582 95.6269 16.6228 95.2228 16.6192C94.4428 16.5714 93.6727 16.8116 93.0617 17.2934C92.4507 17.7752 92.0425 18.4642 91.9161 19.2268C91.8506 19.5874 91.8205 19.9535 91.8263 20.3199V27.9092H87.6492V13.0801L91.3132 13.083ZM51.7822 13.083V15.0972H51.8443C52.2792 14.3416 52.9188 13.7212 53.6911 13.3057C54.4633 12.8902 55.3376 12.6963 56.2153 12.7457C57.0967 12.7124 57.9669 12.9495 58.7067 13.4244C59.4464 13.8994 60.0196 14.5889 60.3475 15.3986H60.4067C60.9002 14.6564 61.5476 14.0265 62.3061 13.5506C63.1944 13.0061 64.2228 12.7266 65.2678 12.7457C67.943 12.7457 70.3028 14.57 70.3028 19.1758V27.9092H66.228V19.7842C66.228 17.4516 65.4274 16.0996 63.7612 16.0996C63.212 16.1029 62.6782 16.2799 62.2381 16.6048C61.798 16.9297 61.4746 17.3853 61.3153 17.9051C61.1994 18.2955 61.1424 18.7008 61.1462 19.1077V27.9092H57.0752V19.4583C57.0752 17.4742 56.3109 16.0996 54.6618 16.0996C54.1029 16.1303 53.5667 16.3285 53.1245 16.6679C52.6823 17.0073 52.3551 17.4717 52.1864 17.9995C52.0499 18.3894 51.9852 18.8002 51.9953 19.2126V27.9092H47.9186V13.0801L51.7822 13.083Z" fill="#2C2C2C"/>
<path id="Path 20017" d="M126.084 11.1482L125.288 2.14494C125.288 1.25083 126.331 0.519287 127.637 0.519287C128.943 0.519287 129.986 1.25083 129.986 2.14494L129.189 11.1511C129.045 11.4402 128.824 11.6834 128.549 11.8534C128.275 12.0234 127.959 12.1134 127.636 12.1134C127.314 12.1134 126.998 12.0234 126.723 11.8534C126.449 11.6834 126.227 11.4402 126.083 11.1511M121.172 15.7909L112.992 11.9734C112.229 11.5288 112.11 10.2617 112.764 9.12569C113.419 7.98964 114.57 7.45509 115.34 7.89975L122.727 13.0913C122.941 13.3452 123.063 13.6642 123.073 13.9965C123.083 14.3287 122.98 14.6545 122.781 14.9207C122.65 15.2256 122.419 15.4772 122.128 15.6349C121.836 15.7927 121.5 15.8473 121.174 15.7899M132.552 13.0913L139.938 7.89975C140.701 7.45509 141.856 7.98964 142.514 9.12569C143.171 10.2617 143.055 11.5278 142.284 11.9734L134.103 15.7909C133.777 15.8481 133.441 15.7934 133.149 15.6357C132.858 15.478 132.628 15.2264 132.497 14.9216C132.298 14.6556 132.195 14.33 132.205 13.9978C132.215 13.6656 132.336 13.3464 132.55 13.0923M127.635 23.3597C127.964 23.3199 128.297 23.3928 128.579 23.5664C128.861 23.74 129.077 24.0041 129.19 24.316L129.987 33.3231C129.987 34.2143 128.946 34.9487 127.638 34.9487C126.33 34.9487 125.292 34.2191 125.292 33.3231L126.085 24.316C126.198 24.0047 126.413 23.7408 126.695 23.5672C126.976 23.3936 127.307 23.3205 127.635 23.3597ZM132.502 20.5464C132.632 20.241 132.862 19.9889 133.154 19.8312C133.445 19.6735 133.781 19.6196 134.108 19.6781L142.287 23.4907C143.058 23.9373 143.168 25.2063 142.517 26.3414C141.865 27.4764 140.704 28.011 139.941 27.5673L132.554 22.3786C132.341 22.1237 132.219 21.8039 132.21 21.4712C132.2 21.1384 132.303 20.8122 132.502 20.5454M122.784 20.5454C122.983 20.8123 123.085 21.1387 123.075 21.4715C123.066 21.8043 122.944 22.124 122.73 22.3786L115.343 27.5673C114.58 28.011 113.425 27.4717 112.767 26.3414C112.11 25.211 112.228 23.9373 112.995 23.4907L121.174 19.6781C121.501 19.6196 121.837 19.6736 122.129 19.8313C122.421 19.9889 122.651 20.241 122.782 20.5464" fill="#2C2C2C"/>
</g>
</g>
</g>
</svg>
