<svg width="78" height="23" viewBox="0 0 78 23" fill="none" xmlns="http://www.w3.org/2000/svg">
<g id="_&#195;&#131;&#226;&#128;&#152;&#195;&#131;&#194;&#171;&#195;&#131;&#194;&#174;&#195;&#131;&#194;&#169;_1" clip-path="url(#clip0_112_2398)">
<path id="Vector" fill-rule="evenodd" clip-rule="evenodd" d="M48.3917 17.9875C43.8599 21.2611 37.2884 23 31.6312 23C23.7023 23 16.5611 20.1325 11.1571 15.3586C10.7328 14.9823 11.1102 14.4708 11.6213 14.7621C17.452 18.0816 24.6612 20.0797 32.1072 20.0797C37.129 20.0797 42.6525 19.0588 47.7329 16.9506C48.4996 16.6318 49.142 17.4439 48.3917 17.9875Z" fill="#F8991D"/>
<path id="Vector_2" fill-rule="evenodd" clip-rule="evenodd" d="M50.2767 15.8793C49.6976 15.1544 46.4459 15.5352 44.9829 15.7073C44.5398 15.76 44.4718 15.3815 44.8704 15.1062C47.4657 13.3238 51.7162 13.8376 52.2085 14.4341C52.7056 15.0351 52.0772 19.2057 49.646 21.1969C49.2709 21.502 48.9169 21.3391 49.081 20.9354C49.6273 19.5979 50.8534 16.6065 50.272 15.8793H50.2767Z" fill="#F8991D"/>
<path id="Vector_3" fill-rule="evenodd" clip-rule="evenodd" d="M45.0865 2.51196V0.779964C45.0865 0.51615 45.2904 0.33951 45.5366 0.341804H53.4726C53.7258 0.341804 53.9297 0.520738 53.9297 0.77767V2.26421C53.9274 2.51426 53.7117 2.83771 53.3319 3.35387L49.2221 9.09584C50.7483 9.06143 52.3613 9.28395 53.7492 10.0479C54.061 10.2199 54.1454 10.4746 54.1712 10.7246V12.5736C54.1712 12.8282 53.8852 13.1219 53.5875 12.9705C51.1445 11.7179 47.9045 11.5826 45.2037 12.9865C44.927 13.1311 44.6387 12.8397 44.6387 12.5851V10.8278C44.6387 10.5457 44.6434 10.0662 44.9341 9.63723L49.6957 2.95242H45.5483C45.2951 2.95242 45.0912 2.77578 45.0888 2.51655L45.0865 2.51196Z" fill="white"/>
<path id="Vector_4" fill-rule="evenodd" clip-rule="evenodd" d="M16.1411 13.3329H13.7263C13.4965 13.3192 13.3137 13.1494 13.2949 12.9338V0.809788C13.2949 0.56662 13.5059 0.373921 13.7638 0.373921H16.0121C16.2466 0.385391 16.4365 0.559738 16.4506 0.779965V2.36285H16.4951C17.0812 0.832728 18.1855 0.116989 19.6718 0.116989C21.1582 0.116989 22.1288 0.830434 22.804 2.36285C23.3901 0.832728 24.7194 0.116989 26.1402 0.116989C27.1553 0.116989 28.2572 0.525327 28.9348 1.44294C29.7014 2.46379 29.5443 3.94344 29.5443 5.24416V12.8948C29.542 13.1356 29.3333 13.3306 29.0754 13.3306H26.6653C26.4239 13.3146 26.2316 13.1288 26.2316 12.8948V6.46688C26.2316 5.9576 26.2762 4.68212 26.1636 4.19808C25.9831 3.3814 25.4439 3.152 24.7452 3.152C24.1591 3.152 23.5496 3.5351 23.3034 4.14761C23.0549 4.76012 23.0783 5.78096 23.0783 6.46917V12.8971C23.0783 13.1379 22.8697 13.3329 22.6141 13.3329H20.2017C19.9602 13.3169 19.768 13.1311 19.768 12.8971V6.46917C19.7656 5.11799 19.9907 3.12676 18.2792 3.12676C16.5678 3.12676 16.6123 5.06522 16.6123 6.46917V12.8971C16.6123 13.1379 16.4037 13.3329 16.1458 13.3329H16.1411Z" fill="white"/>
<path id="Vector_5" fill-rule="evenodd" clip-rule="evenodd" d="M60.7823 2.59225C59.0029 2.59225 58.8903 4.96429 58.8903 6.44394C58.8903 7.92359 58.8669 11.0871 60.7612 11.0871C62.6555 11.0871 62.7212 8.5361 62.7212 6.98074C62.7212 5.9599 62.6766 4.73488 62.3601 3.7668C62.0905 2.92489 61.5489 2.59225 60.7823 2.59225ZM60.7612 0.116989C64.3435 0.116989 66.2824 3.12906 66.2824 6.95551C66.2824 10.782 64.1419 13.5899 60.7612 13.5899C57.3805 13.5899 55.3291 10.5778 55.3291 6.82934C55.3291 3.08088 57.268 0.116989 60.7612 0.116989Z" fill="white"/>
<path id="Vector_6" fill-rule="evenodd" clip-rule="evenodd" d="M70.9268 13.3329H68.5214C68.2799 13.3169 68.0877 13.1311 68.0877 12.8971L68.083 0.768495C68.1041 0.545974 68.3034 0.373921 68.5472 0.373921H70.7862C70.9972 0.383097 71.1707 0.525327 71.2152 0.713438V2.56702H71.2597C71.9373 0.908431 72.8821 0.116989 74.549 0.116989C75.6298 0.116989 76.6895 0.500093 77.367 1.54617C77.9977 2.51426 77.9977 4.14761 77.9977 5.32216V12.9521C77.9719 13.1678 77.7726 13.3329 77.5358 13.3329H75.1164C74.8936 13.3192 74.7131 13.1586 74.6873 12.9521V6.37053C74.6873 5.04458 74.8444 3.10382 73.1775 3.10382C72.5914 3.10382 72.0498 3.48693 71.7802 4.0742C71.4426 4.81517 71.3981 5.55385 71.3981 6.37053V12.8994C71.3934 13.1402 71.1847 13.3352 70.9268 13.3352V13.3329Z" fill="white"/>
<path id="Vector_7" fill-rule="evenodd" clip-rule="evenodd" d="M41.1941 13.3008C41.0347 13.4408 40.8049 13.4499 40.6244 13.3559C39.8226 12.7044 39.6796 12.4016 39.2411 11.7822C37.9165 13.1035 36.9787 13.5004 35.2603 13.5004C33.2276 13.5004 31.6475 12.2731 31.6475 9.81847C31.6475 7.90066 32.7095 6.59765 34.2217 5.95761C35.5322 5.39557 37.3609 5.29234 38.7605 5.13864V4.83124C38.7605 4.2692 38.8051 3.60393 38.4675 3.11759C38.1744 2.68173 37.6094 2.50279 37.1124 2.50279C36.191 2.50279 35.3728 2.96389 35.1712 3.92051C35.129 4.13385 34.9696 4.3449 34.7515 4.35637L32.4118 4.10862C32.2148 4.06503 31.9944 3.90904 32.0507 3.6154C32.5806 0.876322 35.0821 0.0229404 37.3539 0H37.532C38.6949 0.0137642 40.1813 0.325753 41.0839 1.17684C42.2585 2.25045 42.1459 3.68193 42.1459 5.24187V8.9215C42.1459 10.0295 42.6172 10.5136 43.0579 11.11C43.2127 11.3257 43.2478 11.5803 43.0509 11.7386C42.5586 12.1423 41.6817 12.8879 41.2011 13.3077L41.1941 13.3031V13.3008ZM38.7605 7.54279C38.7605 8.4627 38.7816 9.2312 38.3081 10.0479C37.9236 10.7131 37.314 11.1215 36.6365 11.1215C35.7104 11.1215 35.1688 10.431 35.1688 9.40784C35.1688 7.39597 37.0139 7.03122 38.7605 7.03122V7.54279Z" fill="white"/>
<path id="Vector_8" fill-rule="evenodd" clip-rule="evenodd" d="M9.54662 13.3008C9.3872 13.4408 9.15744 13.4499 8.97692 13.3559C8.17511 12.7044 8.0321 12.4016 7.59369 11.7822C6.26907 13.1035 5.32894 13.5004 3.6128 13.5004C1.58016 13.5004 0 12.2731 0 9.81847C0 7.90066 1.06204 6.59765 2.57421 5.95761C3.88476 5.39557 5.71344 5.29234 7.11307 5.13864V4.83124C7.11307 4.2692 7.15762 3.60393 6.82002 3.11759C6.52696 2.68173 5.96195 2.50279 5.46492 2.50279C4.54355 2.50279 3.72534 2.96389 3.52371 3.92051C3.48151 4.13385 3.32209 4.3449 3.10406 4.35637L0.764292 4.10862C0.567358 4.06503 0.346979 3.90904 0.403246 3.6154C0.935437 0.876322 3.43463 0.0229404 5.70875 0H5.88693C7.04977 0.0137642 8.53616 0.325753 9.43877 1.17684C10.6133 2.25045 10.5008 3.68193 10.5008 5.24187V8.9215C10.5008 10.0295 10.9697 10.5136 11.4128 11.11C11.5675 11.3257 11.6027 11.5803 11.4058 11.7386C10.9134 12.1423 10.0366 12.8879 9.55365 13.3077L9.54896 13.3031L9.54662 13.3008ZM7.11307 7.54279C7.11307 8.4627 7.13652 9.2312 6.66059 10.0479C6.2761 10.7131 5.66655 11.1215 4.989 11.1215C4.06294 11.1215 3.52137 10.431 3.52137 9.40784C3.52137 7.39597 5.36646 7.03122 7.11073 7.03122V7.54279H7.11307Z" fill="white"/>
</g>
<defs>
<clipPath id="clip0_112_2398">
<rect width="78" height="23" fill="white"/>
</clipPath>
</defs>
</svg>
