<svg width="157" height="47" viewBox="0 0 157 47" fill="none" xmlns="http://www.w3.org/2000/svg">
<g id="Group">
<path id="Vector" d="M150.828 0.0908203H6.17184C2.76323 0.0908203 0 2.84078 0 6.23304V40.0052C0 43.3974 2.76323 46.1474 6.17184 46.1474H150.828C154.237 46.1474 157 43.3974 157 40.0052V6.23304C157 2.84078 154.237 0.0908203 150.828 0.0908203Z" fill="black"/>
<g id="Group_2">
<path id="Vector_2" d="M29.3974 12.9146C27.7497 14.8889 24.8813 15.2234 24.8813 15.2234C24.8813 15.2234 24.6846 12.3561 26.3317 10.3811C27.9794 8.4068 30.8477 8.07227 30.8477 8.07227C30.8477 8.07227 31.0451 10.9396 29.3974 12.9146Z" fill="white"/>
<path id="Vector_3" d="M33.1479 24.5674C33.1479 22.0836 34.4474 19.9712 36.2608 19.1855C35.6067 18.1443 34.7748 17.3137 33.7866 16.7606C29.996 14.6388 28.3146 17.179 25.3897 17.179C22.4648 17.179 20.7834 14.6388 16.9928 16.7606C14.3758 18.2254 12.8486 21.6297 12.8486 25.7581C12.8486 30.6627 15.684 36.0112 19.5095 37.9192C21.1781 38.7498 23.3654 37.2286 25.3897 37.0698C27.414 37.2286 29.6013 38.7498 31.2699 37.9192C33.9374 36.5884 36.1227 33.5843 37.2012 30.225C34.9135 29.8529 33.1479 27.4622 33.1479 24.5668V24.5674Z" fill="white"/>
</g>
<g id="Group_3">
<g id="Group_4">
<path id="Vector_4" d="M55.2148 8.72266H57.5544C58.771 8.72266 59.6682 9.00355 60.2469 9.56535C60.8249 10.1271 61.1139 11.0174 61.1139 12.2349C61.1139 13.4523 60.8451 14.3373 60.3069 14.9493C59.7686 15.5614 58.9084 15.8678 57.7255 15.8678H55.2148V8.72266ZM56.1626 9.53585V15.0553H57.6049C58.5056 15.0553 59.1597 14.836 59.5665 14.3976C59.9734 13.9598 60.1768 13.2754 60.1768 12.3455C60.1768 11.3687 59.9788 10.6561 59.582 10.2083C59.1852 9.75977 58.513 9.53585 57.5652 9.53585H56.1633H56.1626Z" fill="white"/>
<path id="Vector_5" d="M62.8283 11.2809C63.2851 10.7861 63.9075 10.5381 64.6936 10.5381C65.4798 10.5381 66.0921 10.7754 66.5286 11.2507C66.9658 11.726 67.1841 12.3917 67.1841 13.2478C67.1841 14.104 66.9658 14.8065 66.5286 15.2953C66.0914 15.784 65.4764 16.028 64.6835 16.028C63.8907 16.028 63.2682 15.7873 62.8182 15.3053C62.3676 14.8233 62.1426 14.1549 62.1426 13.2981C62.1426 12.4414 62.3709 11.7763 62.8283 11.2809ZM65.8685 11.7978C65.5761 11.4331 65.178 11.2507 64.6734 11.2507C64.1689 11.2507 63.7694 11.4351 63.4737 11.8025C63.178 12.1705 63.0298 12.6619 63.0298 13.2773C63.0298 13.8928 63.1759 14.4097 63.4683 14.7676C63.7606 15.1256 64.1689 15.3046 64.6936 15.3046C65.2184 15.3046 65.5929 15.1236 65.8786 14.763C66.1642 14.4016 66.307 13.9035 66.307 13.268C66.307 12.6324 66.1608 12.1625 65.8685 11.7978Z" fill="white"/>
<path id="Vector_6" d="M67.9811 10.6895H68.9289L70.1186 14.9545L71.1775 10.6895H72.1152L73.2146 14.9545L74.3941 10.6895H75.2813L73.6174 15.8676H72.7101L71.641 11.7728L70.5821 15.8676H69.6545L67.9805 10.6895H67.9811Z" fill="white"/>
<path id="Vector_7" d="M77.1572 10.6889V11.4921C77.5877 10.8632 78.1791 10.5488 78.9323 10.5488C79.5439 10.5488 79.9858 10.7077 80.258 11.0255C80.5301 11.3433 80.6662 11.8099 80.6662 12.4253V15.8671H79.8093V12.8161C79.8093 12.562 79.8006 12.3629 79.7844 12.2188C79.7676 12.0753 79.7251 11.9211 79.6584 11.7569C79.5911 11.5933 79.4772 11.4747 79.3156 11.4009C79.1546 11.3272 78.9457 11.2903 78.6904 11.2903C77.7022 11.2903 77.2084 11.9124 77.2084 13.1567V15.8665H76.3516V10.6883H77.1586L77.1572 10.6889Z" fill="white"/>
<path id="Vector_8" d="M83.117 8.72266V15.8678H82.25V8.72266H83.117Z" fill="white"/>
<path id="Vector_9" d="M85.1135 11.2809C85.5709 10.7861 86.1927 10.5381 86.9788 10.5381C87.7649 10.5381 88.3773 10.7754 88.8138 11.2507C89.251 11.726 89.4692 12.3917 89.4692 13.2478C89.4692 14.104 89.251 14.8065 88.8138 15.2953C88.3766 15.784 87.7616 16.028 86.9687 16.028C86.1758 16.028 85.5534 15.7873 85.1034 15.3053C84.6527 14.8233 84.4277 14.1549 84.4277 13.2981C84.4277 12.4414 84.6561 11.7763 85.1135 11.2809ZM88.1536 11.7978C87.8613 11.4331 87.4631 11.2507 86.9586 11.2507C86.454 11.2507 86.0546 11.4351 85.7588 11.8025C85.4631 12.1705 85.3149 12.6619 85.3149 13.2773C85.3149 13.8928 85.4611 14.4097 85.7535 14.7676C86.0458 15.1256 86.454 15.3046 86.9788 15.3046C87.5036 15.3046 87.8781 15.1236 88.1637 14.763C88.4493 14.4016 88.5921 13.9035 88.5921 13.268C88.5921 12.6324 88.446 12.1625 88.1536 11.7978Z" fill="white"/>
<path id="Vector_10" d="M95.3476 15.1853V15.8477C95.1725 15.9147 94.9778 15.9482 94.7629 15.9482C94.2718 15.9482 94.0199 15.6942 94.0064 15.1853C93.5153 15.7337 92.8868 16.0079 92.1209 16.0079C91.6096 16.0079 91.2048 15.8772 90.9057 15.6164C90.6066 15.3556 90.457 14.9976 90.457 14.5424C90.457 13.6193 91.0721 13.0809 92.3021 12.9267C93.0283 12.8396 93.448 12.7759 93.5625 12.7363C93.8043 12.6559 93.9357 12.489 93.9559 12.2349C93.9626 12.1947 93.966 12.1511 93.966 12.1042C93.966 11.5357 93.5726 11.2514 92.7865 11.2514C92.383 11.2514 92.0771 11.3332 91.869 11.4974C91.6608 11.6617 91.5362 11.9305 91.4958 12.3053H90.6591C90.6726 11.7502 90.8706 11.3184 91.2539 11.0107C91.6372 10.703 92.1647 10.5488 92.837 10.5488C93.5699 10.5488 94.1142 10.7164 94.4706 11.0503C94.5851 11.1576 94.6686 11.2977 94.7225 11.472C94.7764 11.6463 94.8067 11.7877 94.8134 11.8983C94.8202 12.009 94.8235 12.1746 94.8235 12.3951C94.8235 12.6559 94.8168 13.0427 94.8033 13.5542C94.7899 14.0658 94.7831 14.4492 94.7831 14.7033C94.7831 14.8903 94.808 15.0231 94.8586 15.0995C94.9091 15.1766 95.0014 15.2148 95.1361 15.2148C95.19 15.2148 95.2607 15.2048 95.3476 15.1847V15.1853ZM93.9667 13.1788C93.906 13.2257 93.842 13.266 93.7754 13.2995C93.708 13.333 93.6224 13.3598 93.518 13.3799C93.4136 13.4 93.3429 13.4148 93.3065 13.4248C93.2695 13.4349 93.1805 13.4483 93.0391 13.4651C92.8976 13.4818 92.8242 13.4899 92.8174 13.4899C92.6093 13.5167 92.4726 13.5348 92.4092 13.5449C92.3452 13.5549 92.224 13.5837 92.0461 13.63C91.8676 13.6769 91.7417 13.7306 91.6682 13.7902C91.5941 13.8506 91.522 13.939 91.4513 14.0564C91.3806 14.1737 91.3456 14.3125 91.3456 14.4727C91.3456 14.7402 91.4378 14.9514 91.6231 15.1049C91.8077 15.2591 92.0616 15.3355 92.3843 15.3355C92.7945 15.3355 93.161 15.2148 93.4837 14.9741C93.8063 14.7335 93.9673 14.4492 93.9673 14.1214V13.1781L93.9667 13.1788Z" fill="white"/>
<path id="Vector_11" d="M101.096 8.72235V15.8675H100.289V15.1046C99.9593 15.7066 99.3881 16.0076 98.5743 16.0076C97.8347 16.0076 97.2486 15.7616 96.8148 15.2702C96.381 14.7781 96.1641 14.111 96.1641 13.2683C96.1641 12.4853 96.3675 11.835 96.7744 11.3161C97.1812 10.7979 97.7673 10.5385 98.5339 10.5385C99.3005 10.5385 99.8482 10.8194 100.238 11.3812V8.72168H101.095L101.096 8.72235ZM98.6451 11.2712C98.154 11.2712 97.766 11.4489 97.4803 11.8028C97.1947 12.1575 97.0519 12.6395 97.0519 13.2482C97.0519 13.857 97.1981 14.3772 97.4904 14.7486C97.7828 15.12 98.1742 15.3057 98.6653 15.3057C99.1563 15.3057 99.5524 15.1267 99.8347 14.7687C100.117 14.4107 100.258 13.9139 100.258 13.2784C100.258 12.7099 100.126 12.2332 99.8603 11.8484C99.5949 11.4636 99.19 11.2712 98.6451 11.2712Z" fill="white"/>
<path id="Vector_12" d="M106.108 11.2809C106.565 10.7861 107.187 10.5381 107.973 10.5381C108.759 10.5381 109.371 10.7754 109.808 11.2507C110.245 11.726 110.463 12.3917 110.463 13.2478C110.463 14.104 110.245 14.8065 109.808 15.2953C109.371 15.784 108.756 16.028 107.963 16.028C107.17 16.028 106.548 15.7873 106.098 15.3053C105.647 14.8233 105.422 14.1549 105.422 13.2981C105.422 12.4414 105.65 11.7763 106.108 11.2809ZM109.148 11.7978C108.856 11.4331 108.458 11.2507 107.953 11.2507C107.449 11.2507 107.049 11.4351 106.754 11.8025C106.458 12.1705 106.31 12.6619 106.31 13.2773C106.31 13.8928 106.456 14.4097 106.748 14.7676C107.041 15.1256 107.449 15.3046 107.974 15.3046C108.498 15.3046 108.873 15.1236 109.159 14.763C109.444 14.4016 109.587 13.9035 109.587 13.268C109.587 12.6324 109.441 12.1625 109.148 11.7978Z" fill="white"/>
<path id="Vector_13" d="M112.541 10.6889V11.4921C112.971 10.8632 113.563 10.5488 114.316 10.5488C114.928 10.5488 115.37 10.7077 115.642 11.0255C115.914 11.3433 116.05 11.8099 116.05 12.4253V15.8671H115.193V12.8161C115.193 12.562 115.184 12.3629 115.168 12.2188C115.151 12.0753 115.109 11.9211 115.042 11.7569C114.975 11.5933 114.861 11.4747 114.699 11.4009C114.538 11.3272 114.33 11.2903 114.074 11.2903C113.086 11.2903 112.592 11.9124 112.592 13.1567V15.8665H111.735V10.6883H112.542L112.541 10.6889Z" fill="white"/>
<path id="Vector_14" d="M122.878 10.6888V11.3914H121.839V14.4123C121.839 14.5799 121.84 14.6898 121.844 14.7434C121.847 14.7971 121.865 14.8688 121.899 14.9593C121.933 15.0498 121.99 15.1081 122.07 15.1349C122.151 15.1618 122.265 15.1752 122.413 15.1752C122.54 15.1752 122.695 15.1651 122.877 15.145V15.8778C122.635 15.9046 122.416 15.918 122.222 15.918C121.98 15.918 121.778 15.8912 121.617 15.8375C121.455 15.7839 121.333 15.7236 121.249 15.6572C121.165 15.5902 121.103 15.4715 121.062 15.3012C121.022 15.1309 120.998 14.9868 120.992 14.8695C120.985 14.7528 120.982 14.5571 120.982 14.2822V11.3921H120.104V10.6895H120.982V9.1543H121.838V10.6895H122.877L122.878 10.6888Z" fill="white"/>
<path id="Vector_15" d="M124.934 8.72266V11.4224C125.318 10.8472 125.885 10.5596 126.639 10.5596C127.808 10.5596 128.393 11.1482 128.393 12.3261V15.8685H127.537V12.5265C127.537 12.1316 127.454 11.8293 127.289 11.6181C127.124 11.4076 126.827 11.3024 126.397 11.3024C125.873 11.3024 125.497 11.47 125.272 11.8038C125.047 12.1384 124.935 12.6163 124.935 13.2392V15.8685H124.078V8.72333H124.935L124.934 8.72266Z" fill="white"/>
<path id="Vector_16" d="M134.383 14.2313C134.121 15.4354 133.364 16.0374 132.114 16.0374C131.347 16.0374 130.748 15.8001 130.314 15.3248C129.88 14.8501 129.663 14.1904 129.663 13.3477C129.663 12.505 129.887 11.834 130.333 11.3158C130.781 10.7975 131.363 10.5381 132.083 10.5381C132.883 10.5381 133.476 10.8076 133.863 11.3459C134.249 11.8843 134.443 12.5654 134.443 13.388V13.5086H130.53L130.52 13.569C130.52 14.1174 130.664 14.5491 130.954 14.8635C131.243 15.1779 131.64 15.3355 132.143 15.3355C132.52 15.3355 132.817 15.2483 133.036 15.0747C133.254 14.9011 133.424 14.6195 133.545 14.232H134.382L134.383 14.2313ZM133.556 12.8168C133.516 12.322 133.365 11.9352 133.102 11.6577C132.84 11.3801 132.494 11.2413 132.063 11.2413C131.633 11.2413 131.3 11.3821 131.025 11.663C130.749 11.9439 130.584 12.3287 130.53 12.8175H133.555L133.556 12.8168Z" fill="white"/>
</g>
<g id="Group_5">
<path id="Vector_17" d="M62.0175 21.7773L67.1399 34.9936H64.644L63.3776 31.4901H58.1253L56.8218 34.9936H54.4189L59.5413 21.7773H62.0182H62.0175ZM62.7626 29.7484L60.7882 24.1874L58.7208 29.7484H62.7626Z" fill="white"/>
<path id="Vector_18" d="M70.6039 25.4296V26.7087C71.2493 25.6709 72.2927 25.1514 73.733 25.1514C75.0614 25.1514 76.123 25.6146 76.9179 26.5418C77.7121 27.4683 78.1103 28.7045 78.1103 30.2491C78.1103 31.7937 77.7222 32.9649 76.9462 33.8726C76.1702 34.781 75.1362 35.2349 73.8448 35.2349C72.4787 35.2349 71.4359 34.7341 70.7158 33.7332V38.5339H68.6113V25.4289H70.6046L70.6039 25.4296ZM73.3045 26.8569C72.4726 26.8569 71.8205 27.1532 71.349 27.7465C70.8768 28.3398 70.641 29.1617 70.641 30.2116C70.641 31.2614 70.8801 32.0652 71.3584 32.6585C71.836 33.2518 72.4975 33.5481 73.3423 33.5481C74.187 33.5481 74.7886 33.2518 75.2608 32.6585C75.7323 32.0652 75.9688 31.2621 75.9688 30.2491C75.9688 29.2361 75.7296 28.3861 75.252 27.7746C74.7737 27.1632 74.125 26.8569 73.3059 26.8569H73.3045Z" fill="white"/>
<path id="Vector_19" d="M82.4496 25.4296V26.7087C83.095 25.6709 84.1384 25.1514 85.5787 25.1514C86.9071 25.1514 87.9687 25.6146 88.7636 26.5418C89.5578 27.4683 89.956 28.7045 89.956 30.2491C89.956 31.7937 89.5679 32.9649 88.7919 33.8726C88.0159 34.781 86.9819 35.2349 85.6905 35.2349C84.3244 35.2349 83.2816 34.7341 82.5615 33.7332V38.5339H80.457V25.4289H82.4496V25.4296ZM85.1502 26.8569C84.3183 26.8569 83.6662 27.1532 83.1947 27.7465C82.7225 28.3398 82.4867 29.1617 82.4867 30.2116C82.4867 31.2614 82.7258 32.0652 83.2041 32.6585C83.6817 33.2518 84.3432 33.5481 85.188 33.5481C86.0327 33.5481 86.6343 33.2518 87.1065 32.6585C87.578 32.0652 87.8145 31.2621 87.8145 30.2491C87.8145 29.2361 87.5753 28.3861 87.0977 27.7746C86.6194 27.1632 85.9707 26.8569 85.1516 26.8569H85.1502Z" fill="white"/>
<path id="Vector_20" d="M107.725 25.6886H105.508C105.372 24.144 104.41 23.3717 102.621 23.3717C101.826 23.3717 101.206 23.5359 100.759 23.8631C100.311 24.1909 100.088 24.6387 100.088 25.2072C100.088 25.7389 100.253 26.1036 100.582 26.3007C100.911 26.4984 101.64 26.7398 102.771 27.0234C103.068 27.1098 103.298 27.1715 103.46 27.2091C104.937 27.5798 105.943 27.9137 106.477 28.21C107.657 28.8402 108.247 29.8223 108.247 31.1571C108.247 31.7383 108.147 32.2632 107.949 32.7325C107.75 33.2025 107.483 33.5946 107.148 33.9097C106.813 34.2248 106.415 34.4876 105.956 34.6975C105.496 34.908 105.018 35.0588 104.521 35.1513C104.025 35.2438 103.509 35.2901 102.976 35.2901C101.312 35.2901 99.9644 34.8946 98.9337 34.1035C97.903 33.3131 97.3877 32.1513 97.3877 30.6187H99.6787C99.6787 31.5828 99.9953 32.2961 100.629 32.7593C101.262 33.2226 102.088 33.4545 103.106 33.4545C103.999 33.4545 104.698 33.2722 105.201 32.9075C105.704 32.5435 105.956 32.0333 105.956 31.3783C105.956 30.9586 105.822 30.6154 105.556 30.3492C105.288 30.0837 105 29.8954 104.689 29.7841C104.379 29.6728 103.838 29.5186 103.068 29.3208C102.982 29.296 102.913 29.2779 102.864 29.2652C101.212 28.8455 100.126 28.4989 99.604 28.2274C98.5234 27.6716 97.9461 26.8129 97.872 25.6511V25.3916C97.872 24.2177 98.316 23.2819 99.2038 22.5833C100.092 21.8854 101.281 21.5361 102.771 21.5361C104.261 21.5361 105.384 21.876 106.291 22.5558C107.197 23.2356 107.675 24.2794 107.725 25.6886H107.725Z" fill="white"/>
<path id="Vector_21" d="M115.137 25.4289V26.9675H113.2V32.0096C113.2 32.3059 113.206 32.5131 113.219 32.6304C113.231 32.7477 113.268 32.8778 113.33 33.0199C113.392 33.162 113.501 33.2579 113.657 33.3075C113.811 33.3571 114.026 33.3819 114.299 33.3819C114.647 33.3819 114.926 33.3699 115.137 33.345V35.0137C114.715 35.0626 114.237 35.0881 113.703 35.0881C113.33 35.0881 113.004 35.0599 112.725 35.005C112.445 34.9493 112.213 34.8843 112.026 34.8105C111.84 34.7361 111.685 34.6101 111.561 34.4304C111.437 34.2514 111.341 34.1033 111.272 33.9853C111.203 33.868 111.154 33.6608 111.123 33.3645C111.092 33.0682 111.077 32.8429 111.077 32.6881V26.9695H109.475V25.431H111.077V22.5576H113.2V25.431H115.137V25.4289Z" fill="white"/>
<path id="Vector_22" d="M121.562 25.1514C123.028 25.1514 124.195 25.6086 125.064 26.523C125.933 27.4374 126.367 28.667 126.367 30.2116C126.367 31.7562 125.936 33.0044 125.073 33.9189C124.21 34.8333 123.039 35.2905 121.562 35.2905C120.084 35.2905 118.867 34.8333 117.985 33.9189C117.104 33.0044 116.663 31.7689 116.663 30.2116C116.663 28.6542 117.107 27.4374 117.995 26.523C118.883 25.6086 120.072 25.1514 121.562 25.1514H121.562ZM123.509 27.719C123.031 27.1197 122.37 26.82 121.525 26.82C120.681 26.82 120.016 27.123 119.533 27.7284C119.048 28.3338 118.807 29.1624 118.807 30.2122C118.807 31.2621 119.048 32.1276 119.533 32.7329C120.017 33.3383 120.687 33.6413 121.544 33.6413C122.401 33.6413 123.031 33.3356 123.509 32.7236C123.987 32.1121 124.226 31.2681 124.226 30.1935C124.226 29.1188 123.987 28.3183 123.509 27.719Z" fill="white"/>
<path id="Vector_23" d="M134.06 25.2446V27.2652C133.688 27.2283 133.439 27.2095 133.315 27.2095C131.465 27.2095 130.54 28.4022 130.54 30.7868V34.9942H128.436V25.4296H130.428V27.3389C131.111 25.9183 132.185 25.207 133.65 25.207L134.06 25.2439L134.06 25.2446Z" fill="white"/>
<path id="Vector_24" d="M144.249 32.0096C144.013 33.0474 143.5 33.8572 142.712 34.4378C141.923 35.0183 140.983 35.3093 139.89 35.3093C138.437 35.3093 137.285 34.8427 136.435 33.9095C135.584 32.9763 135.159 31.781 135.159 30.3228C135.159 28.8647 135.597 27.5916 136.472 26.6155C137.348 25.6394 138.462 25.1514 139.815 25.1514C141.169 25.1514 142.33 25.6307 143.149 26.588C143.969 27.546 144.379 28.8527 144.379 30.5085V30.7311H137.282C137.307 31.6952 137.549 32.4393 138.009 32.9649C138.468 33.4905 139.107 33.7526 139.927 33.7526C140.511 33.7526 140.985 33.6138 141.352 33.3356C141.718 33.0574 142.007 32.6156 142.218 32.0102H144.249V32.0096ZM142.255 29.3219C142.193 28.5188 141.941 27.8853 141.501 27.422C141.06 26.9588 140.492 26.7268 139.796 26.7268C139.101 26.7268 138.539 26.9494 138.111 27.3939C137.683 27.839 137.419 28.4813 137.32 29.3219H142.255Z" fill="white"/>
</g>
</g>
</g>
</svg>
