<svg width="28" height="25" viewBox="0 0 28 25" fill="none" xmlns="http://www.w3.org/2000/svg">
<g id="Group 145863">
<path id="Vector" d="M26.5336 6.0902L26.5452 6.1051C26.6115 6.19907 26.634 6.31916 26.6048 6.43265L26.6046 6.43317L24.6584 14.0057C24.6584 14.0057 24.6584 14.0058 24.6584 14.0058C24.192 15.8193 22.5607 17.0844 20.6921 17.0844H12.1209C10.204 17.0844 8.56639 15.7835 8.13197 13.9131L8.13196 13.9131L5.54853 2.7929L5.36878 2.0192H4.57447H1.39665C1.17826 2.0192 1 1.84211 1 1.62124C1 1.40024 1.17824 1.22364 1.396 1.22379H1.39665H5.68374C5.86818 1.22379 6.02822 1.35073 6.07004 1.53095L6.07009 1.53115L6.91362 5.16231L7.09335 5.93603H7.88768H26.2203C26.3421 5.93603 26.4578 5.99238 26.5336 6.0902Z" stroke="#002D58" stroke-width="2"/>
<path id="Vector_2" d="M13.4139 21.9874C13.4139 22.9386 12.6438 23.7084 11.6952 23.7084C10.7467 23.7084 9.97656 22.9386 9.97656 21.9874C9.97656 21.0363 10.7467 20.2664 11.6952 20.2664C12.6438 20.2664 13.4139 21.0363 13.4139 21.9874Z" stroke="#002D58" stroke-width="1.5"/>
<path id="Vector_3" d="M19.1836 21.9874C19.1836 21.0363 19.9537 20.2664 20.9023 20.2664C21.8508 20.2664 22.6209 21.0363 22.6209 21.9874C22.6209 22.9386 21.8508 23.7084 20.9023 23.7084C19.9537 23.7084 19.1836 22.9386 19.1836 21.9874Z" stroke="#002D58" stroke-width="1.5"/>
</g>
</svg>
