<svg className="fill-current" width="22" height="25" viewBox="0 0 22 25" fill="none" xmlns="http://www.w3.org/2000/svg">
<path d="M8.3625 23.31L1.2925 16.24C0.9025 15.85 0.9025 15.22 1.2925 14.83L12.6125 3.51001L19.5625 4.14001C20.0425 4.18001 20.4225 4.56001 20.4725 5.05001L21.1025 12L9.7925 23.31C9.4025 23.7 8.7725 23.7 8.3825 23.31H8.3625Z" stroke="currentColor" stroke-width="1.5" stroke-linecap="round" stroke-linejoin="round"/>
<path d="M12.6122 9.17001L6.24219 15.54" stroke="currentColor" stroke-width="1.5" stroke-linecap="round" stroke-linejoin="round"/>
<path d="M15.4323 12L9.07227 18.36" stroke="currentColor" stroke-width="1.5" stroke-linecap="round" stroke-linejoin="round"/>
<path d="M17.8623 7C16.6223 7 15.6123 5.66 15.6123 4C15.6123 2.34 16.6223 1 17.8623 1C19.1023 1 20.1123 2.34 20.1123 4" stroke="currentColor" stroke-width="1.5" stroke-linecap="round" stroke-linejoin="round"/>
</svg>
