<svg width="64" height="40" viewBox="0 0 64 40" fill="none" xmlns="http://www.w3.org/2000/svg">
<g id="Group 22">
<g id="Group">
<path id="Vector" d="M5.86816 25.5176V30.3259C5.86816 31.653 6.94753 32.7301 8.27745 32.7301H15.5053" stroke="#2C2C2C" stroke-width="2" stroke-miterlimit="10"/>
<path id="Vector_2" d="M27.0707 32.7302H39.1172C40.4471 32.7302 41.5265 31.6531 41.5265 30.326V3.39929C41.5265 2.07219 40.4471 0.995117 39.1172 0.995117H15.7471" stroke="#2C2C2C" stroke-width="2" stroke-miterlimit="10"/>
<path id="Vector_3" d="M21.2872 38.5C24.4807 38.5 27.0695 35.9167 27.0695 32.73C27.0695 29.5433 24.4807 26.96 21.2872 26.96C18.0937 26.96 15.5049 29.5433 15.5049 32.73C15.5049 35.9167 18.0937 38.5 21.2872 38.5Z" stroke="#2C2C2C" stroke-width="2" stroke-miterlimit="10"/>
<path id="Vector_4" d="M52.127 38.5C55.3205 38.5 57.9093 35.9167 57.9093 32.73C57.9093 29.5433 55.3205 26.96 52.127 26.96C48.9335 26.96 46.3447 29.5433 46.3447 32.73C46.3447 35.9167 48.9335 38.5 52.127 38.5Z" stroke="#2C2C2C" stroke-width="2" stroke-miterlimit="10"/>
<path id="Vector_5" d="M40.0801 32.73H46.3442" stroke="#2C2C2C" stroke-width="2" stroke-miterlimit="10"/>
<path id="Vector_6" d="M57.9095 32.7302H60.3188C61.6488 32.7302 62.7281 31.6531 62.7281 30.326V21.1637C62.7281 20.5627 62.5017 19.9833 62.0945 19.5385L52.8428 9.46743C52.3874 8.96976 51.7418 8.68848 51.0672 8.68848H41.5264" stroke="#2C2C2C" stroke-width="2" stroke-miterlimit="10"/>
<path id="Vector_7" d="M62.7272 20.2283H50.6808C49.3508 20.2283 48.2715 19.1512 48.2715 17.8241V11.5732" stroke="#2C2C2C" stroke-width="2" stroke-miterlimit="10"/>
</g>
<path id="Vector_8" d="M22.8361 13.9775H3.06543" stroke="#2C2C2C" stroke-width="2" stroke-miterlimit="10"/>
<path id="Vector_9" d="M19.7706 20.7095H0" stroke="#2C2C2C" stroke-width="2" stroke-miterlimit="10"/>
<path id="Vector_10" d="M25.4132 7.24609H5.64258" stroke="#2C2C2C" stroke-width="2" stroke-miterlimit="10"/>
</g>
</svg>
