<svg width="202" height="202" viewBox="0 0 202 202" fill="none" xmlns="http://www.w3.org/2000/svg">
<g id="Layer_1" clip-path="url(#clip0_254_11900)">
<path id="Vector" d="M193.101 50.3934V9.11771H183.841V0H110.464V9.2571H101.336V68.8666H92.0762V78.0827H78.3143V87.1922H64.5032V96.3018H55.3094V105.542H36.9301V96.351H27.7364V87.1594H18.5426V68.8912L9.57031 68.8338V123.581H18.6164V133.084H27.7364V142.341H36.9301V151.459H46.1239V160.651H55.3832V197.408H73.6231V188.364H64.5032V178.96H73.6231V169.842H82.8168V160.651H92.0106V169.908H101.344V197.4H119.797V188.496H110.472V151.598H119.444V142.267H128.925V128.698H138.045V96.1788H147.304V105.51H156.35V87.2742H137.971V68.8256H174.804V59.7079H147.23V50.377H193.109L193.101 50.3934ZM128.835 22.8435H119.641V13.652H128.835V22.8435Z" fill="black"/>
<path id="Vector_2" d="M201.999 165.513H128.859V169.727H201.999V165.513Z" fill="black"/>
<path id="Vector_3" d="M193.105 192.899H188.594V197.408H193.105V192.899Z" fill="black"/>
<path id="Vector_4" d="M36.9554 165.316H0V169.908H36.9554V165.316Z" fill="black"/>
<path id="Vector_5" d="M46.1371 183.502H27.7578V188.094H46.1371V183.502Z" fill="black"/>
<path id="Vector_6" d="M18.3793 197.408H0V202H18.3793V197.408Z" fill="black"/>
</g>
<defs>
<clipPath id="clip0_254_11900">
<rect width="202" height="202" fill="white"/>
</clipPath>
</defs>
</svg>
