<svg className="fill-current" width="17" height="12" viewBox="0 0 17 12" fill="none" xmlns="http://www.w3.org/2000/svg">
<g id="Group">
<path id="Vector" d="M15.442 0.805015C14.9959 0.377629 14.3915 0.115219 13.7284 0.115219H2.48315C1.82002 0.115219 1.21558 0.377794 0.769531 0.805015L7.88009 7.57763C8.0064 7.69801 8.20512 7.69801 8.33143 7.57763L15.442 0.805015Z" fill="currentColor"/>
<g id="Group_2">
<path id="Vector_2" d="M15.8237 10.1617C16.0727 9.77561 16.2181 9.3174 16.2181 8.82732V2.58592C16.2181 2.12144 16.086 1.68568 15.8609 1.31317L10.8477 6.08648L15.8235 10.1617H15.8237Z" fill="currentColor"/>
<path id="Vector_3" d="M2.48256 11.3008H13.7278C14.3664 11.3008 14.9514 11.0608 15.3928 10.6604L10.3629 6.54289L8.49369 8.32394C8.27612 8.53119 7.93406 8.53136 7.71632 8.32411L5.8473 6.54487L0.817383 10.6602C1.25881 11.0605 1.8439 11.3009 2.48239 11.3009L2.48256 11.3008Z" fill="currentColor"/>
<path id="Vector_4" d="M5.37627 6.08646L0.359752 1.31316C0.134576 1.68567 0 2.12142 0 2.58591V8.8273C0 9.31738 0.148133 9.77576 0.397116 10.1616L5.37627 6.08646Z" fill="currentColor"/>
</g>
</g>
</svg>
