<svg width="26" height="26" viewBox="0 0 26 26" fill="none" xmlns="http://www.w3.org/2000/svg">
<g id="Group 132463">
<rect id="Rectangle 39172" x="0.35" y="0.644922" width="24.6915" height="24.6915" rx="12.3457" stroke="#2C2C2C" stroke-width="0.7"/>
<path id="Vector" d="M11.39 11.2547H11.5308V12.3314H11.39V11.2547ZM15.2636 12.3314H14.324V11.2547H15.4196L15.2636 12.3314ZM12.2308 18.3451V13.0314H13.624V18.3451H12.2308ZM13.624 12.3314H12.2308V11.2547H13.624V12.3314ZM13.624 10.5547H12.2308V10.2536C12.2308 9.38112 12.394 8.84277 12.6971 8.51657C12.9946 8.19647 13.4986 8.00527 14.3718 8.00527H15.4724V9.1579H14.4232C14.171 9.1579 13.947 9.26164 13.7991 9.47759C13.6716 9.66379 13.624 9.88336 13.624 10.1079V10.5547Z" fill="#2C2C2C" stroke="#2C2C2C" stroke-width="0.7"/>
</g>
</svg>
