<svg width="18" height="16" viewBox="0 0 18 16" fill="none" xmlns="http://www.w3.org/2000/svg">
<g id="Group 133012">
<path id="Vector" d="M13.266 4.2C14.1497 4.2 14.866 3.48366 14.866 2.6C14.866 1.71634 14.1497 1 13.266 1C12.3824 1 11.666 1.71634 11.666 2.6C11.666 3.48366 12.3824 4.2 13.266 4.2Z" stroke="#2C2C2C" stroke-linecap="round" stroke-linejoin="round"/>
<path id="Vector_2" d="M5.26602 9.53334C6.14967 9.53334 6.86602 8.817 6.86602 7.93334C6.86602 7.04969 6.14967 6.33334 5.26602 6.33334C4.38236 6.33334 3.66602 7.04969 3.66602 7.93334C3.66602 8.817 4.38236 9.53334 5.26602 9.53334Z" stroke="#2C2C2C" stroke-linecap="round" stroke-linejoin="round"/>
<path id="Vector_3" d="M11.6664 14.8667C12.5501 14.8667 13.2664 14.1503 13.2664 13.2667C13.2664 12.383 12.5501 11.6667 11.6664 11.6667C10.7828 11.6667 10.0664 12.383 10.0664 13.2667C10.0664 14.1503 10.7828 14.8667 11.6664 14.8667Z" stroke="#2C2C2C" stroke-linecap="round" stroke-linejoin="round"/>
<path id="Vector_4" d="M14.8672 2.60001H17.0005" stroke="#2C2C2C" stroke-linecap="round" stroke-linejoin="round"/>
<path id="Vector_5" d="M6.86719 7.93332H17.0005" stroke="#2C2C2C" stroke-linecap="round" stroke-linejoin="round"/>
<path id="Vector_6" d="M13.2676 13.2667H17.0009" stroke="#2C2C2C" stroke-linecap="round" stroke-linejoin="round"/>
<path id="Vector_7" d="M10.0667 13.2667H1" stroke="#2C2C2C" stroke-linecap="round" stroke-linejoin="round"/>
<path id="Vector_8" d="M3.66667 7.93332H1" stroke="#2C2C2C" stroke-linecap="round" stroke-linejoin="round"/>
<path id="Vector_9" d="M11.6667 2.60001H1" stroke="#2C2C2C" stroke-linecap="round" stroke-linejoin="round"/>
</g>
</svg>
