<svg width="89" height="23" viewBox="0 0 89 23" fill="none" xmlns="http://www.w3.org/2000/svg">
<g id="_&#195;&#131;&#226;&#128;&#152;&#195;&#131;&#194;&#171;&#195;&#131;&#194;&#174;&#195;&#131;&#194;&#169;_1" clip-path="url(#clip0_112_2408)">
<path id="Vector" d="M88.985 3.98479C88.9753 3.95149 88.9656 3.92056 88.9511 3.88725C81.0931 3.88963 73.2376 3.88725 65.3845 3.88963C65.3651 3.91342 65.3506 3.93483 65.3481 3.96338C65.3481 9.937 65.3481 15.9059 65.3457 21.8795C65.3942 22.1983 65.5738 22.4885 65.8141 22.705C65.8238 22.7074 65.8481 22.7121 65.8578 22.7145C65.9815 22.8406 66.1563 22.9025 66.3213 22.9619C66.445 22.9548 66.564 23.0071 66.6853 22.9952H76.4361C76.5283 22.9929 76.6254 23.0071 76.7152 22.9714C76.7176 22.9596 76.7225 22.9358 76.7249 22.9215C76.7273 22.9048 76.7322 22.8692 76.7346 22.8501C76.9433 21.7058 77.1447 20.5568 77.368 19.4125C77.3753 19.3625 77.3801 19.315 77.3874 19.2674C76.4847 19.265 75.5795 19.2674 74.6767 19.265C74.4583 19.2579 74.2326 19.265 74.0142 19.2388C73.6405 19.2222 73.2619 19.2364 72.8857 19.2008C72.4222 19.2008 71.9611 19.1579 71.4952 19.1579C71.1312 19.1223 70.7623 19.1341 70.3934 19.1199C70.1556 19.0913 69.9081 19.1032 69.6678 19.0937C69.2722 19.0509 68.8718 19.0818 68.4763 19.039C68.0589 19.0414 67.6414 19.0057 67.2216 18.9962C67.224 18.9938 67.2289 18.9795 67.2289 18.9771C67.3672 18.9795 67.5031 18.97 67.6439 18.9676C67.9521 18.9296 68.2651 18.9557 68.5733 18.9129C68.8961 18.9129 69.214 18.8701 69.5343 18.8701C69.8207 18.832 70.1071 18.8534 70.3934 18.8154C70.7283 18.8154 71.0559 18.7725 71.3908 18.7702C71.6651 18.7345 71.9441 18.7535 72.2208 18.7178C72.5436 18.7202 72.8615 18.6726 73.1818 18.675C73.4973 18.6393 73.8176 18.6488 74.1331 18.6155C74.104 18.4942 74.0797 18.3753 74.053 18.2539C74.0287 18.1802 73.9365 18.1945 73.8783 18.1849C73.1575 18.085 72.4416 17.9827 71.7257 17.8852C71.7718 17.8495 71.8349 17.8662 71.8883 17.859C72.4465 17.8162 72.9998 17.7686 73.5555 17.7282C73.6817 17.721 73.8055 17.6996 73.9293 17.6949C73.8734 17.526 73.8395 17.3404 73.7642 17.1834C72.5727 17.005 71.3836 16.8456 70.1944 16.6529C70.5026 16.6053 70.8157 16.5815 71.1239 16.5482L71.1506 16.5387C72.1359 16.4388 73.1236 16.3246 74.1088 16.2294C75.3586 16.2223 76.606 16.227 77.8558 16.2294C77.8946 16.2223 77.965 16.2413 77.9723 16.1866C78.0742 15.6608 78.1737 15.1327 78.2781 14.6069C78.4212 13.8742 78.6469 13.1534 78.994 12.4873C79.5424 11.4144 80.4063 10.5032 81.462 9.89894C82.4473 9.33274 83.5879 9.05916 84.7236 9.0092C85.0925 8.9759 85.4638 8.98541 85.8278 9.03299C86.0656 9.08771 86.3132 9.15432 86.5 9.31371C86.6553 9.43742 86.75 9.61822 86.8179 9.8014C86.9708 10.2344 87.0557 10.6816 87.1285 11.1336C87.131 11.3168 87.1649 11.5214 87.0655 11.6856C86.9732 11.8473 86.7864 11.9258 86.6116 11.9758C85.971 12.1376 85.3012 11.9853 84.6605 12.1376C84.1339 12.247 83.6413 12.5349 83.3064 12.9464C82.9108 13.427 82.7021 14.0265 82.5856 14.6236C82.4958 15.1565 82.3842 15.6894 82.2944 16.227C82.9254 16.2294 83.5587 16.2247 84.1921 16.2294C84.4445 16.2294 84.7018 16.365 84.8061 16.6005C84.9396 16.9003 84.908 17.2381 84.8668 17.5521C84.8134 17.9066 84.7285 18.2587 84.5659 18.5822C84.43 18.8582 84.2043 19.1127 83.8961 19.2103C83.7359 19.2721 83.5636 19.2602 83.3961 19.2602C82.838 19.2602 82.2823 19.2674 81.7241 19.2602C81.6343 19.6599 81.5736 20.0691 81.496 20.4759C81.3504 21.2657 81.2072 22.0603 81.0616 22.8525C81.0592 22.8787 81.0543 22.9334 81.0543 22.9619C81.3164 22.9738 81.5785 22.9619 81.8406 22.9691C83.7844 22.9691 85.7307 22.9667 87.6794 22.9691C87.8881 22.9762 88.1017 22.9262 88.2837 22.8263C88.3929 22.7883 88.4584 22.6931 88.5555 22.6408C88.6477 22.5884 88.6744 22.4814 88.7545 22.4124C88.8394 22.2625 88.9292 22.1079 88.9365 21.9318C88.9462 21.9318 88.9729 21.9295 88.985 21.9247C88.9753 15.9416 88.985 9.95842 88.9778 3.97527L88.985 3.98479Z" fill="url(#paint0_linear_112_2408)"/>
<path id="Vector_2" d="M68.4401 0.0499604C68.7216 -0.0380619 69.0177 0.0214126 69.3064 1.79827e-06C74.7206 0.00475976 80.1372 1.79827e-06 85.5538 1.79827e-06C85.8765 -0.0118931 86.1581 0.166531 86.4565 0.256932C86.6944 0.352091 86.9443 0.42584 87.1822 0.525757C87.2307 0.544789 87.2671 0.58761 87.3059 0.623295C87.3035 1.05151 87.3059 1.48449 87.3059 1.91746C87.3084 2.03165 87.2889 2.14822 87.3302 2.26003C87.4006 2.26955 87.437 2.32189 87.4831 2.36471C87.7015 2.46225 87.8884 2.62164 88.0873 2.75248C88.3858 2.95946 88.7038 3.14264 88.995 3.35675C89.0071 3.44239 88.9974 3.52803 88.9707 3.60654C88.9416 3.69694 88.961 3.79448 88.9513 3.88726C81.0933 3.88964 73.2378 3.88726 65.3847 3.88964C65.3678 3.78258 65.3969 3.67553 65.3508 3.57323C65.3435 3.48759 65.3144 3.37816 65.3969 3.31868C65.7294 3.0903 66.0812 2.88571 66.404 2.64543C66.6054 2.51934 66.802 2.3885 66.9986 2.25766C67.0374 2.19342 67.0253 2.11016 67.0253 2.03879C67.0253 1.56775 67.0253 1.09671 67.0277 0.623295C67.1393 0.480556 67.3359 0.463903 67.4912 0.392534C67.8067 0.275964 68.1246 0.161773 68.4377 0.0452025L68.4401 0.0499604ZM68.4595 0.104677C68.0348 0.264069 67.6077 0.416324 67.183 0.575716C67.1272 0.585231 67.0956 0.63519 67.0665 0.675633C67.0689 0.701802 67.0738 0.747002 67.0738 0.773171C67.0714 1.16332 67.0738 1.55348 67.0714 1.94363C67.0738 2.04117 67.0617 2.13871 67.0981 2.22673C67.0544 2.26955 67.0083 2.31237 66.9549 2.3433C66.4744 2.64781 66.0084 2.98087 65.5279 3.283C65.4454 3.33058 65.3532 3.39719 65.3775 3.50424C65.3605 3.56372 65.3896 3.6113 65.4527 3.59464C66.4938 3.58751 67.5325 3.60178 68.5736 3.58513C70.1218 3.58513 71.6677 3.58751 73.2184 3.58513L73.2427 3.57561C73.3131 3.59226 73.381 3.58513 73.4538 3.58513C76.2592 3.58513 79.067 3.58751 81.8748 3.58513C82.7581 3.58751 83.6415 3.58513 84.5273 3.58513C85.9857 3.58513 87.4491 3.59702 88.91 3.59226C88.9537 3.58275 88.9658 3.5542 88.9489 3.50186C88.9464 3.44953 88.9658 3.37816 88.91 3.34485C88.6771 3.2378 88.4781 3.07127 88.2572 2.9428C88.1771 2.87857 88.0752 2.84289 88.0145 2.75486C87.7864 2.62878 87.5729 2.47176 87.3472 2.3314C87.3035 2.30524 87.2719 2.26241 87.2355 2.22673C87.255 2.15774 87.2622 2.08399 87.2622 2.01262C87.2598 1.59868 87.2622 1.18711 87.2598 0.773171C87.2695 0.708938 87.2671 0.632811 87.2064 0.589989C86.8084 0.449629 86.4129 0.299754 86.0197 0.157015C85.896 0.0975401 85.7601 0.0666133 85.629 0.0475814H68.6755C68.6027 0.0499604 68.5323 0.0856452 68.4595 0.102298V0.104677Z" fill="#F8F3B5"/>
<path id="Vector_3" d="M67.0743 0.775542C67.3655 0.89687 67.6786 0.963481 67.9722 1.08005C68.1324 1.14191 68.1809 1.31081 68.2513 1.44641C68.1809 1.51541 68.0984 1.57012 68.0159 1.62246C67.7101 1.82467 67.3995 2.01975 67.0961 2.22672C67.0597 2.1387 67.0719 2.04116 67.0694 1.94362C67.0719 1.55347 67.0694 1.16332 67.0719 0.773163L67.0743 0.775542Z" fill="#F7B402"/>
<path id="Vector_4" d="M86.3601 1.08005C86.6562 0.965862 86.9644 0.887355 87.258 0.775543C87.2604 1.18949 87.258 1.60105 87.2604 2.01499C87.2604 2.08636 87.2532 2.16011 87.2337 2.2291C86.9741 2.05306 86.712 1.88653 86.4548 1.71524C86.3286 1.62484 86.1902 1.55585 86.0762 1.44642C86.1465 1.31081 86.1999 1.14429 86.3577 1.08243L86.3601 1.08005Z" fill="#F7B402"/>
<path id="Vector_5" d="M72.1339 1.21328C72.4979 1.12764 72.9056 1.44642 72.8765 1.8223C72.8789 2.18866 72.4858 2.48841 72.1242 2.40515C71.9786 2.35757 71.8378 2.28144 71.7505 2.15536C71.634 1.98407 71.6073 1.75331 71.7019 1.56299C71.7675 1.37981 71.947 1.25848 72.1363 1.21566L72.1339 1.21328Z" fill="#BDA727"/>
<path id="Vector_6" d="M81.5981 1.41787C81.7509 1.25134 81.9936 1.15856 82.2193 1.21566C82.3892 1.26562 82.5542 1.37267 82.627 1.53444C82.7726 1.81516 82.661 2.19104 82.3746 2.33854C82.1222 2.47414 81.8043 2.40991 81.6126 2.21245C81.416 1.99358 81.4039 1.63674 81.6005 1.41787H81.5981Z" fill="#BDA727"/>
<path id="Vector_7" d="M68.0152 1.62485C68.0977 1.57251 68.1802 1.5178 68.2506 1.44881L68.2749 1.4726C68.2991 1.6415 68.2821 1.81517 68.287 1.98408C68.2773 2.4908 68.2967 3.00228 68.2749 3.50901C67.309 3.50901 66.3456 3.50187 65.3797 3.50901C65.353 3.40195 65.4452 3.33772 65.5277 3.28776C66.0082 2.98563 66.4742 2.65257 66.9547 2.34806C67.0081 2.31476 67.0542 2.27431 67.0979 2.23149C67.3988 2.02452 67.7118 1.82944 68.0176 1.62723L68.0152 1.62485Z" fill="#F7E62D"/>
<path id="Vector_8" d="M86.0466 1.55824C86.0466 1.51542 86.0563 1.47973 86.0806 1.44405C86.1922 1.55348 86.3329 1.62247 86.4591 1.71287C86.7188 1.88416 86.9809 2.05069 87.2381 2.22673C87.2745 2.26242 87.3085 2.30524 87.3498 2.33141C87.5755 2.47177 87.7866 2.6264 88.0171 2.75487C88.0778 2.84289 88.1797 2.87857 88.2598 2.9428C88.4831 3.07365 88.6821 3.2378 88.9126 3.34485C88.9684 3.37816 88.949 3.44953 88.9515 3.50187C87.9856 3.50424 87.0246 3.49949 86.0587 3.50424C86.0417 3.3734 86.0514 3.24494 86.049 3.11647C86.049 2.59547 86.0417 2.07686 86.0466 1.55586V1.55824Z" fill="#F7E62D"/>
<path id="Vector_9" d="M88.9512 3.50424C87.9853 3.50662 87.0243 3.50186 86.0584 3.50662C86.0414 3.37577 86.0511 3.24731 86.0487 3.11884C86.0487 2.59785 86.0414 2.07923 86.0463 1.55823C86.0463 1.51541 86.056 1.47973 86.0803 1.44404C86.1506 1.30844 86.204 1.14191 86.3618 1.08006C86.6578 0.965865 86.966 0.887359 87.2597 0.775547C87.2694 0.711314 87.267 0.635187 87.2063 0.592365C86.8083 0.452005 86.4127 0.302129 86.0196 0.15939C85.8958 0.0999159 85.7599 0.0689891 85.6289 0.0499573H68.6753C68.6025 0.0523363 68.5322 0.088021 68.4594 0.104674C68.0347 0.264066 67.6076 0.416321 67.1829 0.575712C67.1271 0.585228 67.0955 0.635187 67.0664 0.67563C67.0688 0.701798 67.0737 0.746999 67.0737 0.773168C67.3649 0.894496 67.6779 0.961107 67.9716 1.07768C68.1317 1.13953 68.1803 1.30844 68.2507 1.44404L68.2749 1.46783C68.2992 1.63674 68.2822 1.8104 68.2871 1.97931C68.2774 2.48603 68.2968 2.99752 68.2749 3.50424C67.3091 3.50424 66.3456 3.4971 65.3798 3.50424C65.3628 3.56371 65.3919 3.61129 65.455 3.59464C66.4961 3.5875 67.5348 3.60178 68.5758 3.58512C70.1241 3.58512 71.67 3.5875 73.2183 3.58512L73.2426 3.57561C73.3129 3.59226 73.3809 3.58512 73.4537 3.58512C76.2591 3.58512 79.0669 3.5875 81.8746 3.58512C82.758 3.5875 83.6438 3.58512 84.5271 3.58512C85.9856 3.58512 87.449 3.59702 88.9099 3.59226C88.9536 3.58275 88.9657 3.5542 88.9487 3.50186L88.9512 3.50424ZM71.6991 1.56299C71.7647 1.37981 71.9442 1.25848 72.1335 1.21566C72.4975 1.13002 72.9052 1.4488 72.8761 1.82468C72.8785 2.19104 72.4854 2.49079 72.1238 2.40753C71.9782 2.35995 71.8375 2.28382 71.7501 2.15774C71.6336 1.98645 71.6069 1.75569 71.7016 1.56537L71.6991 1.56299ZM81.598 1.41787C81.7509 1.25134 81.9936 1.15856 82.2192 1.21566C82.3891 1.26562 82.5542 1.37267 82.627 1.53444C82.7726 1.81516 82.6609 2.19104 82.3746 2.33854C82.1222 2.47414 81.8043 2.40991 81.6126 2.21245C81.416 1.99359 81.4039 1.63674 81.6004 1.41787H81.598Z" fill="url(#paint1_radial_112_2408)"/>
<path id="Vector_10" d="M82.4432 4.93162C82.4893 4.94114 82.2005 4.66042 82.2588 4.64615C82.3122 4.65328 82.5136 4.49865 82.7563 4.62474C82.9989 4.75082 82.9383 5.04106 82.9116 5.15049C82.8776 5.27896 82.7951 5.36222 82.7296 5.42645C82.6932 5.455 82.6107 5.5002 82.5621 5.49782C82.5912 5.33843 82.4966 5.31226 82.4893 5.15049L82.4456 4.93162H82.4432Z" fill="url(#paint2_linear_112_2408)"/>
<path id="Vector_11" d="M71.8406 5.10767C71.8333 5.26944 71.7387 5.29561 71.7678 5.45501C71.7193 5.45738 71.6368 5.41218 71.6004 5.38364C71.5348 5.3194 71.4499 5.23614 71.4184 5.10767C71.3917 4.99824 71.331 4.70801 71.5737 4.58192C71.8163 4.45583 72.0178 4.61047 72.0712 4.60333C72.127 4.61523 71.8406 4.89832 71.8867 4.88881L71.843 5.10767H71.8406Z" fill="url(#paint3_linear_112_2408)"/>
<path id="Vector_12" d="M82.0088 7.01562C82.0598 6.97279 82.0913 6.97279 82.1593 6.97279C81.7613 7.81733 81.2977 8.66425 80.5988 9.32085C80.5236 9.38508 80.4459 9.44693 80.3634 9.50165C80.2833 9.55875 80.2057 9.61346 80.128 9.66818C80.0528 9.72052 79.9751 9.77286 79.9023 9.82757C79.7131 9.92749 79.548 10.0678 79.3393 10.1297C78.9583 10.3081 78.5458 10.4295 78.1332 10.5127C77.9706 10.5389 77.8056 10.577 77.6382 10.5817C77.4319 10.6412 77.2135 10.5984 77.0048 10.6103C76.8883 10.6293 76.7863 10.5651 76.6723 10.577C76.5752 10.5627 76.4757 10.546 76.3787 10.5294C76.2816 10.5103 76.1821 10.4866 76.085 10.4604C74.5634 9.99648 73.0709 8.85695 72.6365 7.31775C72.6171 7.21545 72.6074 7.11077 72.6074 7.00372C72.6535 7.09412 72.7021 7.18452 72.7506 7.27492C73.3694 8.59764 74.5974 9.63725 76.0462 9.95128C76.1651 10.0036 76.2913 9.98458 76.4029 10.0322C76.5048 10.0322 76.6043 10.0298 76.7038 10.0607C77.046 10.0678 77.3882 10.0631 77.7279 10.0631C77.7741 10.0655 77.8177 10.0441 77.8638 10.0345C78.4341 10.0155 78.9923 9.86326 79.5116 9.6325C79.616 9.5873 79.7179 9.53734 79.8198 9.485C79.9096 9.4398 79.9946 9.38984 80.0771 9.3375C80.1596 9.28516 80.2397 9.23045 80.3173 9.17097C80.9313 8.69518 81.4628 8.07664 81.8219 7.36533C81.8899 7.23686 81.953 7.11791 82.0088 7.01324V7.01562Z" fill="#BDA227"/>
<path id="Vector_13" d="M81.467 9.90608C82.4523 9.33989 83.5929 9.0663 84.7286 9.01396C85.0975 8.98066 85.4688 8.99018 85.8328 9.03776C86.0706 9.09247 86.3157 9.15908 86.505 9.31847C86.408 9.32561 86.3157 9.28279 86.2187 9.26852C85.9469 9.21618 85.6654 9.23521 85.3887 9.23045C84.5903 9.23045 83.7822 9.29231 83.0105 9.50641C82.6052 9.62774 82.1999 9.76572 81.8335 9.97507C81.1976 10.32 80.6225 10.7744 80.159 11.3216C79.329 12.2541 78.8412 13.4389 78.6058 14.645C78.4942 15.2921 78.3632 15.9368 78.2612 16.5863C78.0962 16.6029 77.9263 16.5934 77.7613 16.5934C77.0308 16.591 76.3028 16.5863 75.5724 16.5815C75.417 16.5886 75.2642 16.553 75.1088 16.5625C73.7814 16.5696 72.4564 16.5601 71.1289 16.5601L71.1556 16.5506C72.1409 16.4507 73.1286 16.3365 74.1139 16.2413C75.3636 16.2342 76.611 16.2389 77.8608 16.2413C77.8996 16.2342 77.97 16.2532 77.9773 16.1985C78.0792 15.6727 78.1787 15.1446 78.2831 14.6188C78.4263 13.8885 78.6519 13.1653 78.999 12.4992C79.5474 11.4263 80.4114 10.5151 81.467 9.91084V9.90608Z" fill="#0D69B3"/>
<path id="Vector_14" d="M83.0133 9.50642C83.785 9.29231 84.5931 9.23045 85.3915 9.23045C85.6657 9.23759 85.9497 9.21856 86.2215 9.26852C86.3185 9.28041 86.4108 9.32323 86.5078 9.31848C86.6632 9.44218 86.7578 9.62299 86.8257 9.80617C86.9786 10.2391 87.0636 10.6864 87.1364 11.1384C87.1388 11.3216 87.1728 11.5262 87.0733 11.6903C86.9811 11.8521 86.7942 11.9306 86.6195 11.9806C85.9788 12.1423 85.309 11.9901 84.6683 12.1423C84.1417 12.2518 83.6491 12.5396 83.3142 12.9512C82.9186 13.4317 82.7099 14.0312 82.5934 14.6284C82.5036 15.1613 82.392 15.6941 82.3022 16.2318C82.2634 16.3531 82.2391 16.4816 82.2148 16.6101C82.841 16.6196 83.4695 16.6101 84.0956 16.6172C84.3334 16.6101 84.5737 16.6243 84.8115 16.6077C84.945 16.9074 84.9134 17.2452 84.8722 17.5616C84.8188 17.9161 84.7339 18.2682 84.5713 18.5917C84.4354 18.8677 84.2097 19.1223 83.9015 19.2198C83.7413 19.2817 83.569 19.2674 83.4016 19.2674C82.8434 19.2674 82.2877 19.2745 81.7295 19.2674C81.6397 19.667 81.5815 20.0762 81.5014 20.483C81.3558 21.2729 81.2126 22.0674 81.067 22.8596C81.0645 22.8858 81.0597 22.9405 81.0597 22.9691C79.6109 22.9715 78.1645 22.9762 76.7133 22.9715C76.7157 22.9596 76.7206 22.9358 76.723 22.9215C76.7255 22.9048 76.7303 22.8692 76.7327 22.8501C76.7352 22.8763 76.74 22.9239 76.7424 22.9477C76.8322 22.9572 76.9948 23.0024 77.0167 22.8763C77.2424 21.6797 77.4511 20.4759 77.684 19.2793C77.5942 19.2602 77.502 19.2602 77.4098 19.2769C77.3977 19.3221 77.3831 19.3673 77.3661 19.4125C77.3734 19.3625 77.3783 19.315 77.3855 19.265C76.4828 19.2626 75.5776 19.265 74.6748 19.2626C74.4564 19.2555 74.2307 19.2626 74.0123 19.2365C73.6386 19.2198 73.26 19.2341 72.8838 19.1984C72.4203 19.1984 71.9592 19.1556 71.4933 19.1556C71.1293 19.1199 70.7604 19.1318 70.3915 19.1175C70.1537 19.089 69.9062 19.1009 69.6659 19.0913C69.2704 19.0485 68.8699 19.0794 68.4744 19.0366C68.057 19.039 67.6396 19.0033 67.2197 18.9938C67.2222 18.9914 67.227 18.9771 67.227 18.9748C67.3653 18.9771 67.5012 18.9676 67.642 18.9652C67.9502 18.9272 68.2632 18.9534 68.5714 18.9105C68.8942 18.9105 69.2121 18.8677 69.5325 18.8677C69.8188 18.8296 70.1052 18.8511 70.3915 18.813C70.7264 18.813 71.0541 18.7702 71.389 18.7678C71.6632 18.7321 71.9423 18.7511 72.2189 18.7155C72.5417 18.7178 72.8596 18.6703 73.1799 18.6726C73.4954 18.6369 73.8157 18.6465 74.1312 18.6132C74.1021 18.4918 74.0778 18.3729 74.0511 18.2516C74.0269 18.1778 73.9347 18.1921 73.8764 18.1826C73.1557 18.0826 72.4397 17.9803 71.7238 17.8828C71.77 17.8471 71.8331 17.8638 71.8864 17.8566C72.4446 17.8138 72.9979 17.7662 73.5561 17.7258C73.6823 17.7187 73.806 17.6973 73.9298 17.6925C73.874 17.5236 73.84 17.338 73.7648 17.181C72.5732 17.0026 71.3841 16.8432 70.195 16.6505C70.5032 16.6029 70.8162 16.5791 71.1244 16.5458C72.4519 16.5458 73.7769 16.5553 75.1044 16.5482C75.2597 16.5387 75.4126 16.5744 75.5679 16.5672C76.2983 16.5744 77.0264 16.5768 77.7568 16.5791C77.9219 16.5791 78.0917 16.5886 78.2568 16.572C78.3587 15.9225 78.4897 15.2778 78.6014 14.6307C78.8368 13.4246 79.3245 12.2399 80.1545 11.3073C80.618 10.7601 81.1932 10.3058 81.829 9.9608C82.1979 9.75383 82.6007 9.61347 83.006 9.49214L83.0133 9.50642Z" fill="#1076D4"/>
<path id="Vector_15" d="M82.3047 16.2342C82.9356 16.2366 83.569 16.2318 84.2024 16.2366C84.4548 16.2366 84.712 16.3722 84.8164 16.6077C84.5786 16.6243 84.3383 16.6101 84.1005 16.6172C83.4744 16.6101 82.8458 16.6196 82.2197 16.6101C82.244 16.484 82.2658 16.3531 82.3071 16.2318L82.3047 16.2342Z" fill="#0D69B3"/>
<path id="Vector_16" d="M77.4124 19.2793C77.5046 19.2626 77.5993 19.2626 77.6866 19.2816C77.4537 20.4783 77.245 21.682 77.0193 22.8787C76.995 23.0048 76.8324 22.9596 76.7451 22.95C76.7426 22.9262 76.7378 22.8787 76.7354 22.8525C76.9441 21.7082 77.1455 20.5592 77.3687 19.4149C77.3857 19.3697 77.3979 19.3245 77.4124 19.2793Z" fill="#0D69B3"/>
<path id="Vector_17" d="M82.5932 5.02441C82.5665 4.97445 82.5641 4.91735 82.5641 4.86264H82.5374C82.4985 4.72228 82.3748 4.58668 82.2146 4.57954C82.0957 4.57002 81.9452 4.5724 81.8773 4.68421C81.7438 4.86026 81.8069 5.08388 81.802 5.28134C81.802 5.29323 81.8045 5.31702 81.8045 5.32892C81.8045 5.46214 81.7875 5.59298 81.7656 5.72145C81.7462 5.75951 81.7365 5.80234 81.7365 5.84754C81.6807 6.15205 81.5667 6.45656 81.4138 6.73252C81.3846 6.77058 81.3604 6.8134 81.3507 6.8586C81.2512 7.02751 81.1323 7.18452 81.0085 7.33916C80.9891 7.35581 80.9721 7.37484 80.9551 7.39387C80.8677 7.49855 80.7755 7.58657 80.6809 7.67697C80.6566 7.68887 80.642 7.70552 80.6202 7.71979C80.5086 7.82685 80.3824 7.92677 80.2465 8.01003C80.2295 8.01955 80.2125 8.03382 80.1931 8.04572C79.3437 8.59526 78.3123 8.82364 77.3076 8.83316C76.4558 8.85933 75.5968 8.6809 74.8275 8.3193C74.8153 8.31216 74.7814 8.30027 74.7668 8.29313C74.6382 8.22414 74.5047 8.16704 74.3858 8.0814C74.3591 8.06951 74.3324 8.05285 74.3033 8.03858C74.1795 7.96721 74.0654 7.8887 73.9538 7.7983C73.9174 7.765 73.8786 7.73883 73.8373 7.71028C73.7184 7.61512 73.5947 7.5152 73.4927 7.40101C73.466 7.37246 73.4393 7.34629 73.4126 7.32013C73.0511 6.95376 72.7695 6.50414 72.6191 6.01644C72.4759 5.62867 72.4953 5.20759 72.4808 4.80078C72.3618 4.62236 72.1095 4.52006 71.9105 4.63188C71.828 4.69135 71.8182 4.7984 71.7551 4.87215C71.6532 5.94507 72.1192 7.01562 72.8666 7.78879C72.8666 7.81495 72.8788 7.83161 72.903 7.84112C73.0365 7.96245 73.1651 8.08616 73.2986 8.20273C73.3229 8.22652 73.3495 8.24793 73.3787 8.26696C73.5121 8.37401 73.6529 8.47155 73.7936 8.57147C73.8203 8.5905 73.847 8.60716 73.8762 8.62381C74.0582 8.72848 74.2305 8.85219 74.427 8.92356C74.4392 8.93308 74.4634 8.94973 74.478 8.95687C75.109 9.25186 75.7885 9.45407 76.485 9.5183C76.5602 9.5183 76.6378 9.52544 76.7131 9.5421C77.0455 9.56113 77.3756 9.55161 77.7081 9.54447C78.7322 9.45645 79.7902 9.2138 80.6469 8.62143L80.6566 8.63332C80.6833 8.60953 80.7051 8.5905 80.7318 8.57147C80.8677 8.47393 81.0012 8.36926 81.1323 8.2622C81.1614 8.23841 81.1954 8.21224 81.2245 8.1837C81.3701 8.02668 81.54 7.88394 81.6613 7.70552L81.6807 7.71504C81.6904 7.69838 81.7074 7.66746 81.7171 7.6508C81.8287 7.50093 81.9331 7.34629 82.0326 7.18928C82.0399 7.17977 82.0569 7.16311 82.0617 7.1536L82.0496 7.1417C82.0593 7.12981 82.0836 7.10364 82.0933 7.08936C82.2753 6.72538 82.4379 6.34474 82.4937 5.9427C82.5179 5.93318 82.5301 5.91415 82.5301 5.89036C82.5325 5.75951 82.581 5.63581 82.5665 5.50734C82.5956 5.34795 82.6005 5.18618 82.5932 5.02203V5.02441Z" fill="white"/>
<g id="Clip path group">
<mask id="mask0_112_2408" style="mask-type:luminance" maskUnits="userSpaceOnUse" x="71" y="4" width="12" height="6">
<g id="clippath">
<path id="Vector_18" d="M82.5932 5.02441C82.5665 4.97445 82.5641 4.91735 82.5641 4.86264H82.5374C82.4985 4.72228 82.3748 4.58668 82.2146 4.57954C82.0957 4.57002 81.9452 4.5724 81.8773 4.68421C81.7438 4.86026 81.8069 5.08388 81.802 5.28134C81.802 5.29323 81.8045 5.31702 81.8045 5.32892C81.8045 5.46214 81.7875 5.59298 81.7656 5.72145C81.7462 5.75951 81.7365 5.80234 81.7365 5.84754C81.6807 6.15205 81.5667 6.45656 81.4138 6.73252C81.3846 6.77058 81.3604 6.8134 81.3507 6.8586C81.2512 7.02751 81.1323 7.18452 81.0085 7.33916C80.9891 7.35581 80.9721 7.37484 80.9551 7.39387C80.8677 7.49855 80.7755 7.58657 80.6809 7.67697C80.6566 7.68887 80.642 7.70552 80.6202 7.71979C80.5086 7.82685 80.3824 7.92677 80.2465 8.01003C80.2295 8.01955 80.2125 8.03382 80.1931 8.04572C79.3437 8.59526 78.3123 8.82364 77.3076 8.83316C76.4558 8.85933 75.5968 8.6809 74.8275 8.3193C74.8153 8.31216 74.7814 8.30027 74.7668 8.29313C74.6382 8.22414 74.5047 8.16704 74.3858 8.0814C74.3591 8.06951 74.3324 8.05285 74.3033 8.03858C74.1795 7.96721 74.0654 7.8887 73.9538 7.7983C73.9174 7.765 73.8786 7.73883 73.8373 7.71028C73.7184 7.61512 73.5947 7.5152 73.4927 7.40101C73.466 7.37246 73.4393 7.34629 73.4126 7.32013C73.0511 6.95376 72.7695 6.50414 72.6191 6.01644C72.4759 5.62867 72.4953 5.20759 72.4808 4.80078C72.3618 4.62236 72.1095 4.52006 71.9105 4.63188C71.828 4.69135 71.8182 4.7984 71.7551 4.87215C71.6532 5.94507 72.1192 7.01562 72.8666 7.78879C72.8666 7.81495 72.8788 7.83161 72.903 7.84112C73.0365 7.96245 73.1651 8.08616 73.2986 8.20273C73.3229 8.22652 73.3495 8.24793 73.3787 8.26696C73.5121 8.37401 73.6529 8.47155 73.7936 8.57147C73.8203 8.5905 73.847 8.60716 73.8762 8.62381C74.0582 8.72848 74.2305 8.85219 74.427 8.92356C74.4392 8.93308 74.4634 8.94973 74.478 8.95687C75.109 9.25186 75.7885 9.45407 76.485 9.5183C76.5602 9.5183 76.6378 9.52544 76.7131 9.5421C77.0455 9.56113 77.3756 9.55161 77.7081 9.54447C78.7322 9.45645 79.7902 9.2138 80.6469 8.62143L80.6566 8.63332C80.6833 8.60953 80.7051 8.5905 80.7318 8.57147C80.8677 8.47393 81.0012 8.36926 81.1323 8.2622C81.1614 8.23841 81.1954 8.21224 81.2245 8.1837C81.3701 8.02668 81.54 7.88394 81.6613 7.70552L81.6807 7.71504C81.6904 7.69838 81.7074 7.66746 81.7171 7.6508C81.8287 7.50093 81.9331 7.34629 82.0326 7.18928C82.0399 7.17977 82.0569 7.16311 82.0617 7.1536L82.0496 7.1417C82.0593 7.12981 82.0836 7.10364 82.0933 7.08936C82.2753 6.72538 82.4379 6.34474 82.4937 5.9427C82.5179 5.93318 82.5301 5.91415 82.5301 5.89036C82.5325 5.75951 82.581 5.63581 82.5665 5.50734C82.5956 5.34795 82.6005 5.18618 82.5932 5.02203V5.02441Z" fill="white"/>
</g>
</mask>
<g mask="url(#mask0_112_2408)">
<g id="Group">
<g id="Group_2">
<path id="Vector_19" d="M72.4856 5.04582C72.4176 4.97207 72.1725 4.99586 71.9735 5.01489C71.7818 5.03392 71.6022 5.05058 71.4688 5.01013L71.5294 4.8222C71.6216 4.85074 71.7915 4.83409 71.9541 4.81982C72.2235 4.79365 72.5001 4.76748 72.636 4.91498L72.4856 5.0482V5.04582Z" fill="#D1D1D1"/>
<path id="Vector_20" d="M71.6876 5.80947L71.6221 5.62153L71.6852 5.60012C72.0929 5.45976 72.5103 5.3313 72.7432 5.45501L72.6462 5.62867C72.4739 5.53589 71.9861 5.7048 71.7531 5.78568L71.6876 5.80709V5.80947Z" fill="#D1D1D1"/>
<path id="Vector_21" d="M71.9518 6.62071C71.9299 6.62071 71.9081 6.61833 71.8887 6.61119L71.9518 6.42325C72.0003 6.43277 72.1605 6.32571 72.2284 6.27813C72.2794 6.24483 72.3279 6.21152 72.3667 6.19011C72.5827 6.0783 72.772 6.01407 72.9686 5.98314L73.0001 6.17822C72.8278 6.20438 72.658 6.26386 72.4614 6.36378C72.4323 6.37805 72.3886 6.40898 72.3425 6.43752C72.2163 6.52317 72.078 6.61595 71.9542 6.61595L71.9518 6.62071Z" fill="#D1D1D1"/>
<path id="Vector_22" d="M72.4004 7.42005L72.2354 7.30586C72.3688 7.11792 72.5314 6.96091 72.728 6.82769C73.2279 6.48511 73.5482 6.3733 73.7375 6.4756L73.6405 6.64926C73.6016 6.62785 73.4269 6.58979 72.8445 6.99183C72.6673 7.11316 72.5217 7.25352 72.4004 7.42243V7.42005Z" fill="#D1D1D1"/>
<path id="Vector_23" d="M72.757 8.0481L72.6309 7.89346C72.6891 7.84826 72.7352 7.77927 72.7837 7.70552C72.8396 7.61988 72.9002 7.52948 72.99 7.46049C73.1211 7.35819 73.2885 7.31061 73.4365 7.26779C73.5215 7.244 73.604 7.22021 73.6695 7.18929L73.7569 7.36771C73.6768 7.40577 73.5894 7.43194 73.4948 7.45811C73.3589 7.49855 73.2157 7.539 73.1186 7.61512C73.0531 7.66508 73.007 7.73645 72.956 7.81258C72.9002 7.89584 72.8444 7.98149 72.7595 8.0481H72.757Z" fill="#D1D1D1"/>
<path id="Vector_24" d="M73.4177 8.4335L73.2188 8.40733C73.2697 8.04335 73.6434 7.62227 74.0075 7.65557L73.9905 7.85303C73.7429 7.83162 73.4566 8.1623 73.4202 8.4335H73.4177Z" fill="#D1D1D1"/>
<path id="Vector_25" d="M73.8104 8.95688L73.791 8.75942C73.8493 8.75466 73.9536 8.581 74.0094 8.48822C74.0555 8.41209 74.0968 8.34072 74.1405 8.29314C74.3322 8.08141 74.5433 8.01956 74.7447 7.96008L74.803 8.1504C74.5797 8.21463 74.4341 8.26697 74.2909 8.42398C74.2618 8.45729 74.223 8.51914 74.1842 8.58576C74.0798 8.75942 73.973 8.93784 73.8129 8.9545L73.8104 8.95688Z" fill="#D1D1D1"/>
<path id="Vector_26" d="M74.6499 9.25425C74.6402 9.05441 74.7882 8.6024 75.0042 8.40495C75.111 8.30741 75.208 8.29789 75.2711 8.30503L75.2469 8.50011C75.2153 8.49773 75.1813 8.512 75.1401 8.55007C74.9751 8.69994 74.844 9.08772 74.8513 9.24473L74.6499 9.25425Z" fill="#D1D1D1"/>
<path id="Vector_27" d="M75.356 9.47073C75.3463 9.23521 75.4652 8.30027 75.9117 8.26221L75.9287 8.45966C75.7103 8.47869 75.5429 9.15195 75.5574 9.46359L75.356 9.47311V9.47073Z" fill="#D1D1D1"/>
<path id="Vector_28" d="M76.0892 9.9156C76.0528 9.70387 75.9679 8.99018 76.3634 8.63333L76.4993 8.77845C76.2445 9.00683 76.2227 9.49928 76.2882 9.8823L76.0892 9.9156Z" fill="#D1D1D1"/>
<path id="Vector_29" d="M76.9947 9.99649C76.9874 9.92274 76.9607 9.82282 76.9316 9.71577C76.8418 9.38509 76.7204 8.93546 77.0384 8.71422L77.1548 8.87599C76.951 9.01873 77.0481 9.37795 77.1281 9.66581C77.1597 9.78 77.1888 9.88706 77.1985 9.97746L76.9971 9.99887L76.9947 9.99649Z" fill="#D1D1D1"/>
<path id="Vector_30" d="M77.9924 9.83471C77.8128 9.63012 77.7254 8.90691 77.7958 8.69994L77.9875 8.76179C77.9317 8.92832 78.0239 9.56826 78.1453 9.70625L77.9924 9.83471Z" fill="#D1D1D1"/>
<path id="Vector_31" d="M78.9064 9.6658C78.8822 9.6206 78.8555 9.57778 78.8288 9.53496C78.7293 9.36843 78.6274 9.19714 78.5885 8.99017C78.5715 8.90215 78.5788 8.80223 78.5861 8.71421C78.591 8.64522 78.5958 8.57385 78.5861 8.53341L78.7827 8.49297C78.7972 8.55958 78.7924 8.64046 78.7851 8.72611C78.7802 8.80699 78.7754 8.89263 78.7851 8.95449C78.8166 9.12577 78.9064 9.27565 79.0011 9.43266C79.0278 9.47786 79.0545 9.52307 79.0812 9.56827L78.904 9.66342L78.9064 9.6658Z" fill="#D1D1D1"/>
<path id="Vector_32" d="M79.7152 9.37558C79.4022 9.17574 79.3439 8.52152 79.4313 8.24556L79.623 8.30266C79.5502 8.5358 79.623 9.08058 79.8244 9.20905L79.7152 9.37558Z" fill="#D1D1D1"/>
<path id="Vector_33" d="M80.4308 9.0092C80.3992 8.94259 80.3677 8.88074 80.3361 8.81888C80.1881 8.52151 80.0473 8.24079 80.0449 7.86253H80.2463C80.2488 8.19559 80.3725 8.44301 80.5181 8.73086C80.5497 8.79272 80.5812 8.85695 80.6128 8.92594L80.4308 9.0092Z" fill="#D1D1D1"/>
<path id="Vector_34" d="M81.1955 8.35499C80.9844 8.21701 80.5015 7.84351 80.5549 7.37247L80.7563 7.39388C80.715 7.76738 81.1688 8.09806 81.3096 8.19084L81.198 8.35499H81.1955Z" fill="#D1D1D1"/>
<path id="Vector_35" d="M82.0032 7.78403C81.5275 7.68174 81.0009 7.27493 80.751 6.94425L80.9136 6.8253C81.1465 7.12981 81.6343 7.50093 82.0493 7.59133L82.0056 7.78403H82.0032Z" fill="#D1D1D1"/>
<path id="Vector_36" d="M82.3582 7.07033C82.1786 7.03227 80.9361 6.63736 81.0186 6.11398L81.2176 6.14491C81.1739 6.41611 82.0257 6.79913 82.3994 6.87764L82.3582 7.07033Z" fill="#D1D1D1"/>
<path id="Vector_37" d="M82.6755 6.30669C82.5736 6.271 82.4619 6.23532 82.343 6.19726C81.9596 6.07593 81.5252 5.93795 81.251 5.70243L81.3844 5.55255C81.6296 5.7619 82.0421 5.89275 82.4061 6.00694C82.5275 6.045 82.6415 6.08069 82.7459 6.11875L82.6755 6.30431V6.30669Z" fill="#D1D1D1"/>
<path id="Vector_38" d="M82.8678 5.62154C82.6809 5.62154 82.4576 5.5692 82.2611 5.524C82.1616 5.50021 82.0693 5.4788 81.9868 5.46453C81.8048 5.4336 81.6301 5.38602 81.4602 5.33844C81.3413 5.30514 81.22 5.27183 81.0986 5.24566L81.1423 5.05296C81.2685 5.08151 81.3947 5.11482 81.5136 5.14812C81.6786 5.19332 81.8485 5.2409 82.0208 5.26945C82.1082 5.28372 82.2053 5.30751 82.3072 5.3313C82.5159 5.37888 82.7537 5.43598 82.926 5.42171L82.943 5.61916C82.9187 5.61916 82.8945 5.62154 82.8678 5.62154Z" fill="#D1D1D1"/>
<path id="Vector_39" d="M82.5443 4.95067C82.076 4.95067 81.6367 4.80317 81.2145 4.66043L81.1514 4.63902L81.2169 4.45108L81.28 4.47249C81.7241 4.62237 82.1828 4.777 82.6608 4.75083L82.673 4.94829C82.6293 4.95067 82.588 4.95305 82.5468 4.95305L82.5443 4.95067Z" fill="#D1D1D1"/>
</g>
</g>
</g>
</g>
<g id="Group_3">
<path id="Vector_40" d="M16.0965 6.41135C16.577 6.33998 17.1303 6.29478 17.538 6.58978C17.7928 6.77534 17.8826 7.11315 17.8632 7.41766C17.8826 7.91487 17.6448 8.44776 17.1934 8.70707C16.7954 8.92118 16.3125 8.93783 15.8684 8.89263C15.5699 8.85695 15.269 8.69755 15.1161 8.43111C14.7715 7.65794 15.1986 6.56361 16.0965 6.41373V6.41135Z" fill="#1075D4"/>
<path id="Vector_41" d="M1.71316 6.97279C1.73986 6.70634 1.98496 6.46607 2.26647 6.47558C4.36079 6.47558 6.44783 6.4851 8.53244 6.47558C8.75813 6.45893 9.00323 6.55647 9.11244 6.75154C9.26775 7.01799 9.12943 7.31061 9.11244 7.58657C9.04934 7.96007 9.06633 8.45728 8.62223 8.60001C7.09821 8.64522 5.57418 8.60001 4.05016 8.61667C3.90455 9.55874 3.76865 10.4913 3.62305 11.4262C3.62305 11.4619 3.63275 11.5428 3.63275 11.5761C4.74908 11.5666 5.86297 11.5761 6.97929 11.5666C7.2875 11.55 7.61511 11.8069 7.58599 12.1257C7.5593 12.454 7.48649 12.7751 7.44038 13.1034C7.40398 13.3247 7.22197 13.5293 6.98657 13.5745C5.74406 13.6006 4.48456 13.5483 3.24204 13.6006C3.04304 14.9424 2.80765 16.2865 2.59894 17.6283C2.57225 17.8947 2.35384 18.1255 2.08204 18.135C1.56513 18.1445 1.04822 18.1445 0.531319 18.135C0.196423 18.1445 -0.0753776 17.7781 0.0144135 17.4689C0.567721 13.967 1.13802 10.4723 1.71074 6.97041L1.71316 6.97279Z" fill="#1075D4"/>
<path id="Vector_42" d="M10.9273 6.49224C11.3981 6.45655 11.8786 6.48272 12.3519 6.47558C12.6431 6.45893 12.9319 6.68017 12.9586 6.97279C12.9586 7.20355 12.8955 7.43431 12.8688 7.66507C12.4878 10.0488 12.0971 12.4302 11.716 14.8139C11.6627 15.1969 11.5632 15.6061 11.6796 15.9963C11.8155 16.3864 12.4222 16.2175 12.5679 16.6267C12.6576 16.955 12.5581 17.3023 12.5314 17.6401C12.5048 18.085 11.9878 18.1826 11.6335 18.2801C10.8618 18.4228 9.92751 18.3158 9.3742 17.6925C8.9762 17.2381 8.94708 16.5982 9.02959 16.0296C9.5101 13.0059 9.9906 9.98458 10.4808 6.95376C10.5075 6.73251 10.6895 6.52792 10.9249 6.49224H10.9273Z" fill="#1075D4"/>
<path id="Vector_43" d="M28.9296 6.97279C28.9563 6.70635 29.2014 6.47559 29.4732 6.47559H30.8516C31.1962 6.46607 31.4777 6.83005 31.3952 7.15122C31.0773 9.12577 30.7521 11.0979 30.4342 13.0725C30.9147 13.0011 31.4583 12.9131 31.7956 12.5301C32.3586 11.9068 32.8197 11.1883 33.1643 10.4318C33.2832 10.1392 33.3463 9.711 33.7346 9.65866C34.2515 9.64201 34.7781 9.64915 35.295 9.65866C35.6494 9.64915 35.9114 10.0417 35.795 10.3605C35.6591 10.8315 35.4334 11.2669 35.1955 11.6856C34.6689 12.5206 34.0889 13.3485 33.3269 14.0051C33.6618 14.9923 34.0889 15.9511 34.4602 16.9217C34.5694 17.2429 34.8315 17.614 34.5864 17.9256C34.3049 18.2991 33.7783 18.1112 33.39 18.1564C32.9823 18.1112 32.3926 18.3158 32.1669 17.8638C31.7398 16.8955 31.3879 15.8987 30.9511 14.9305C30.6963 14.94 30.4342 14.9471 30.1794 14.921C30.1624 14.9567 30.126 15.028 30.1066 15.0637C29.9707 15.9535 29.8251 16.8408 29.6795 17.7305C29.6261 17.9447 29.4538 18.1302 29.2159 18.1493C28.7354 18.1659 28.2452 18.1588 27.755 18.1588C27.5463 18.1588 27.357 18.0255 27.2648 17.8471C27.175 17.6687 27.2284 17.4641 27.2551 17.269C27.8181 13.8385 28.3714 10.4057 28.9247 6.97517L28.9296 6.97279Z" fill="#1075D4"/>
<path id="Vector_44" d="M54.1317 7.94103C54.1948 7.69124 54.4399 7.52233 54.6947 7.53185C55.0563 7.54136 55.4301 7.52233 55.8014 7.54136C56.0998 7.55088 56.3352 7.84349 56.2988 8.12897C56.2455 8.63569 56.1168 9.14242 56.0804 9.64914C56.4347 9.64914 56.7963 9.63962 57.1506 9.64914C57.4686 9.64914 57.7306 9.9703 57.6773 10.2724C57.6311 10.5484 57.5681 10.8148 57.5219 11.0908C57.4758 11.3216 57.2768 11.5095 57.0511 11.5452C56.6168 11.5714 56.1896 11.5285 55.7625 11.5714C55.5805 12.7632 55.3815 13.9527 55.1922 15.1446C55.1655 15.4206 55.1461 15.7322 55.3111 15.9701C55.5562 16.2627 55.9834 16.158 56.328 16.1913C56.5998 16.2722 56.7721 16.5648 56.726 16.8313C56.6798 17.1334 56.6726 17.4355 56.5998 17.7282C56.4906 18.0565 56.0998 18.1183 55.8014 18.1992C54.9762 18.4133 54.0249 18.4133 53.2896 17.9423C52.6101 17.4879 52.5009 16.6077 52.5737 15.863C52.763 14.4238 53.0639 12.9916 53.2265 11.5428C52.9717 11.5523 52.6635 11.588 52.4742 11.3644C52.2558 11.1431 52.365 10.8125 52.4014 10.5365C52.4548 10.2439 52.4475 9.86087 52.7727 9.70148C53.0348 9.60394 53.3357 9.67531 53.6172 9.63962C53.7895 9.07105 53.9521 8.50247 54.1341 7.94103H54.1317Z" fill="#1075D4"/>
<path id="Vector_45" d="M49.0088 10.822C49.5791 10.2629 50.2683 9.79902 51.0595 9.56826C51.4041 9.416 51.8482 9.70148 51.8385 10.075C51.7754 10.565 51.6565 11.0432 51.5764 11.5238C51.54 11.7641 51.3313 11.9686 51.0862 11.9948C50.198 12.1471 49.4262 12.6704 48.8098 13.2937C48.6545 13.4817 48.4288 13.6577 48.4021 13.917C48.2128 15.1612 48.0114 16.4054 47.8124 17.652C47.7857 17.9185 47.5503 18.1754 47.2688 18.1588H45.8904C45.5725 18.1754 45.291 17.8661 45.3274 17.5545C45.7254 15.0923 46.1258 12.6371 46.5165 10.1749C46.5335 9.9251 46.7155 9.68483 46.98 9.65866C47.3149 9.642 47.6523 9.64914 47.9969 9.64914C48.2687 9.64914 48.5235 9.88942 48.5235 10.1654C48.5235 10.5484 48.4871 10.9385 48.4774 11.3311C48.6958 11.1979 48.8317 10.9838 49.0113 10.8244L49.0088 10.822Z" fill="#1075D4"/>
<path id="Vector_46" d="M15.1095 9.69197C15.5997 9.59443 16.1069 9.67532 16.5971 9.64677C16.8786 9.61108 17.1771 9.78951 17.2232 10.0655C17.2596 10.3153 17.1868 10.5555 17.1601 10.7934C16.7888 13.0773 16.4175 15.3635 16.0535 17.6473C16.0268 17.9042 15.8084 18.1635 15.5269 18.154C15.0367 18.154 14.5464 18.1635 14.049 18.1445C13.7408 18.1088 13.5126 17.7615 13.5951 17.4689C13.9859 15.0946 14.3572 12.7299 14.7479 10.3557C14.7649 10.0988 14.8377 9.79664 15.1095 9.68959V9.69197Z" fill="#1075D4"/>
<path id="Vector_47" d="M44.4564 9.80854C43.1047 9.55875 41.7262 9.3827 40.3575 9.51593C39.132 9.66818 37.8992 10.2106 37.1469 11.1955C36.1034 12.4944 35.7491 14.2358 35.9869 15.8535C36.1131 16.6267 36.4577 17.4094 37.1032 17.8899C37.7026 18.3443 38.5083 18.4062 39.2339 18.2896C40.2508 18.0945 41.1098 17.4546 41.8185 16.7433C41.8549 17.0454 41.7821 17.3475 41.8015 17.6402C41.8185 17.9161 42.0733 18.173 42.3548 18.1564H43.2794C43.5512 18.1564 43.7793 17.9066 43.7963 17.6497C44.187 15.2398 44.5753 12.8394 44.9563 10.439C45.0097 10.1368 44.767 9.84423 44.4564 9.80854ZM41.9083 13.9956C41.5467 14.6617 41.037 15.2659 40.4667 15.7822C40.1391 16.0486 39.7241 16.3246 39.2776 16.2366C38.8432 16.1485 38.6345 15.7037 38.535 15.3206C38.3093 14.3239 38.518 13.2414 39.0883 12.3778C39.3431 11.9782 39.7508 11.676 40.2216 11.55C40.8841 11.3906 41.5831 11.4691 42.2262 11.6475L42.2626 11.6832C42.18 12.4563 42.0272 13.22 41.9083 13.9956Z" fill="#1075D4"/>
<path id="Vector_48" d="M26.6531 12.6609C26.6434 11.7712 26.3982 10.8386 25.7649 10.1725C25.3305 9.70148 24.6777 9.46121 24.0418 9.47072C22.9886 9.43504 22.0009 9.94176 21.2316 10.6174C21.0593 10.7506 20.9404 10.9457 20.7511 11.0527C20.7511 10.7601 20.7778 10.4651 20.7681 10.163C20.7778 9.88704 20.5133 9.64677 20.2415 9.64677H19.3169C19.0257 9.64677 18.7903 9.89656 18.7733 10.1701C18.203 13.7267 17.6206 17.2833 17.0503 20.8375C16.9677 21.1658 17.259 21.5036 17.6036 21.4965C18.1108 21.487 18.6277 21.5322 19.1276 21.4608C19.5256 21.3537 19.5183 20.9017 19.5814 20.5711C19.727 19.7884 19.8265 19.0057 19.9163 18.2159C21.7024 18.5537 23.7797 18.3229 25.112 16.9978C26.1992 15.8321 26.7089 14.2239 26.6531 12.6586V12.6609ZM24.1146 13.5602C24.0612 14.3786 23.7603 15.2041 23.1803 15.8012C22.428 16.503 21.285 16.4055 20.3604 16.1652C20.3434 16.139 20.3143 16.0843 20.307 16.0581C20.4526 15.285 20.5254 14.5023 20.705 13.7386C21.2122 12.9202 21.8286 12.0947 22.7095 11.6404C23.0371 11.4881 23.4812 11.5238 23.7166 11.8188C24.1146 12.3088 24.151 12.9654 24.1146 13.5602Z" fill="#1075D4"/>
</g>
</g>
<defs>
<linearGradient id="paint0_linear_112_2408" x1="77.1666" y1="3.88725" x2="77.1666" y2="23" gradientUnits="userSpaceOnUse">
<stop stop-color="#F7E530"/>
<stop offset="1" stop-color="#FDC606"/>
</linearGradient>
<radialGradient id="paint1_radial_112_2408" cx="0" cy="0" r="1" gradientUnits="userSpaceOnUse" gradientTransform="translate(77.2097 12.6731) scale(15.8879 15.5749)">
<stop offset="0.5" stop-color="#F29405"/>
<stop offset="0.77" stop-color="#F7D01E"/>
<stop offset="1" stop-color="#FDCB06"/>
</radialGradient>
<linearGradient id="paint2_linear_112_2408" x1="82.5937" y1="4.57716" x2="82.5983" y2="5.48117" gradientUnits="userSpaceOnUse">
<stop stop-color="#FADA1C"/>
<stop offset="1" stop-color="#FDCB06"/>
</linearGradient>
<linearGradient id="paint3_linear_112_2408" x1="71.7338" y1="4.53434" x2="71.7292" y2="5.43835" gradientUnits="userSpaceOnUse">
<stop stop-color="#FADA1C"/>
<stop offset="1" stop-color="#FDCB06"/>
</linearGradient>
<clipPath id="clip0_112_2408">
<rect width="89" height="23" fill="white"/>
</clipPath>
</defs>
</svg>
