<svg width="137" height="137" viewBox="0 0 137 137" fill="none" xmlns="http://www.w3.org/2000/svg">
<g id="Group 146199">
<g id="Rectangle 45890">
<path d="M0 48C0 25.3726 0 14.0589 7.02944 7.02944C14.0589 0 25.3726 0 48 0H89C111.627 0 122.941 0 129.971 7.02944C137 14.0589 137 25.3726 137 48V89C137 111.627 137 122.941 129.971 129.971C122.941 137 111.627 137 89 137H48C25.3726 137 14.0589 137 7.02944 129.971C0 122.941 0 111.627 0 89V48Z" fill="#EBFBFF"/>
<path d="M0.5 48C0.5 36.6722 0.501062 28.2266 1.37422 21.7321C2.24545 15.252 3.97666 10.7893 7.38299 7.38299C10.7893 3.97666 15.252 2.24545 21.7321 1.37422C28.2266 0.501062 36.6722 0.5 48 0.5H89C100.328 0.5 108.773 0.501062 115.268 1.37422C121.748 2.24545 126.211 3.97666 129.617 7.38299C133.023 10.7893 134.755 15.252 135.626 21.7321C136.499 28.2266 136.5 36.6722 136.5 48V89C136.5 100.328 136.499 108.773 135.626 115.268C134.755 121.748 133.023 126.211 129.617 129.617C126.211 133.023 121.748 134.755 115.268 135.626C108.773 136.499 100.328 136.5 89 136.5H48C36.6722 136.5 28.2266 136.499 21.7321 135.626C15.252 134.755 10.7893 133.023 7.38299 129.617C3.97666 126.211 2.24545 121.748 1.37422 115.268C0.501062 108.773 0.5 100.328 0.5 89V48Z" stroke="black" stroke-opacity="0.09"/>
</g>
<g id="Group">
<path id="Vector" d="M63.9675 91.3739C53.5543 91.3739 45.085 82.9114 45.085 72.512C45.085 62.1125 53.5567 53.6476 63.9675 53.6476C74.3782 53.6476 82.85 62.1101 82.85 72.512C82.85 82.9138 74.3782 91.3739 63.9675 91.3739ZM63.9675 56.2438C54.988 56.2438 47.684 63.5398 47.684 72.5095C47.684 81.4792 54.988 88.7753 63.9675 88.7753C72.9469 88.7753 80.2509 81.4792 80.2509 72.5095C80.2509 63.5398 72.9469 56.2438 63.9675 56.2438Z" fill="#214052"/>
<path id="Vector_2" d="M63.9677 107.439C44.6863 107.439 29 91.7699 29 72.5095C29 53.249 44.6863 37.5798 63.9677 37.5798C67.6209 37.5798 71.2233 38.1401 74.671 39.2463C75.3552 39.466 75.7324 40.1978 75.5124 40.8789C75.2924 41.5623 74.5622 41.9391 73.878 41.7193C70.6866 40.6953 67.355 40.1761 63.9701 40.1761C46.12 40.1785 31.6015 54.6836 31.6015 72.5095C31.6015 90.3353 46.1224 104.84 63.9677 104.84C81.813 104.84 96.3339 90.3353 96.3339 72.5095C96.3339 68.9617 95.7634 65.4767 94.6367 62.1487C94.407 61.4676 94.7721 60.731 95.4515 60.5016C96.1333 60.2673 96.8707 60.6368 97.1004 61.3155C98.3165 64.9116 98.9354 68.6767 98.9354 72.5095C98.9354 91.7699 83.2491 107.439 63.9677 107.439Z" fill="#214052"/>
<path id="Vector_3" d="M92.3056 56.524C92.233 56.524 92.1581 56.5167 92.0831 56.5046L82.7821 54.8913C82.2405 54.7972 81.8174 54.3745 81.7231 53.8335L80.1081 44.5426C80.0355 44.1272 80.1709 43.7022 80.4707 43.4027L94.5081 29.3806C94.8708 29.0183 95.4123 28.9024 95.8935 29.086C96.3722 29.2695 96.6986 29.7163 96.7276 30.2283L97.2208 39.4129L106.415 39.908C106.928 39.9346 107.375 40.2631 107.559 40.7413C107.743 41.2194 107.627 41.7628 107.264 42.1251L93.2267 56.1472C92.9801 56.3935 92.6489 56.5288 92.308 56.5288L92.3056 56.524ZM84.1288 52.4883L91.8631 53.8311L103.362 42.3449L95.9128 41.944C95.2504 41.9078 94.7209 41.3788 94.6846 40.7171L94.2833 33.2762L82.7845 44.7624L84.1264 52.4883H84.1288Z" fill="#214052"/>
<path id="Vector_4" d="M62.3386 75.5526C62.0049 75.5526 61.6737 75.4246 61.4199 75.171C60.9121 74.6638 60.9121 73.8427 61.4199 73.3355L82.0842 52.6936C82.592 52.1864 83.414 52.1864 83.9217 52.6936C84.4294 53.2008 84.4294 54.0219 83.9217 54.5291L63.2573 75.171C63.0035 75.4246 62.6698 75.5526 62.3386 75.5526Z" fill="#214052"/>
<g id="Group_2">
<path id="Vector_5" d="M63.967 77.7648C66.8726 77.7648 69.228 75.4119 69.228 72.5095C69.228 69.6071 66.8726 67.2543 63.967 67.2543C61.0615 67.2543 58.7061 69.6071 58.7061 72.5095C58.7061 75.4119 61.0615 77.7648 63.967 77.7648Z" fill="#0071DC"/>
<path id="Vector_6" d="M63.9674 78.7405C63.5032 78.7405 63.0317 78.6874 62.5603 78.5787C60.938 78.2044 59.5574 77.219 58.675 75.8062C57.7925 74.3958 57.5144 72.7245 57.8916 71.104C58.2664 69.4834 59.2528 68.1044 60.6647 67.2253C62.0791 66.3438 63.7498 66.0661 65.3721 66.4404C68.7206 67.2157 70.8168 70.5678 70.0407 73.9127C69.3758 76.7891 66.8034 78.7381 63.9674 78.7381V78.7405ZM63.9577 68.2276C63.1647 68.2276 62.3862 68.4498 61.6971 68.8772C60.7252 69.4834 60.0482 70.4302 59.7895 71.5435C59.5308 72.6569 59.7218 73.8065 60.3287 74.7749C60.9355 75.7458 61.8833 76.422 62.9979 76.6804C64.11 76.9364 65.2609 76.7457 66.2328 76.1419C67.2047 75.5357 67.8817 74.589 68.1404 73.4756C68.6723 71.1764 67.2337 68.8724 64.9321 68.3387C64.6081 68.2638 64.2817 68.2276 63.9577 68.2276Z" fill="#214052"/>
</g>
</g>
</g>
</svg>
