<svg width="157" height="47" viewBox="0 0 157 47" fill="none" xmlns="http://www.w3.org/2000/svg">
<g id="Group">
<path id="Vector" d="M150.828 0.0341797H6.17184C2.76323 0.0341797 0 2.78414 0 6.1764V39.9485C0 43.3408 2.76323 46.0908 6.17184 46.0908H150.828C154.237 46.0908 157 43.3408 157 39.9485V6.1764C157 2.78414 154.237 0.0341797 150.828 0.0341797Z" fill="black"/>
<g id="Group_2">
<path id="Vector_2" d="M36.9379 24.4588L30.8732 27.9435L25.9092 23.0549L26.5101 22.4335L30.8523 18.1543L36.9386 21.6511C38.0238 22.2746 38.0238 23.8346 36.9386 24.4581L36.9379 24.4588Z" fill="#FFC900"/>
<path id="Vector_3" d="M30.8514 18.1547L26.5091 22.4338L25.8934 23.0405L11.2998 8.29171C11.7929 7.81304 12.577 7.65483 13.2554 8.045L25.0965 14.8489L30.8514 18.1553V18.1547Z" fill="#00EF76"/>
<path id="Vector_4" d="M25.909 23.055L11.2877 37.8065C10.9987 37.5202 10.8135 37.1233 10.8135 36.6614V9.44715C10.8135 8.97921 11.0041 8.57697 11.3005 8.29004L25.8941 23.0389L25.909 23.0536V23.055Z" fill="#01CFFF"/>
<path id="Vector_5" d="M30.8733 27.9436L25.0976 31.2621L13.2564 38.066C12.572 38.4588 11.7798 38.2946 11.2881 37.8072L25.9093 23.0557L30.8733 27.9442V27.9436Z" fill="#F63548"/>
</g>
<g id="Group_3">
<g id="Group_4">
<path id="Vector_6" d="M51.8536 30.0496V28.5311L57.537 28.5224V33.3245C56.6647 33.9956 55.7647 34.5004 54.8371 34.8383C53.9095 35.1768 52.9577 35.3457 51.9816 35.3457C50.6639 35.3457 49.4662 35.0736 48.3891 34.5292C47.3119 33.9848 46.4988 33.1978 45.9498 32.168C45.4008 31.1383 45.126 29.9879 45.126 28.7168C45.126 27.4457 45.3988 26.2819 45.9451 25.1905C46.4914 24.0991 47.2769 23.2879 48.3022 22.7583C49.3274 22.2287 50.5076 21.9639 51.8441 21.9639C52.8142 21.9639 53.6912 22.1154 54.4754 22.4184C55.2595 22.7214 55.8738 23.1438 56.3198 23.6855C56.765 24.2271 57.1039 24.9331 57.3356 25.8039L55.7337 26.2276C55.5323 25.5686 55.2824 25.0504 54.9833 24.6743C54.6842 24.2975 54.2571 23.9958 53.702 23.7693C53.1469 23.5427 52.5306 23.4294 51.8536 23.4294C51.0418 23.4294 50.3406 23.5487 49.7485 23.7867C49.1563 24.0253 48.6794 24.3384 48.3163 24.7266C47.9532 25.1148 47.671 25.5418 47.4696 26.0064C47.128 26.8068 46.9569 27.675 46.9569 28.6102C46.9569 29.764 47.163 30.7287 47.5746 31.5057C47.9862 32.2827 48.5858 32.8592 49.3732 33.236C50.16 33.6128 50.996 33.8011 51.8812 33.8011C52.6498 33.8011 53.4002 33.6583 54.1325 33.3728C54.8647 33.0872 55.4198 32.7828 55.7984 32.459V30.0489H51.8536V30.0496Z" fill="white"/>
<path id="Vector_7" d="M59.7998 30.4374C59.7998 28.7017 60.3003 27.4152 61.3007 26.5799C62.1366 25.8854 63.1552 25.5381 64.3576 25.5381C65.6941 25.5381 66.7861 25.9604 67.6342 26.8051C68.4823 27.6499 68.9067 28.8163 68.9067 30.3053C68.9067 31.512 68.7187 32.4607 68.3435 33.1518C67.9683 33.8437 67.422 34.3807 66.7052 34.7628C65.9885 35.1456 65.2057 35.3367 64.3576 35.3367C62.9969 35.3367 61.8968 34.9157 61.0582 34.0743C60.2195 33.233 59.7998 32.0209 59.7998 30.4374ZM61.4926 30.4374C61.4926 31.6381 61.7641 32.5371 62.3071 33.1344C62.85 33.7317 63.5338 34.0301 64.3569 34.0301C65.1801 34.0301 65.8551 33.7297 66.3981 33.1297C66.941 32.5297 67.2125 31.6146 67.2125 30.3844C67.2125 29.2253 66.9397 28.3471 66.3933 27.7497C65.847 27.1524 65.1687 26.8541 64.3569 26.8541C63.5452 26.8541 62.85 27.1511 62.3071 27.7457C61.7641 28.3404 61.4926 29.2374 61.4926 30.438V30.4374Z" fill="white"/>
<path id="Vector_8" d="M70.6924 30.4374C70.6924 28.7017 71.1929 27.4152 72.1932 26.5799C73.0292 25.8854 74.0478 25.5381 75.2502 25.5381C76.5867 25.5381 77.6786 25.9604 78.5267 26.8051C79.3749 27.6499 79.7992 28.8163 79.7992 30.3053C79.7992 31.512 79.6113 32.4607 79.2361 33.1518C78.8609 33.8437 78.3146 34.3807 77.5978 34.7628C76.8811 35.1456 76.0983 35.3367 75.2502 35.3367C73.8894 35.3367 72.7894 34.9157 71.9507 34.0743C71.1121 33.233 70.6924 32.0209 70.6924 30.4374ZM72.3859 30.4374C72.3859 31.6381 72.6574 32.5371 73.2003 33.1344C73.7433 33.7317 74.427 34.0301 75.2502 34.0301C76.0734 34.0301 76.7484 33.7297 77.2913 33.1297C77.8343 32.5297 78.1057 31.6146 78.1057 30.3844C78.1057 29.2253 77.8329 28.3471 77.2866 27.7497C76.7403 27.1524 76.0619 26.8541 75.2502 26.8541C74.4385 26.8541 73.7433 27.1511 73.2003 27.7457C72.6574 28.3404 72.3859 29.2374 72.3859 30.438V30.4374Z" fill="white"/>
<path id="Vector_9" d="M81.8971 35.9021L83.499 36.1314C83.5664 36.6081 83.7523 36.9553 84.0574 37.1732C84.4663 37.4675 85.0248 37.6143 85.7321 37.6143C86.4947 37.6143 87.0834 37.4675 87.4984 37.1732C87.9133 36.8789 88.1942 36.4673 88.3404 35.9377C88.426 35.6139 88.4657 34.9341 88.4596 33.8983C87.7395 34.7162 86.8429 35.1251 85.7691 35.1251C84.4327 35.1251 83.3986 34.6605 82.6664 33.7307C81.9341 32.8008 81.5684 31.686 81.5684 30.3854C81.5684 29.4911 81.7361 28.6658 82.0716 27.9096C82.407 27.1534 82.8934 26.5695 83.5313 26.1572C84.1686 25.7455 84.9177 25.5391 85.7786 25.5391C86.9258 25.5391 87.8716 25.9862 88.6159 26.8805V25.7509H90.135V33.8547C90.135 35.3142 89.9807 36.3486 89.6729 36.9573C89.365 37.5667 88.8766 38.0474 88.2084 38.4007C87.5401 38.754 86.7183 38.9303 85.7415 38.9303C84.5822 38.9303 83.6458 38.6789 82.9318 38.1755C82.2177 37.672 81.8728 36.9144 81.8978 35.9021H81.8971ZM83.2612 30.2701C83.2612 31.5003 83.5145 32.3973 84.0211 32.9624C84.5276 33.5276 85.1622 33.8098 85.9248 33.8098C86.6873 33.8098 87.3158 33.5289 87.8285 32.9671C88.3411 32.4053 88.5971 31.5237 88.5971 30.323C88.5971 29.1224 88.333 28.3105 87.8055 27.7279C87.2774 27.1453 86.6415 26.8537 85.8971 26.8537C85.1528 26.8537 84.5425 27.1406 84.0298 27.7145C83.5172 28.2884 83.2612 29.1405 83.2612 30.2701Z" fill="white"/>
<path id="Vector_10" d="M93.0557 35.1253V22.1846H94.7034V35.1253H93.0557Z" fill="white"/>
<path id="Vector_11" d="M104.38 32.1067L106.082 32.3098C105.813 33.2692 105.316 34.0133 104.59 34.5429C103.864 35.0725 102.936 35.3373 101.808 35.3373C100.386 35.3373 99.259 34.915 98.4263 34.0703C97.5937 33.2256 97.1768 32.0417 97.1768 30.5172C97.1768 28.9927 97.5978 27.7162 98.4398 26.8447C99.2819 25.9738 100.374 25.5381 101.716 25.5381C103.059 25.5381 104.077 25.9651 104.901 26.8179C105.725 27.6713 106.137 28.872 106.137 30.4193C106.137 30.5131 106.133 30.6546 106.127 30.843H98.8784C98.939 31.8727 99.2414 32.6611 99.7844 33.2088C100.327 33.7559 101.004 34.0301 101.816 34.0301C102.42 34.0301 102.936 33.8772 103.363 33.5708C103.79 33.2651 104.129 32.7764 104.379 32.1053L104.38 32.1067ZM98.9706 29.5377H104.398C104.325 28.7493 104.117 28.158 103.776 27.7632C103.251 27.1511 102.571 26.8454 101.735 26.8454C100.978 26.8454 100.342 27.0894 99.8262 27.5781C99.3102 28.0668 99.0252 28.7198 98.9706 29.5377Z" fill="white"/>
<path id="Vector_12" d="M114.506 35.1253V22.1846H119.567C120.457 22.1846 121.137 22.2261 121.608 22.3079C122.266 22.4139 122.819 22.6156 123.264 22.9126C123.709 23.2096 124.068 23.6266 124.339 24.1616C124.611 24.6972 124.747 25.2859 124.747 25.9274C124.747 27.0282 124.384 27.9594 123.658 28.721C122.931 29.4832 121.62 29.864 119.722 29.864H116.281V35.1253H114.505H114.506ZM116.281 28.3375H119.75C120.897 28.3375 121.711 28.1317 122.194 27.7194C122.675 27.3078 122.917 26.7279 122.917 25.9804C122.917 25.4394 122.774 24.9755 122.491 24.59C122.207 24.2045 121.833 23.9497 121.37 23.8264C121.071 23.75 120.518 23.7117 119.713 23.7117H116.281V28.3375Z" fill="white"/>
<path id="Vector_13" d="M127.229 35.1253V22.1846H128.877V35.1253H127.229Z" fill="white"/>
<path id="Vector_14" d="M138.242 33.9684C137.631 34.4685 137.044 34.8218 136.48 35.0276C135.915 35.2334 135.31 35.3367 134.663 35.3367C133.595 35.3367 132.775 35.0853 132.201 34.5818C131.628 34.0783 131.341 33.4361 131.341 32.6531C131.341 32.1938 131.449 31.7748 131.666 31.3954C131.882 31.0159 132.166 30.7116 132.517 30.4816C132.868 30.2523 133.263 30.0787 133.702 29.9607C134.025 29.8783 134.514 29.7992 135.166 29.7221C136.497 29.5692 137.476 29.3869 138.104 29.175C138.11 28.9571 138.114 28.819 138.114 28.76C138.114 28.1124 137.958 27.6566 137.647 27.3917C137.226 27.0331 136.6 26.8534 135.771 26.8534C134.996 26.8534 134.423 26.9841 134.054 27.2463C133.685 27.5084 133.412 27.9716 133.235 28.6367L131.624 28.4248C131.771 27.7598 132.012 27.2228 132.347 26.8139C132.683 26.4049 133.168 26.0898 133.802 25.8693C134.437 25.6487 135.172 25.5381 136.008 25.5381C136.844 25.5381 137.512 25.6326 138.031 25.8203C138.549 26.0087 138.931 26.2454 139.175 26.531C139.418 26.8165 139.589 27.1766 139.687 27.6123C139.742 27.8832 139.769 28.3712 139.769 29.0778V31.1963C139.769 32.6732 139.804 33.6077 139.874 33.9992C139.944 34.3907 140.083 34.7655 140.291 35.1248H138.57C138.399 34.795 138.289 34.4095 138.241 33.9684H138.242ZM138.104 30.42C137.506 30.6553 136.609 30.8557 135.414 31.02C134.737 31.1145 134.257 31.2204 133.977 31.3377C133.696 31.4557 133.48 31.6273 133.327 31.8539C133.174 32.0805 133.098 32.3319 133.098 32.6088C133.098 33.0325 133.264 33.3858 133.596 33.668C133.929 33.9503 134.415 34.0917 135.056 34.0917C135.697 34.0917 136.255 33.9577 136.749 33.6902C137.244 33.4227 137.607 33.056 137.839 32.5914C138.016 32.2327 138.104 31.7031 138.104 31.0025V30.42Z" fill="white"/>
<path id="Vector_15" d="M142.718 38.7356L142.535 37.244C142.895 37.3378 143.209 37.3854 143.478 37.3854C143.843 37.3854 144.136 37.3264 144.356 37.2091C144.576 37.0911 144.755 36.9269 144.896 36.715C145 36.5561 145.168 36.1619 145.399 35.5324C145.43 35.4439 145.479 35.3146 145.546 35.1443L141.857 25.752H143.633L145.656 31.1809C145.918 31.8694 146.153 32.5934 146.361 33.3523C146.55 32.6229 146.776 31.9103 147.038 31.2164L149.115 25.752H150.763L147.065 35.2857C146.669 36.3155 146.361 37.0247 146.141 37.4129C145.848 37.9365 145.513 38.3206 145.134 38.5647C144.755 38.8087 144.304 38.9307 143.779 38.9307C143.462 38.9307 143.108 38.8657 142.718 38.7363L142.718 38.7356Z" fill="white"/>
</g>
<g id="Group_5">
<path id="Vector_16" d="M49.7704 12.892V15.8358H49.2847L49.0907 15.1412C48.6266 15.693 48.0061 15.9685 47.2288 15.9685C46.4083 15.9685 45.7461 15.7044 45.2415 15.1761C44.737 14.6478 44.4844 13.9566 44.4844 13.1032C44.4844 12.2498 44.7336 11.5519 45.2335 10.9955C45.7326 10.4384 46.4164 10.1602 47.2853 10.1602C47.6848 10.1602 48.0573 10.2265 48.4022 10.3593C48.7478 10.492 49.0415 10.7005 49.2847 10.9841C49.5272 11.2677 49.6653 11.6022 49.6976 11.9877H48.9526C48.8933 11.6236 48.7108 11.3307 48.4063 11.1094C48.1011 10.8882 47.7279 10.7776 47.2853 10.7776C46.6595 10.7776 46.1631 10.9848 45.7959 11.3984C45.4288 11.812 45.2456 12.3732 45.2456 13.0811C45.2456 13.789 45.4288 14.3327 45.7959 14.7444C46.1631 15.1553 46.6568 15.3611 47.2773 15.3611C47.86 15.3611 48.3039 15.1909 48.609 14.8496C48.9142 14.5091 49.0745 14.0572 49.0907 13.4947H47.2449V12.8934H49.7704V12.892Z" fill="white"/>
<path id="Vector_17" d="M55.1046 10.2764V10.9166H51.8745V12.6576H54.8937V13.2744H51.8745V15.1951H55.145V15.8353H51.1133V10.2764H55.1039H55.1046Z" fill="white"/>
<path id="Vector_18" d="M60.2614 10.2764V10.9166H58.3267V15.8353H57.5655V10.9166H55.6309V10.2764H60.2614Z" fill="white"/>
<path id="Vector_19" d="M64.3579 10.2764V15.8353H63.5967V10.2764H64.3579Z" fill="white"/>
<path id="Vector_20" d="M69.862 10.2764V10.9166H67.9273V15.8353H67.1661V10.9166H65.2314V10.2764H69.862Z" fill="white"/>
<path id="Vector_21" d="M75.5933 10.1436C76.4677 10.1436 77.1474 10.4077 77.6331 10.936C78.1187 11.4642 78.3619 12.1554 78.3619 13.0088C78.3619 13.8623 78.1214 14.5756 77.6411 15.1327C77.1608 15.6898 76.4805 15.968 75.6014 15.968C75.1534 15.968 74.7512 15.8902 74.3949 15.734C74.0385 15.5778 73.7489 15.362 73.5246 15.0858C73.3002 14.8102 73.1305 14.4951 73.0146 14.1412C72.8987 13.7872 72.8408 13.4044 72.8408 12.9934C72.8408 12.1239 73.0901 11.4321 73.5899 10.9165C74.0891 10.401 74.7566 10.1436 75.5933 10.1436ZM75.5933 10.7838C74.9513 10.7838 74.4589 11.001 74.116 11.4354C73.7731 11.8698 73.602 12.4075 73.602 13.0477C73.602 13.7456 73.7839 14.3007 74.1483 14.7144C74.5128 15.128 74.9998 15.3351 75.6095 15.3351C76.2191 15.3351 76.6967 15.1273 77.0584 14.7103C77.4202 14.294 77.6007 13.7396 77.6007 13.0471C77.6007 12.3545 77.4188 11.8108 77.0544 11.3999C76.69 10.9889 76.2029 10.7831 75.5933 10.7831V10.7838Z" fill="white"/>
<path id="Vector_22" d="M79.4873 10.2764H80.3213L83.3647 14.7895V10.2764H84.1017V15.8353H83.2435L80.2162 11.3772V15.8353H79.4873V10.2764Z" fill="white"/>
</g>
</g>
</g>
</svg>
