<svg width="18" height="19" viewBox="0 0 18 19" fill="none" xmlns="http://www.w3.org/2000/svg">
<g id="Frame 133838">
<g id="Group 131287">
<path id="Vector" d="M14.3556 7.10841C14.1785 4.38191 11.7215 2.09473 8.98056 2.09473H8.94095C7.51953 2.10656 6.18355 2.67161 5.17836 3.68743C4.15996 4.71436 3.59961 6.07668 3.59961 7.52332C3.59961 12.1528 8.47374 16.78 8.68094 16.9745C8.76639 17.0548 8.87567 17.0947 8.98459 17.0947C9.09351 17.0947 9.20243 17.0548 9.28751 16.9745C9.50021 16.7741 14.3688 12.152 14.3688 7.52517C14.3688 7.38576 14.3648 7.24708 14.3556 7.10878V7.10841ZM8.98459 9.96397C7.64935 9.96397 6.56311 8.86863 6.56311 7.52221C6.56311 6.17579 7.64935 5.08045 8.98459 5.08045C10.3198 5.08045 11.4053 6.17579 11.4053 7.52221C11.4053 8.86863 10.3191 9.96397 8.98459 9.96397Z" fill="#2C2C2C"/>
</g>
</g>
</svg>
