<svg width="137" height="137" viewBox="0 0 137 137" fill="none" xmlns="http://www.w3.org/2000/svg">
<g id="Group 146201">
<g id="Rectangle 42411">
<path d="M0 48C0 25.3726 0 14.0589 7.02944 7.02944C14.0589 0 25.3726 0 48 0H89C111.627 0 122.941 0 129.971 7.02944C137 14.0589 137 25.3726 137 48V89C137 111.627 137 122.941 129.971 129.971C122.941 137 111.627 137 89 137H48C25.3726 137 14.0589 137 7.02944 129.971C0 122.941 0 111.627 0 89V48Z" fill="#EBFBFF"/>
<path d="M0.5 48C0.5 36.6722 0.501062 28.2266 1.37422 21.7321C2.24545 15.252 3.97666 10.7893 7.38299 7.38299C10.7893 3.97666 15.252 2.24545 21.7321 1.37422C28.2266 0.501062 36.6722 0.5 48 0.5H89C100.328 0.5 108.773 0.501062 115.268 1.37422C121.748 2.24545 126.211 3.97666 129.617 7.38299C133.023 10.7893 134.755 15.252 135.626 21.7321C136.499 28.2266 136.5 36.6722 136.5 48V89C136.5 100.328 136.499 108.773 135.626 115.268C134.755 121.748 133.023 126.211 129.617 129.617C126.211 133.023 121.748 134.755 115.268 135.626C108.773 136.499 100.328 136.5 89 136.5H48C36.6722 136.5 28.2266 136.499 21.7321 135.626C15.252 134.755 10.7893 133.023 7.38299 129.617C3.97666 126.211 2.24545 121.748 1.37422 115.268C0.501062 108.773 0.5 100.328 0.5 89V48Z" stroke="black" stroke-opacity="0.09"/>
</g>
<g id="Group">
<path id="Vector" d="M68.1935 104.308C48.2375 104.308 32 88.0908 32 68.1541C32 48.2174 48.2351 32 68.1935 32C88.1519 32 104.387 48.2174 104.387 68.1541C104.387 88.0908 88.1519 104.308 68.1935 104.308ZM68.1935 34.6904C49.722 34.6904 34.6933 49.7027 34.6933 68.1541C34.6933 86.6055 49.722 101.618 68.1935 101.618C86.665 101.618 101.694 86.6055 101.694 68.1541C101.694 49.7027 86.665 34.6904 68.1935 34.6904Z" fill="#214052"/>
<path id="Vector_2" d="M48.1291 97.9613C47.7712 97.9613 47.4134 97.8188 47.1474 97.5363C46.6397 96.9953 46.6663 96.1452 47.2103 95.6356L55.7183 87.6682C55.9673 87.4339 56.2962 87.3035 56.6395 87.3035H73.2252L93.2174 70.376C90.8529 69.1371 87.9081 69.4172 85.7998 71.1948L79.0229 76.9185C78.7787 77.1238 78.4716 77.2373 78.1549 77.2373H51.6928L39.563 87.6851C38.9997 88.1681 38.1511 88.1077 37.6651 87.545C37.1791 86.9823 37.2444 86.1346 37.8053 85.6491L50.3147 74.8754C50.5589 74.6653 50.8708 74.5493 51.1947 74.5493H77.6665L84.0687 69.1419C87.5164 66.2317 92.5574 66.1858 96.0558 69.0381C96.4209 69.3351 96.6361 69.7771 96.6409 70.2504C96.6457 70.7238 96.4426 71.173 96.0824 71.4797L74.596 89.6727C74.3518 89.878 74.0447 89.9915 73.7256 89.9915H57.1786L49.0599 97.5967C48.8012 97.8406 48.47 97.9613 48.1387 97.9613H48.1291Z" fill="#214052"/>
<path id="Vector_3" d="M61.4503 83.5866C60.7153 83.5866 60.1157 82.9973 60.1036 82.2607C60.094 81.5193 60.6887 80.9082 61.431 80.8986L70.275 80.7802L77.2792 74.8656C77.8449 74.385 78.6936 74.4575 79.1747 75.025C79.6534 75.5926 79.5833 76.4403 79.0152 76.9185L71.6411 83.1446C71.4041 83.3451 71.1019 83.4586 70.79 83.4634L61.4624 83.5866H61.443H61.4503Z" fill="#214052"/>
<path id="Vector_4" d="M60.8097 60.1311C60.2343 60.1311 59.7217 59.764 59.5356 59.2206L58.1816 55.2478L54.2045 53.8953C53.6581 53.7094 53.293 53.1974 53.293 52.6226C53.293 52.0478 53.6605 51.5358 54.2045 51.3498L58.1816 49.9974L59.5356 46.0245C59.7217 45.4787 60.2343 45.114 60.8097 45.114C61.3851 45.114 61.8977 45.4811 62.0839 46.0245L63.4378 49.9974L67.415 51.3498C67.9614 51.5358 68.3265 52.0478 68.3265 52.6226C68.3265 53.1974 67.959 53.7094 67.415 53.8953L63.4378 55.2478L62.0839 59.2206C61.8977 59.7664 61.3851 60.1311 60.8097 60.1311ZM58.8151 52.6226L59.6758 52.9148C60.0723 53.05 60.3818 53.3592 60.5148 53.7553L60.8073 54.615L61.1023 53.7553C61.2352 53.3592 61.5471 53.05 61.9412 52.9148L62.8019 52.6226L61.9412 52.3303C61.5447 52.1951 61.2352 51.886 61.1023 51.4899L60.8073 50.6301L60.5148 51.4899C60.3818 51.8835 60.0699 52.1951 59.6758 52.3303L58.8151 52.6226Z" fill="#214052"/>
<path id="Vector_5" d="M74.3664 70.4484C73.7909 70.4484 73.2784 70.0813 73.0922 69.5379L71.7383 65.565L67.7611 64.2126C67.2147 64.0266 66.8496 63.5146 66.8496 62.9398C66.8496 62.365 67.2171 61.853 67.7611 61.6671L71.7383 60.3146L73.0922 56.3418C73.2784 55.796 73.7909 55.4313 74.3664 55.4313C74.9418 55.4313 75.4544 55.7984 75.6405 56.3418L76.9944 60.3146L80.9716 61.6671C81.518 61.853 81.8831 62.365 81.8831 62.9398C81.8831 63.5146 81.5156 64.0266 80.9716 64.2126L76.9944 65.565L75.6405 69.5379C75.4544 70.0837 74.9418 70.4484 74.3664 70.4484ZM72.3717 62.9398L73.2324 63.2321C73.6289 63.3673 73.9384 63.6764 74.0714 64.0725L74.3664 64.9323L74.6589 64.0725C74.7919 63.6789 75.1038 63.3673 75.4979 63.2321L76.3586 62.9398L75.4979 62.6476C75.1013 62.5124 74.7919 62.2032 74.6589 61.8071L74.3664 60.9474L74.0714 61.8071C73.9384 62.2032 73.6265 62.5124 73.2324 62.6476L72.3717 62.9398Z" fill="#214052"/>
<path id="Vector_6" d="M74.3634 56.7742L75.9325 61.3725L80.5359 62.9399L75.9325 64.5049L74.3634 69.1033L72.7967 64.5049L68.1934 62.9399L72.7967 61.3725L74.3634 56.7742Z" fill="#0071DC"/>
<path id="Vector_7" d="M60.8097 46.4592L62.3764 51.0576L66.9822 52.6226L62.3764 54.1876L60.8097 58.7883L59.243 54.1876L54.6396 52.6226L59.243 51.0576L60.8097 46.4592Z" fill="#0071DC"/>
</g>
</g>
</svg>
