<svg width="31" height="31" viewBox="0 0 31 31" fill="none" xmlns="http://www.w3.org/2000/svg">
<g id="Group 133524">
<path id="Vector" d="M22.1753 30.1141H9.05988C4.48635 30.1141 0.761719 26.3935 0.761719 21.8159V8.70051C0.761719 4.12291 4.48228 0.402344 9.05988 0.402344H22.1793C26.7529 0.402344 30.4775 4.12291 30.4775 8.70051V21.82C30.4775 26.3935 26.7569 30.1181 22.1793 30.1181L22.1753 30.1141ZM9.05988 2.8069C5.81048 2.8069 3.17034 5.4511 3.17034 8.69644V21.8159C3.17034 25.0653 5.81454 27.7054 9.05988 27.7054H22.1793C25.4287 27.7054 28.0689 25.0612 28.0689 21.8159V8.70051C28.0689 5.4511 25.4247 2.81096 22.1793 2.81096H9.05988V2.8069Z" fill="#1A1A19"/>
<path id="Vector_2" d="M15.6207 23.0789C11.3106 23.0789 7.80078 19.5731 7.80078 15.2589C7.80078 10.9447 11.3066 7.43896 15.6207 7.43896C19.9349 7.43896 23.4407 10.9447 23.4407 15.2589C23.4407 19.5731 19.9349 23.0789 15.6207 23.0789ZM15.6207 9.84791C12.6349 9.84791 10.2097 12.2772 10.2097 15.2589C10.2097 18.2406 12.639 20.6699 15.6207 20.6699C18.6065 20.6699 21.0317 18.2406 21.0317 15.2589C21.0317 12.2772 18.6025 9.84791 15.6207 9.84791Z" fill="#1A1A19"/>
<path id="Vector_3" d="M23.7664 8.33256C23.0962 8.33256 22.5479 7.78828 22.5479 7.11403C22.5479 6.43978 23.0921 5.89551 23.7664 5.89551C24.4406 5.89551 24.9849 6.43978 24.9849 7.11403C24.9849 7.78828 24.4406 8.33256 23.7664 8.33256Z" fill="#1A1A19"/>
</g>
</svg>
