<svg width="26" height="26" viewBox="0 0 26 26" fill="none" xmlns="http://www.w3.org/2000/svg">
<g id="Group 132462">
<rect id="Rectangle 39171" x="0.35" y="0.644922" width="24.6915" height="24.6915" rx="12.3457" stroke="#2C2C2C" stroke-width="0.7"/>
<g id="Group">
<path id="Vector" d="M15.7012 19.4483H9.6899C7.7875 19.4483 6.2377 17.9002 6.2377 15.9961V9.98482C6.2377 8.08242 7.78586 6.53262 9.6899 6.53262H15.7012C17.6036 6.53262 19.1534 8.08079 19.1534 9.98482V15.9961C19.1534 17.8985 17.6053 19.4483 15.7012 19.4483ZM9.6899 6.9381C8.00757 6.9381 6.64132 8.30653 6.64132 9.98668V15.998C6.64132 17.6803 8.00975 19.0466 9.6899 19.0466H15.7012C17.3835 19.0466 18.7498 17.6782 18.7498 15.998V9.98668C18.7498 8.30436 17.3814 6.9381 15.7012 6.9381H9.6899Z" fill="#2C2C2C" stroke="#2C2C2C" stroke-width="0.7"/>
<path id="Vector_2" d="M12.6949 16.2254C10.9135 16.2254 9.4623 14.7758 9.4623 12.9928C9.4623 11.2096 10.9117 9.76016 12.6949 9.76016C14.4781 9.76016 15.9275 11.2096 15.9275 12.9928C15.9275 14.7759 14.4781 16.2254 12.6949 16.2254ZM12.6949 10.1619C11.1335 10.1619 9.86593 11.4317 9.86593 12.9909C9.86593 14.5502 11.1356 15.8199 12.6949 15.8199C14.2563 15.8199 15.5239 14.5501 15.5239 12.9909C15.5239 11.4316 14.2542 10.1619 12.6949 10.1619Z" fill="#2C2C2C" stroke="#2C2C2C" stroke-width="0.7"/>
<path id="Vector_3" d="M16.4284 9.46685C16.3139 9.46685 16.2201 9.3734 16.2201 9.25852C16.2201 9.14288 16.3128 9.0502 16.4284 9.0502C16.5441 9.0502 16.6368 9.14288 16.6368 9.25852C16.6368 9.37416 16.5441 9.46685 16.4284 9.46685Z" fill="#2C2C2C" stroke="#2C2C2C" stroke-width="0.7"/>
</g>
</g>
</svg>
