<svg className="fill-current" width="39" height="39" viewBox="0 0 39 39" fill="none" xmlns="http://www.w3.org/2000/svg">
<g id="033-location" clip-path="url(#clip0_249_9023)">
<g id="Location">
<g id="Group">
<path id="Vector" d="M19.5 32.6083C18.3867 32.6083 17.3107 32.2005 16.4699 31.46C12.4809 27.9466 5.78906 20.9688 5.78906 13.7109C5.78906 6.15073 11.9398 0 19.5 0C27.0602 0 33.2109 6.15073 33.2109 13.7109C33.2109 20.9688 26.519 27.9466 22.53 31.46C21.6893 32.2005 20.6133 32.6083 19.5 32.6083ZM19.5 3.04688C13.6198 3.04688 8.83594 7.83077 8.83594 13.7109C8.83594 19.9973 15.5829 26.6186 18.4837 29.1736C18.7678 29.4238 19.1287 29.5615 19.5 29.5615C19.8713 29.5615 20.2322 29.4238 20.5162 29.1736C23.4171 26.6186 30.1641 19.9973 30.1641 13.7109C30.1641 7.83077 25.3802 3.04688 19.5 3.04688Z" fill="currentColor"/>
</g>
<g id="Group_2">
<path id="Vector_2" d="M19.5 39C15.2866 39 11.3054 38.5018 8.28994 37.5972C6.73184 37.1298 5.48422 36.5681 4.58151 35.9279C3.06127 34.8496 2.74219 33.6895 2.74219 32.9063C2.74219 32.0748 3.10042 30.8489 4.80698 29.731C5.82509 29.064 7.22597 28.4892 8.97076 28.0224C9.78336 27.8051 10.6187 28.2876 10.8361 29.1004C11.0535 29.9132 10.571 30.7483 9.75815 30.9658C6.78577 31.761 5.90203 32.6612 5.79508 32.9063C5.8989 33.1428 6.7419 34.0104 9.56315 34.7936C12.2567 35.5414 15.7857 35.9531 19.5 35.9531C23.2143 35.9531 26.7433 35.5414 29.4368 34.7936C32.2582 34.0103 33.1011 33.1428 33.2049 32.9063C33.098 32.6613 32.2142 31.761 29.2418 30.9659C28.4291 30.7484 27.9465 29.9132 28.1639 29.1004C28.3813 28.2877 29.2162 27.805 30.0293 28.0225C31.774 28.4892 33.1749 29.0641 34.193 29.731C35.8996 30.8489 36.2578 32.0748 36.2578 32.9063C36.2578 33.6895 35.9387 34.8496 34.4186 35.9279C33.5159 36.5681 32.2682 37.1298 30.7101 37.5972C27.6946 38.5018 23.7134 39 19.5 39Z" fill="currentColor"/>
</g>
<g id="Group_3">
<path id="Vector_3" d="M19.5 19.8047C16.1399 19.8047 13.4062 17.071 13.4062 13.7109C13.4062 10.3508 16.1399 7.61719 19.5 7.61719C22.8601 7.61719 25.5938 10.3508 25.5938 13.7109C25.5938 17.071 22.8601 19.8047 19.5 19.8047ZM19.5 10.6641C17.82 10.6641 16.4531 12.0309 16.4531 13.7109C16.4531 15.391 17.82 16.7578 19.5 16.7578C21.18 16.7578 22.5469 15.391 22.5469 13.7109C22.5469 12.0309 21.18 10.6641 19.5 10.6641Z" fill="currentColor"/>
</g>
</g>
</g>
<defs>
<clipPath id="clip0_249_9023">
<rect width="39" height="39" fill="currentColor"/>
</clipPath>
</defs>
</svg>
