<svg width="39" height="39" viewBox="0 0 39 39" fill="none" xmlns="http://www.w3.org/2000/svg">
<path id="Vector" d="M16.4537 28.9484C14.7769 28.9484 13.1003 28.3876 11.7008 27.2655L6.70312 23.2699C6.02999 22.7317 5.89357 21.7137 6.39836 20.9961C6.90315 20.2785 7.85797 20.1329 8.53117 20.6712L13.5306 24.6682C15.2521 26.0485 17.6542 26.0485 19.3739 24.6695L24.375 20.6712C25.048 20.1329 26.0029 20.2785 26.5078 20.9961C27.0126 21.7137 26.8761 22.7317 26.203 23.2699L21.2037 27.2668C19.8058 28.3877 18.1297 28.9484 16.4537 28.9484ZM32.9062 28.6294V20.0987C32.9062 14.7254 28.8058 10.3539 23.7656 10.3539H9.14062C4.10048 10.3539 0 14.7254 0 20.0987V28.6295C0 34.0028 4.10048 38.3743 9.14062 38.3743H23.7656C28.8058 38.3742 32.9062 34.0027 32.9062 28.6294ZM23.7656 13.6021C27.1257 13.6021 29.8594 16.5165 29.8594 20.0987V28.6295C29.8594 32.2117 27.1257 35.126 23.7656 35.126H9.14062C5.78053 35.126 3.04688 32.2117 3.04688 28.6295V20.0987C3.04688 16.5165 5.78053 13.6021 9.14062 13.6021H23.7656ZM39 22.7785V10.1103C39 4.73699 34.8995 0.365479 29.8594 0.365479H15.2344C12.242 0.365479 9.43465 1.93147 7.72467 4.5546C7.24448 5.29114 7.41526 6.30322 8.10621 6.81515C8.79701 7.32699 9.74642 7.14492 10.2266 6.40838C11.3674 4.65846 13.2394 3.61374 15.2344 3.61374H29.8594C33.2195 3.61374 35.9531 6.52808 35.9531 10.1103V22.7785C35.9531 23.6755 36.6352 24.4026 37.4766 24.4026C38.318 24.4026 39 23.6755 39 22.7785Z" fill="currentColor"/>
</svg>
