<svg width="137" height="137" viewBox="0 0 137 137" fill="none" xmlns="http://www.w3.org/2000/svg">
<g id="Group 146200">
<g id="Rectangle 45892">
<path d="M0 48C0 25.3726 0 14.0589 7.02944 7.02944C14.0589 0 25.3726 0 48 0H89C111.627 0 122.941 0 129.971 7.02944C137 14.0589 137 25.3726 137 48V89C137 111.627 137 122.941 129.971 129.971C122.941 137 111.627 137 89 137H48C25.3726 137 14.0589 137 7.02944 129.971C0 122.941 0 111.627 0 89V48Z" fill="#EBFBFF"/>
<path d="M0.5 48C0.5 36.6722 0.501062 28.2266 1.37422 21.7321C2.24545 15.252 3.97666 10.7893 7.38299 7.38299C10.7893 3.97666 15.252 2.24545 21.7321 1.37422C28.2266 0.501062 36.6722 0.5 48 0.5H89C100.328 0.5 108.773 0.501062 115.268 1.37422C121.748 2.24545 126.211 3.97666 129.617 7.38299C133.023 10.7893 134.755 15.252 135.626 21.7321C136.499 28.2266 136.5 36.6722 136.5 48V89C136.5 100.328 136.499 108.773 135.626 115.268C134.755 121.748 133.023 126.211 129.617 129.617C126.211 133.023 121.748 134.755 115.268 135.626C108.773 136.499 100.328 136.5 89 136.5H48C36.6722 136.5 28.2266 136.499 21.7321 135.626C15.252 134.755 10.7893 133.023 7.38299 129.617C3.97666 126.211 2.24545 121.748 1.37422 115.268C0.501062 108.773 0.5 100.328 0.5 89V48Z" stroke="black" stroke-opacity="0.09"/>
</g>
<g id="Group">
<g id="Group_2">
<path id="Vector" d="M74.4002 99.1924H63.46C60.0171 99.1924 57.1328 96.7194 56.6081 93.3117C55.907 88.7761 54.1952 86.3248 52.3795 83.7285C50.1044 80.4754 47.752 77.1087 47.752 69.9021C47.752 58.2371 57.2513 48.7482 68.9289 48.7482C80.6066 48.7482 90.1059 58.2371 90.1059 69.9021C90.1059 77.1087 87.7534 80.473 85.4783 83.7285C83.665 86.3248 81.9533 88.7737 81.2521 93.3117C80.7275 96.7194 77.8431 99.1924 74.4002 99.1924ZM68.9289 51.3468C58.685 51.3468 50.351 59.6717 50.351 69.9021C50.351 76.2924 52.3723 79.1809 54.5095 82.2408C56.4147 84.9651 58.3827 87.7811 59.1758 92.9132C59.5046 95.0457 61.3058 96.5938 63.4576 96.5938H74.3978C76.5496 96.5938 78.3508 95.0457 78.6796 92.9132C79.4727 87.7811 81.4407 84.9626 83.3458 82.2408C85.4831 79.1809 87.5044 76.2924 87.5044 69.9021C87.5044 59.6717 79.1704 51.3468 68.9289 51.3468Z" fill="#214052"/>
<g id="Group_3">
<path id="Vector_2" d="M68.7724 42.5099C68.0544 42.5099 67.4717 41.9279 67.4717 41.2106V29.2993C67.4717 28.582 68.0544 28 68.7724 28C69.4905 28 70.0732 28.582 70.0732 29.2993V41.213C70.0732 41.9303 69.4905 42.5124 68.7724 42.5124V42.5099Z" fill="#214052"/>
<g id="Group_4">
<path id="Vector_3" d="M89.741 51.057C89.4073 51.057 89.0761 50.929 88.8222 50.6754C88.3145 50.1682 88.3145 49.3447 88.8222 48.8399L97.2553 40.416C97.763 39.9089 98.585 39.9089 99.0927 40.416C99.6005 40.9232 99.6005 41.7467 99.0927 42.2515L90.6597 50.6754C90.4058 50.929 90.0722 51.057 89.741 51.057Z" fill="#214052"/>
<path id="Vector_4" d="M39.4617 101.281C39.128 101.281 38.7968 101.153 38.5429 100.9C38.0352 100.393 38.0352 99.5716 38.5429 99.0644L46.976 90.6405C47.4837 90.1333 48.3057 90.1333 48.8134 90.6405C49.3212 91.1477 49.3212 91.9688 48.8134 92.476L40.3804 100.9C40.1265 101.153 39.7929 101.281 39.4617 101.281Z" fill="#214052"/>
</g>
<g id="Group_5">
<path id="Vector_5" d="M110.336 71.9573H98.4091C97.6911 71.9573 97.1084 71.3753 97.1084 70.658C97.1084 69.9407 97.6911 69.3586 98.4091 69.3586H110.336C111.054 69.3586 111.637 69.9407 111.637 70.658C111.637 71.3753 111.054 71.9573 110.336 71.9573Z" fill="#214052"/>
<path id="Vector_6" d="M39.2274 71.9573H27.3007C26.5827 71.9573 26 71.3753 26 70.658C26 69.9407 26.5827 69.3586 27.3007 69.3586H39.2274C39.9455 69.3586 40.5282 69.9407 40.5282 70.658C40.5282 71.3753 39.9455 71.9573 39.2274 71.9573Z" fill="#214052"/>
</g>
<g id="Group_6">
<path id="Vector_7" d="M98.2873 101.33C97.9536 101.33 97.6224 101.202 97.3685 100.948L88.9355 92.5243C88.4278 92.0172 88.4278 91.196 88.9355 90.6889C89.4432 90.1817 90.2652 90.1817 90.773 90.6889L99.206 99.1127C99.7137 99.6199 99.7137 100.441 99.206 100.948C98.9522 101.202 98.6185 101.33 98.2873 101.33Z" fill="#214052"/>
<path id="Vector_8" d="M48.006 51.1029C47.6724 51.1029 47.3412 50.9749 47.0873 50.7213L38.6542 42.2974C38.1465 41.7902 38.1465 40.9691 38.6542 40.4619C39.162 39.9548 39.984 39.9548 40.4917 40.4619L48.9248 48.8858C49.4325 49.393 49.4325 50.2141 48.9248 50.7213C48.6709 50.9749 48.3373 51.1029 48.006 51.1029Z" fill="#214052"/>
</g>
</g>
<path id="Vector_9" d="M75.6022 104.82H62.2588C61.5407 104.82 60.958 104.238 60.958 103.52C60.958 102.803 61.5407 102.221 62.2588 102.221H75.6022C76.3203 102.221 76.903 102.803 76.903 103.52C76.903 104.238 76.3203 104.82 75.6022 104.82Z" fill="#214052"/>
<path id="Vector_10" d="M73.4404 110H64.415C63.6969 110 63.1143 109.418 63.1143 108.701C63.1143 107.983 63.6969 107.401 64.415 107.401H73.4404C74.1585 107.401 74.7411 107.983 74.7411 108.701C74.7411 109.418 74.1585 110 73.4404 110Z" fill="#214052"/>
</g>
<path id="Vector_11" d="M70.4043 82.1708H67.7134C67.0388 82.1708 66.49 81.6225 66.49 80.9487V78.693C66.0427 78.5505 65.6075 78.3694 65.1917 78.1544L63.5935 79.7508C63.1245 80.2145 62.3194 80.2121 61.8624 79.7508L59.9597 77.8501C59.4834 77.372 59.4834 76.5991 59.9597 76.1209L61.5578 74.5245C61.3426 74.1067 61.1613 73.6744 61.0187 73.2276H58.7605C58.0859 73.2276 57.5371 72.6794 57.5371 72.0056V69.3152C57.5371 68.6414 58.0859 68.0931 58.7605 68.0931H61.0187C61.1613 67.6463 61.3426 67.2116 61.5578 66.7962L59.9597 65.1998C59.4858 64.7216 59.4858 63.9488 59.9597 63.4706L61.8649 61.5675C62.3218 61.1062 63.1293 61.1038 63.5935 61.5675L65.1917 63.1639C65.6075 62.949 66.0427 62.7678 66.49 62.6253V60.3696C66.49 59.6958 67.0388 59.1476 67.7134 59.1476H70.4043C71.0789 59.1476 71.6277 59.6958 71.6277 60.3696V62.6253C72.075 62.7678 72.5077 62.949 72.926 63.1639L74.5241 61.5675C75.0028 61.0917 75.7765 61.0917 76.2552 61.5675L78.1604 63.4706C78.6343 63.9488 78.6343 64.7216 78.1604 65.1998L76.5623 66.7962C76.7775 67.214 76.9588 67.6463 77.1014 68.0931H79.3596C80.0341 68.0931 80.583 68.6414 80.583 69.3152V72.0056C80.583 72.6794 80.0341 73.2276 79.3596 73.2276H77.1014C76.9588 73.6744 76.7799 74.1067 76.5623 74.5245L78.1604 76.1209C78.6343 76.5991 78.6343 77.372 78.1604 77.8501L76.2576 79.7532C75.7789 80.2266 75.0053 80.229 74.5265 79.7532L72.9284 78.1569C72.5126 78.3718 72.0774 78.5529 71.6301 78.6954V80.9511C71.6301 81.6249 71.0813 82.1732 70.4067 82.1732L70.4043 82.1708ZM68.1147 80.5478H70.003V78.3887C70.003 77.8453 70.3729 77.3647 70.8999 77.2174C71.4198 77.0725 71.9251 76.8624 72.3941 76.5967C72.8704 76.3286 73.4748 76.4083 73.8592 76.7923L75.3897 78.3211L76.7267 76.9855L75.1963 75.4568C74.8118 75.0728 74.7321 74.469 75.0029 73.9932C75.2688 73.5223 75.4767 73.0199 75.6242 72.4983C75.7693 71.9718 76.2528 71.6023 76.7968 71.6023H78.9583V69.7161H76.7968C76.2528 69.7161 75.7717 69.3466 75.6242 68.8177C75.4791 68.2984 75.2688 67.7961 75.0029 67.3227C74.7345 66.8493 74.8143 66.2456 75.1987 65.8616L76.7291 64.3328L75.3921 62.9973L73.8617 64.526C73.4772 64.91 72.8752 64.9897 72.3965 64.7216C71.9251 64.456 71.4222 64.2459 70.8999 64.101C70.3729 63.9536 70.003 63.473 70.003 62.9296V60.7705H68.1147V62.9296C68.1147 63.473 67.7448 63.9536 67.2177 64.101C66.6979 64.2459 66.1926 64.456 65.7236 64.7216C65.2473 64.9897 64.6428 64.91 64.2584 64.526L62.7304 62.9973L61.3934 64.3328L62.9238 65.8616C63.3083 66.2456 63.388 66.8493 63.1173 67.3251C62.8513 67.7961 62.6434 68.2984 62.4959 68.8201C62.3508 69.3466 61.8673 69.7161 61.3233 69.7161H59.1618V71.6023H61.3233C61.8673 71.6023 62.3484 71.9718 62.4959 72.4983C62.641 73.0175 62.8513 73.5199 63.1173 73.9932C63.3856 74.4666 63.3058 75.0704 62.9214 75.4544L61.391 76.9831L62.728 78.3187L64.256 76.7899C64.6404 76.4059 65.2425 76.3262 65.7212 76.5943C66.1926 76.86 66.6955 77.0676 67.2177 77.215C67.7448 77.3623 68.1147 77.8429 68.1147 78.3863V80.5454V80.5478ZM77.1885 72.9354C77.1885 72.9354 77.1885 72.9354 77.1885 72.9378C77.1885 72.9378 77.1885 72.9378 77.1885 72.9354ZM60.9292 68.3805C60.9292 68.3805 60.9292 68.3805 60.9292 68.3829C60.9292 68.3829 60.9292 68.3829 60.9292 68.3805Z" fill="#214052"/>
<g id="Group_7">
<path id="Vector_12" d="M79.7698 72.0032V69.3128C79.7698 69.0858 79.586 68.9022 79.3587 68.9022H76.7959C76.6122 68.9022 76.455 68.7766 76.4067 68.6003C76.2399 68.0086 76.0053 67.4483 75.7104 66.9243C75.6185 66.7625 75.6427 66.5644 75.7732 66.434L77.5865 64.6227C77.7461 64.4633 77.7461 64.2024 77.5865 64.0406L75.6838 62.1399C75.5242 61.9805 75.2631 61.9805 75.1011 62.1399L73.2878 63.9513C73.1572 64.0817 72.959 64.1034 72.797 64.0141C72.2724 63.7194 71.7114 63.4852 71.1191 63.3185C70.9426 63.2678 70.8169 63.1132 70.8169 62.9297V60.3697C70.8169 60.1427 70.6331 59.9591 70.4059 59.9591H67.7125C67.4852 59.9591 67.3015 60.1427 67.3015 60.3697V62.9297C67.3015 63.1132 67.1758 63.2702 66.9993 63.3185C66.4069 63.4852 65.846 63.7194 65.3214 64.0141C65.1594 64.1058 64.9611 64.0817 64.8306 63.9513L63.0173 62.1399C62.8577 61.9805 62.5966 61.9805 62.4346 62.1399L60.5318 64.0406C60.3723 64.2 60.3723 64.4609 60.5318 64.6227L62.3451 66.434C62.4757 66.5644 62.4974 66.7625 62.408 66.9243C62.113 67.4483 61.8785 68.0086 61.7117 68.6003C61.6609 68.7766 61.5062 68.9022 61.3224 68.9022H58.7596C58.5324 68.9022 58.3486 69.0858 58.3486 69.3128V72.0032C58.3486 72.2302 58.5324 72.4138 58.7596 72.4138H61.3224C61.5062 72.4138 61.6633 72.5394 61.7117 72.7157C61.8785 73.3074 62.113 73.8677 62.408 74.3918C62.4999 74.5536 62.4757 74.7516 62.3451 74.882L60.5318 76.6934C60.3723 76.8528 60.3723 77.1136 60.5318 77.2754L62.4346 79.1761C62.5942 79.3355 62.8553 79.3355 63.0173 79.1761L64.8306 77.3648C64.9611 77.2343 65.1594 77.2126 65.3214 77.302C65.846 77.5966 66.4069 77.8309 66.9993 77.9975C67.1758 78.0482 67.3015 78.2028 67.3015 78.3863V80.9464C67.3015 81.1734 67.4852 81.3569 67.7125 81.3569H70.4059C70.6331 81.3569 70.8169 81.1734 70.8169 80.9464V78.3863C70.8169 78.2028 70.9426 78.0458 71.1191 77.9975C71.7114 77.8309 72.2724 77.5966 72.797 77.302C72.959 77.2102 73.1572 77.2343 73.2878 77.3648L75.1011 79.1761C75.2607 79.3355 75.5218 79.3355 75.6838 79.1761L77.5865 77.2754C77.7461 77.116 77.7461 76.8552 77.5865 76.6934L75.7732 74.882C75.6427 74.7516 75.6209 74.5536 75.7104 74.3918C76.0053 73.8677 76.2399 73.3074 76.4067 72.7157C76.4575 72.5394 76.6122 72.4138 76.7959 72.4138H79.3587C79.586 72.4138 79.7698 72.2302 79.7698 72.0032Z" fill="#0071DC"/>
<path id="Vector_13" d="M70.4039 82.009H67.713C67.1279 82.009 66.6516 81.5332 66.6516 80.9487V78.5723C66.1342 78.4153 65.6337 78.2076 65.1598 77.954L63.4771 79.6349C63.0709 80.0382 62.3746 80.0334 61.9757 79.6349L60.0729 77.7342C59.6595 77.3213 59.6595 76.6474 60.0729 76.2345L61.7557 74.5535C61.4994 74.0778 61.2939 73.5778 61.1367 73.0634H58.7577C58.1726 73.0634 57.6963 72.5877 57.6963 72.0032V69.3128C57.6963 68.7283 58.1726 68.2525 58.7577 68.2525H61.1367C61.2939 67.7381 61.5018 67.2382 61.7557 66.7624L60.0729 65.0815C59.6595 64.6685 59.6595 63.9947 60.0729 63.5817L61.9781 61.6786C62.3746 61.2801 63.0758 61.2777 63.4771 61.6786L65.1598 63.3595C65.6337 63.106 66.1342 62.8983 66.6516 62.7413V60.3672C66.6516 59.7828 67.1279 59.307 67.713 59.307H70.4039C70.989 59.307 71.4653 59.7828 71.4653 60.3672V62.7413C71.9803 62.8983 72.4807 63.1035 72.957 63.3595L74.6398 61.6786C75.0532 61.2657 75.7302 61.2657 76.1412 61.6786L78.0464 63.5817C78.4598 63.9947 78.4598 64.6685 78.0464 65.0815L76.3636 66.7624C76.6199 67.2382 76.8254 67.7381 76.9826 68.2525H79.3592C79.9443 68.2525 80.4206 68.7283 80.4206 69.3128V72.0032C80.4206 72.5877 79.9443 73.0634 79.3592 73.0634H76.9801C76.823 73.5778 76.6151 74.0778 76.3612 74.5535L78.044 76.2345C78.4574 76.6474 78.4574 77.3213 78.044 77.7342L76.1388 79.6373C75.7253 80.0503 75.0484 80.0503 74.6374 79.6373L72.9546 77.9564C72.4807 78.21 71.9803 78.4177 71.4629 78.5747V80.9512C71.4629 81.5356 70.9866 82.0114 70.4015 82.0114L70.4039 82.009ZM67.9499 80.7096H70.1646V78.3863C70.1646 77.9154 70.4837 77.4976 70.9431 77.372C71.4774 77.2222 71.9924 77.0097 72.4735 76.7368C72.8893 76.5025 73.4116 76.5726 73.7428 76.9059L75.3869 78.5481L76.9536 76.9831L75.3095 75.3409C74.9758 75.0076 74.9082 74.4859 75.1427 74.0729C75.4135 73.5899 75.6286 73.0755 75.7785 72.5418C75.9067 72.0853 76.3225 71.7665 76.794 71.7665H79.1198V69.5543H76.794C76.3225 69.5543 75.9043 69.2331 75.7785 68.7766C75.6286 68.2453 75.4135 67.7285 75.1427 67.2454C74.9082 66.8349 74.9783 66.3108 75.3119 65.9775L76.956 64.3352L75.3893 62.7703L73.7452 64.4125C73.4116 64.7458 72.8918 64.8159 72.4759 64.5816C71.9924 64.3087 71.4774 64.0962 70.9431 63.9464C70.4837 63.8184 70.1646 63.4006 70.1646 62.9321V60.6112H67.9499V62.9321C67.9499 63.403 67.6308 63.8208 67.1714 63.9464C66.6371 64.0962 66.1221 64.3087 65.641 64.5816C65.2227 64.8134 64.7005 64.7458 64.3717 64.4125L62.7276 62.7703L61.1609 64.3352L62.805 65.9775C63.1386 66.3108 63.2063 66.8325 62.9718 67.2454C62.701 67.7261 62.4858 68.2429 62.3359 68.7766C62.2078 69.2331 61.7919 69.5543 61.3205 69.5543H58.9946V71.7665H61.3205C61.7919 71.7665 62.2102 72.0853 62.3359 72.5442C62.4858 73.0755 62.701 73.5923 62.9718 74.0754C63.2063 74.4859 63.1362 75.01 62.8025 75.3433L61.1585 76.9856L62.7252 78.5505L64.3692 76.9083C64.7005 76.575 65.2203 76.505 65.6385 76.7392C66.1221 77.0121 66.6371 77.2247 67.1714 77.3744C67.6308 77.5024 67.9499 77.9202 67.9499 78.3887V80.7121V80.7096Z" fill="#214052"/>
</g>
</g>
</g>
</svg>
