<svg width="47" height="46" viewBox="0 0 47 46" fill="none" xmlns="http://www.w3.org/2000/svg">
<g id="Group 134290">
<path id="Vector" d="M9.12764 10.3888C9.12764 10.9471 9.58058 11.4 10.1388 11.4C10.6971 11.4 11.15 10.9471 11.15 10.3888V4.11118C11.15 3.55293 10.6971 3.1 10.1388 3.1H3.86118C3.30293 3.1 2.85 3.55293 2.85 4.11118C2.85 4.66942 3.30293 5.12236 3.86118 5.12236H9.12764V10.3888Z" fill="#2C2C2C" stroke="#2C2C2C" stroke-width="0.3"/>
<g id="Group">
<path id="Vector_2" d="M2.05641 31.8484L2.05623 31.8493L4.10946 22.3585L2.05641 31.8484ZM24.0211 23.5486L25.6515 31.0792H4.21474L5.84515 23.5486H24.0211Z" fill="#2C2C2C" stroke="#2C2C2C" stroke-width="0.3"/>
<path id="Vector_3" d="M5.0375 44.4181C5.0375 44.9587 5.47215 45.3997 6.01096 45.3997C6.54977 45.3997 6.98442 44.9587 6.98442 44.4181V32.6929C6.98442 32.1524 6.54977 31.7113 6.01096 31.7113C5.47215 31.7113 5.0375 32.1524 5.0375 32.6929V44.4181Z" fill="#2C2C2C" stroke="#2C2C2C" stroke-width="0.3"/>
<path id="Vector_4" d="M23.4369 44.4181C23.4369 44.9587 23.8716 45.3997 24.4104 45.3997C24.9492 45.3997 25.3838 44.9587 25.3838 44.4181V32.6929C25.3838 32.1524 24.9492 31.7113 24.4104 31.7113C23.8716 31.7113 23.4369 32.1524 23.4369 32.6929V44.4181Z" fill="#2C2C2C" stroke="#2C2C2C" stroke-width="0.3"/>
<path id="Vector_5" d="M14.2377 44.4182C14.2377 44.9587 14.6723 45.3998 15.2112 45.3998C15.75 45.3998 16.1846 44.9587 16.1846 44.4182V37.6412C16.1846 37.1006 15.75 36.6596 15.2112 36.6596C14.6723 36.6596 14.2377 37.1006 14.2377 37.6412V44.4182Z" fill="#2C2C2C" stroke="#2C2C2C" stroke-width="0.3"/>
<path id="Vector_6" d="M2.30002 45.3996H27.9652C28.504 45.3996 28.9386 44.9586 28.9386 44.418C28.9386 43.8775 28.504 43.4364 27.9652 43.4364H2.30002C1.76121 43.4364 1.32656 43.8775 1.32656 44.418C1.32656 44.9586 1.76121 45.3996 2.30002 45.3996Z" fill="#2C2C2C" stroke="#2C2C2C" stroke-width="0.3"/>
<path id="Vector_7" d="M9.85586 31.7372C9.85586 32.2777 10.2905 32.7188 10.8293 32.7188C11.3681 32.7188 11.8028 32.2777 11.8028 31.7372V28.7081C11.8028 28.1675 11.3681 27.7265 10.8293 27.7265C10.2905 27.7265 9.85586 28.1675 9.85586 28.7081V31.7372Z" fill="#2C2C2C" stroke="#2C2C2C" stroke-width="0.3"/>
<path id="Vector_8" d="M18.4633 31.7372C18.4633 32.2777 18.8979 32.7188 19.4367 32.7188C19.9756 32.7188 20.4102 32.2777 20.4102 31.7372V28.7081C20.4102 28.1675 19.9756 27.7265 19.4367 27.7265C18.8979 27.7265 18.4633 28.1675 18.4633 28.7081V31.7372Z" fill="#2C2C2C" stroke="#2C2C2C" stroke-width="0.3"/>
</g>
<path id="Vector_9" d="M1.15548 13.1227L1.15681 13.124C1.35303 13.3067 1.60801 13.4 1.85871 13.4C2.11737 13.4 2.38278 13.3026 2.58071 13.1006C2.58087 13.1004 2.58102 13.1003 2.58118 13.1001L10.8626 4.78038C10.8627 4.78032 10.8627 4.78025 10.8628 4.78019C11.2536 4.38937 11.2438 3.76019 10.8445 3.37924C10.4465 2.99949 9.80833 3.0087 9.41999 3.39688L9.4197 3.39718L1.13741 11.7216C1.13737 11.7216 1.13733 11.7217 1.1373 11.7217C0.746448 12.1125 0.756204 12.7418 1.15548 13.1227Z" fill="#2C2C2C" stroke="#2C2C2C" stroke-width="0.3"/>
<path id="Vector_10" d="M36.8612 43.4H43.1388C43.6776 43.4 44.15 43.0135 44.15 42.4965C44.15 41.9795 43.6776 41.5929 43.1388 41.5929H37.8724V37.0035C37.8724 36.4865 37.4 36.1 36.8612 36.1C36.3224 36.1 35.85 36.4865 35.85 37.0035V42.4965C35.85 43.0135 36.3224 43.4 36.8612 43.4Z" fill="#2C2C2C" stroke="#2C2C2C" stroke-width="0.3"/>
<path id="Vector_11" d="M36.1239 43.1133L36.1239 43.1133L36.1252 43.1146C36.2653 43.2597 36.4403 43.3506 36.6225 43.3829V43.4H36.7725C37.016 43.4 37.2593 43.2935 37.4375 43.0956L37.4378 43.0953L44.8925 34.7746L44.781 34.6743L44.8927 34.7744L44.8927 34.7744C45.2426 34.3854 45.2343 33.7647 44.8761 33.3849C44.5106 32.9972 43.9183 33.0072 43.5625 33.4026L43.5622 33.4029L36.1075 41.7235C36.1075 41.7236 36.1075 41.7236 36.1075 41.7236C35.7574 42.1126 35.7657 42.7334 36.1239 43.1133Z" fill="#2C2C2C" stroke="#2C2C2C" stroke-width="0.3"/>
<g id="Group_2">
<path id="Vector_12" d="M38.5466 26.7773H38.9064L38.8946 26.7655C42.926 26.5791 46.1487 23.207 46.1487 19.094V8.2493C46.1487 4.01737 42.7369 0.569727 38.5428 0.569727H26.0643C21.8702 0.569727 18.4584 4.01737 18.4584 8.2493V15.0301C18.4584 15.5706 18.893 16.0117 19.4319 16.0117C19.9707 16.0117 20.4053 15.5706 20.4053 15.0301V8.2493C20.4053 5.09465 22.9478 2.52917 26.068 2.52917H38.5466C41.6668 2.52917 44.2092 5.09465 44.2092 8.2493V19.094C44.2092 22.2486 41.6668 24.8141 38.5466 24.8141H32.3091C31.7703 24.8141 31.3357 25.2552 31.3357 25.7957C31.3357 26.3363 31.7703 26.7773 32.3091 26.7773H38.5466Z" fill="#2C2C2C" stroke="#2C2C2C" stroke-width="0.3"/>
<path id="Vector_13" d="M25.6459 9.28766C25.6459 12.9928 28.6329 16.0115 32.3053 16.0115C35.9778 16.0115 38.9648 12.9928 38.9648 9.28766C38.9648 8.74714 38.5301 8.30605 37.9913 8.30605C37.4525 8.30605 37.0178 8.74714 37.0178 9.28766C37.0178 11.9117 34.9001 14.0483 32.3053 14.0483C29.7104 14.0483 27.5928 11.9154 27.5928 9.28766C27.5928 8.74714 27.1582 8.30605 26.6194 8.30605C26.0806 8.30605 25.6459 8.74713 25.6459 9.28766Z" fill="#2C2C2C" stroke="#2C2C2C" stroke-width="0.3"/>
</g>
</g>
</svg>
