<svg className="fill-current" width="19" height="24" viewBox="0 0 19 24" fill="none" xmlns="http://www.w3.org/2000/svg">
<g id="Group 145935">
<path id="Vector" d="M14.0097 6.01075C13.9295 10.2854 11.3781 10.5249 11.3781 10.5249C12.8869 2.04794 7.04524 0.651245 7.04524 0.651245C7.04524 0.651245 8.39599 3.20879 4.48219 7.26716C2.11884 9.71811 1.02231 11.8475 1.00026 14.8448C0.972078 18.7354 3.26192 22.4917 8.97979 22.4917C14.6977 22.4917 17.314 18.9265 17.4935 14.8448C17.7673 8.61485 14.0097 6.01075 14.0097 6.01075Z" stroke="currentColor" stroke-width="1.2" stroke-linecap="round" stroke-linejoin="round"/>
<g id="Group">
<path id="Vector_2" d="M11.2402 18.2631C11.8448 18.2631 12.3349 17.7055 12.3349 17.0177C12.3349 16.3299 11.8448 15.7723 11.2402 15.7723C10.6356 15.7723 10.1455 16.3299 10.1455 17.0177C10.1455 17.7055 10.6356 18.2631 11.2402 18.2631Z" stroke="currentColor" stroke-width="1.2" stroke-linecap="round" stroke-linejoin="round"/>
<path id="Vector_3" d="M11.6958 12.4962L6.0625 18.2631" stroke="currentColor" stroke-width="1.2" stroke-linecap="round" stroke-linejoin="round"/>
<path id="Vector_4" d="M6.51852 14.9877C7.1231 14.9877 7.61321 14.4301 7.61321 13.7423C7.61321 13.0545 7.1231 12.497 6.51852 12.497C5.91394 12.497 5.42383 13.0545 5.42383 13.7423C5.42383 14.4301 5.91394 14.9877 6.51852 14.9877Z" stroke="currentColor" stroke-width="1.2" stroke-linecap="round" stroke-linejoin="round"/>
</g>
</g>
</svg>
