<svg className="fill-current" width="15" height="16" viewBox="0 0 15 16" fill="none" xmlns="http://www.w3.org/2000/svg">
<path id="Vector" d="M10.4028 11.5698C9.71106 11.9222 6.82538 10.1637 5.81115 9.09569C5.52171 8.79092 5.2582 8.4714 5.01821 8.14068C4.85844 7.92054 4.71042 7.69548 4.5727 7.46635C4.25782 6.88327 3.95968 6.21522 3.75207 5.69234C3.74353 5.66707 3.7358 5.64163 3.72759 5.61619C3.64786 5.27733 3.95034 4.88166 4.30002 4.55331C4.85779 4.18613 5.42958 3.74585 5.42958 3.4845C5.42958 3.33338 5.40703 3.14767 5.40703 3.14767C5.38335 3.02183 4.31516 0.755133 4.31516 0.755133C4.31451 0.753098 4.19919 0.458165 4.13009 0.349791C4.13009 0.349791 4.12945 0.348264 4.12929 0.348773C4.07952 0.271097 4.0254 0.205971 3.96677 0.152377C3.5604 0.0129665 2.25463 0.257868 2.25463 0.257868C1.75758 0.467154 1.23379 0.7648 0.788761 1.14199C0.765889 1.16217 0.741405 1.18354 0.714668 1.20627C0.686804 1.23086 0.659421 1.25579 0.632361 1.28106C-0.78245 2.65804 0.605788 6.48929 0.695825 6.73198C1.0732 7.70667 1.52999 8.63913 2.07439 9.50629C3.11956 11.1712 4.4883 12.5835 6.12184 13.6086C6.92637 14.1135 7.81804 14.5566 8.75738 14.8751C10.3653 15.4202 12.186 15.3242 13.5361 14.1691C13.5361 14.1691 15.0395 12.2061 14.9992 11.2757C14.9873 10.9986 14.7587 10.7839 14.5609 10.6328C14.2702 10.4106 13.9375 10.25 13.6063 10.1074C13.3267 9.98694 13.0421 9.87958 12.7547 9.78155C12.6111 9.73254 12.4666 9.68573 12.3216 9.64095C12.2036 9.60449 12.0501 9.52325 11.9273 9.55446C11.8138 9.58346 11.7006 9.61975 11.6001 9.68234C11.4533 9.77358 11.3961 9.90366 11.3172 10.0531C11.2415 10.1966 11.1642 10.3394 11.0853 10.481C10.8978 10.8175 10.7037 11.1528 10.4805 11.4645C10.455 11.4999 10.4293 11.535 10.4027 11.5696L10.4028 11.5698Z" fill="currentColor"/>
</svg>
