<svg width="26" height="26" viewBox="0 0 26 26" fill="none" xmlns="http://www.w3.org/2000/svg">
<g id="Group 132466">
<rect id="Rectangle 39175" x="0.35" y="0.644922" width="24.6915" height="24.6915" rx="12.3457" stroke="#2C2C2C" stroke-width="0.7"/>
<path id="Vector" d="M12.8883 8.74409L12.7502 8.74319C12.2023 8.73962 11.6333 8.84477 11.1264 9.03375L11.1262 9.0338C10.4428 9.28818 9.85817 9.72482 9.42525 10.3223L9.42523 10.3223C8.70643 11.3142 8.56494 12.7594 9.30796 13.6949C9.37976 13.7846 9.51689 13.935 9.64852 14.0236C9.66338 14.0336 9.67702 14.042 9.68939 14.049C9.69162 14.0399 9.69395 14.0296 9.6964 14.0181L9.69683 14.016L9.69683 14.016C9.70359 13.985 9.71076 13.9545 9.71716 13.9272L9.71838 13.922C9.72533 13.8924 9.73137 13.8664 9.73673 13.8414C9.74755 13.7907 9.75319 13.754 9.75477 13.7242C9.75731 13.6765 9.75029 13.6545 9.72885 13.6269C9.21353 12.9692 9.17478 12.1126 9.39655 11.3716C9.6179 10.632 10.1173 9.93862 10.7815 9.58542L12.8883 8.74409ZM12.8883 8.74409C13.724 8.77976 14.5449 9.08301 15.1766 9.62919L15.1767 9.62924C16.1391 10.4608 16.4001 11.7322 16.0806 13.0114L16.0805 13.0116C15.903 13.7239 15.5656 14.4021 15.0545 14.8638C14.5776 15.2945 13.9609 15.5261 13.3193 15.5261C13.0549 15.5261 12.795 15.4553 12.5813 15.3442C12.3629 15.2305 12.2209 15.09 12.1595 14.9746L11.7361 14.1788L11.5115 15.0518C11.4513 15.2858 11.4153 15.4689 11.3842 15.627C11.375 15.6741 11.3661 15.7191 11.3572 15.7625C11.3188 15.9498 11.2751 16.1305 11.1796 16.3954L11.1795 16.3957C11.0583 16.733 10.9037 17.0582 10.7195 17.3638C10.7195 17.3639 10.7195 17.3639 10.7195 17.3639L10.7112 17.3777C10.6611 17.4608 10.6131 17.5405 10.5653 17.6156C10.4894 17.1057 10.5082 16.7152 10.6375 16.1246L10.6376 16.1243C10.7556 15.583 10.8917 15.051 11.0296 14.5121C11.1048 14.2178 11.1806 13.9216 11.2542 13.6206L11.2544 13.6201C11.2565 13.6114 11.2589 13.6018 11.2616 13.5912C11.2852 13.4973 11.3266 13.3331 11.3138 13.1683L11.3138 13.1677C11.3019 13.0173 11.2664 12.872 11.2381 12.7566C11.236 12.7479 11.2339 12.7394 11.2319 12.7311C11.2004 12.6016 11.1786 12.5034 11.1741 12.4081L11.1741 12.408C11.1628 12.1721 11.1825 11.9393 11.2424 11.7255L11.2426 11.7248C11.357 11.3135 11.6179 11.0806 11.958 11.0806C12.1076 11.0806 12.1941 11.1091 12.2434 11.1372C12.2888 11.163 12.3215 11.1989 12.3469 11.2547C12.407 11.3868 12.4187 11.6149 12.3644 11.9414C12.3123 12.2549 12.211 12.597 12.1098 12.9214C12.0972 12.9616 12.0845 13.0021 12.0717 13.0426C11.988 13.3087 11.9038 13.5763 11.8751 13.7654M12.8883 8.74409L10.7816 9.58537C11.4234 9.24388 12.1687 9.03701 12.9263 9.10186C13.5476 9.15408 14.164 9.40016 14.643 9.82394L14.6431 9.82401C15.2016 10.3184 15.443 11.0045 15.443 11.7121C15.443 12.1169 15.4029 12.5094 15.324 12.8772C15.1897 13.5096 14.9425 14.0803 14.5894 14.5006C14.233 14.925 13.756 15.2073 13.1877 15.2073C12.4685 15.2073 11.7461 14.6146 11.8751 13.7654M11.8751 13.7654C11.8751 13.7654 11.8751 13.7653 11.8751 13.7652L12.2212 13.8179L11.8751 13.7654ZM15.093 11.7121C15.093 12.0941 15.0551 12.462 14.9817 12.8042L14.4111 10.0861C14.8805 10.5016 15.093 11.0843 15.093 11.7121Z" fill="#2C2C2C" stroke="#2C2C2C" stroke-width="0.7"/>
</g>
</svg>
