<svg width="46" height="45" viewBox="0 0 46 45" fill="none" xmlns="http://www.w3.org/2000/svg">
<g id="Group 134275">
<path id="Vector" d="M16.6763 29.0185C16.8421 29.1806 17.0614 29.2632 17.277 29.2632C17.4927 29.2632 17.7119 29.1806 17.8777 29.0185L29.4983 17.662C29.8319 17.3361 29.8319 16.8043 29.4983 16.4783C29.1667 16.1542 28.6286 16.1542 28.2969 16.4783L16.6763 27.8348C16.3428 28.1608 16.3428 28.6926 16.6763 29.0185Z" fill="#2C2C2C" stroke="#2C2C2C" stroke-width="0.3"/>
<path id="Vector_2" d="M25.9447 27.9791C25.9447 29.3884 27.1149 30.5271 28.5485 30.5271C29.9821 30.5271 31.1523 29.3884 31.1523 27.9791C31.1523 26.5697 29.9821 25.4311 28.5485 25.4311C27.1149 25.4311 25.9447 26.5697 25.9447 27.9791ZM27.6496 27.9791C27.6496 27.4998 28.0496 27.104 28.5485 27.104C29.0474 27.104 29.4474 27.4998 29.4474 27.9791C29.4474 28.4584 29.0474 28.8542 28.5485 28.8542C28.0496 28.8542 27.6496 28.4584 27.6496 27.9791Z" fill="#2C2C2C" stroke="#2C2C2C" stroke-width="0.3"/>
<path id="Vector_3" d="M14.9281 17.213C14.9281 18.6223 16.0983 19.761 17.5319 19.761C18.9655 19.761 20.1357 18.6223 20.1357 17.213C20.1357 15.8036 18.9655 14.6649 17.5319 14.6649C16.0983 14.6649 14.9281 15.8036 14.9281 17.213ZM16.633 17.213C16.633 16.7337 17.033 16.3379 17.5319 16.3379C18.0308 16.3379 18.4308 16.7337 18.4308 17.213C18.4308 17.6922 18.0308 18.088 17.5319 18.088C17.033 18.088 16.633 17.6922 16.633 17.213Z" fill="#2C2C2C" stroke="#2C2C2C" stroke-width="0.3"/>
<path id="Vector_4" d="M11.9209 41.5041L11.9205 41.504C11.3203 41.1642 11.0024 40.5814 10.8214 39.9156C10.6419 39.2551 10.591 38.4898 10.5422 37.7557L10.5416 37.7459L10.5416 37.7457C10.5113 37.2783 10.4767 36.7632 10.4042 36.3197C10.3679 36.0981 10.3229 35.8991 10.2662 35.7357C10.2086 35.57 10.1434 35.4541 10.0744 35.386C10.0045 35.3178 9.88534 35.2534 9.7152 35.1968C9.54743 35.141 9.34332 35.097 9.11633 35.0618C8.66197 34.9912 8.1344 34.9582 7.65605 34.9285L7.65581 34.9285L7.64549 34.9279C6.89427 34.8802 6.11147 34.8305 5.43647 34.6553C4.75689 34.479 4.16075 34.1693 3.81409 33.5815C3.47018 33.0007 3.49303 32.3469 3.67474 31.6889C3.85589 31.0331 4.20204 30.3482 4.53408 29.6915C4.53409 29.6915 4.53411 29.6915 4.53413 29.6914L4.53544 29.6888C4.75997 29.2422 4.99484 28.775 5.15702 28.3554C5.23818 28.1454 5.29929 27.9519 5.33197 27.7825C5.36501 27.6112 5.36652 27.4766 5.34004 27.3784L5.48487 27.3393M11.9209 41.5041L30.1691 40.6652C31.52 41.3175 32.9153 41.9885 34.0024 41.3734L34.076 41.5041C34.0761 41.5041 34.0762 41.504 34.0762 41.504C34.6766 41.1657 34.9944 40.5828 35.1754 39.9167C35.3548 39.2561 35.4057 38.4903 35.4545 37.7565L35.4552 37.7459L35.4553 37.7457C35.4856 37.2781 35.5194 36.763 35.5915 36.3195C35.6275 36.098 35.6724 35.8991 35.7293 35.7358C35.7869 35.5703 35.8523 35.4546 35.9218 35.3865C35.9918 35.3188 36.1112 35.2547 36.2815 35.1981C36.4494 35.1425 36.6536 35.0984 36.8806 35.0629C37.335 34.992 37.8626 34.9581 38.3408 34.9285L38.341 34.9285L38.3504 34.9279C39.1019 34.8802 39.8843 34.8305 40.5592 34.6553C41.2384 34.479 41.8343 34.1693 42.1825 33.5819C42.5268 33.0024 42.503 32.3482 42.3209 31.69C42.1407 31.0388 41.7984 30.3585 41.4702 29.7064L41.4629 29.6917L41.4628 29.6917L41.4614 29.6888C41.2369 29.2422 41.002 28.775 40.8398 28.3554C40.7586 28.1454 40.6975 27.9519 40.6649 27.7825C40.6318 27.6113 40.6303 27.4769 40.6567 27.3787C40.6801 27.2928 40.7467 27.1847 40.8623 27.0569C40.9758 26.9312 41.1265 26.7975 41.3013 26.6596C41.6505 26.3842 42.0809 26.1037 42.4725 25.8486L42.4755 25.8466L42.4756 25.8466L42.4894 25.8376C43.1224 25.4247 43.7807 24.9952 44.2803 24.5078C44.7851 24.0153 45.1468 23.4455 45.1468 22.7514C45.1468 22.0573 44.7851 21.4875 44.2803 20.995C43.7807 20.5075 43.1224 20.0781 42.4895 19.6652L42.4757 19.6563L42.4756 19.6562L42.4453 19.6363C42.0624 19.3859 41.6439 19.1122 41.3025 18.8431C41.1274 18.7052 40.9764 18.5714 40.8626 18.4458C40.7468 18.3179 40.6801 18.2098 40.6567 18.124L40.512 18.1634M11.9209 41.5041C12.5126 41.8373 13.1786 41.8145 13.8504 41.6373C14.5174 41.4613 15.2141 41.1265 15.8834 40.8048L15.8926 40.8004C16.3504 40.5807 16.8308 40.3503 17.2619 40.1913C17.4771 40.1119 17.6758 40.052 17.8498 40.0199C18.0256 39.9875 18.1645 39.9858 18.266 40.0121C18.3556 40.0354 18.4669 40.1013 18.5976 40.2144C18.7262 40.3256 18.863 40.4731 19.0041 40.6442C19.2794 40.9778 19.5594 41.3867 19.8157 41.7609L19.8359 41.7904L19.836 41.7906L19.8451 41.8039C20.2676 42.4225 20.7072 43.0661 21.2061 43.5544C21.7106 44.0482 22.2921 44.3998 22.9984 44.3998C23.7047 44.3998 24.2863 44.0482 24.7907 43.5544C25.2896 43.0661 25.7292 42.4225 26.1517 41.8039L26.1608 41.7906L26.1609 41.7904L26.1811 41.7609C26.4374 41.3867 26.7175 40.9778 26.9927 40.6442C27.1338 40.4731 27.2706 40.3256 27.3992 40.2144C27.5298 40.1014 27.641 40.0355 27.7306 40.0121C27.8331 39.9858 27.9725 39.9875 28.1484 40.0199C28.3225 40.052 28.521 40.1119 28.7361 40.1913C29.1658 40.3499 29.6442 40.5796 30.101 40.7989L30.1039 40.8003L11.9209 41.5041ZM5.48487 27.3393L5.34014 27.3788C5.31676 27.2929 5.25006 27.1849 5.13421 27.057C5.02041 26.9313 4.86946 26.7976 4.69435 26.6596C4.35289 26.3906 3.93437 26.1168 3.55148 25.8664L3.52124 25.8466L3.52108 25.8465L3.50742 25.8376C2.87444 25.4247 2.21611 24.9952 1.71649 24.5078C1.21172 24.0153 0.85 23.4455 0.85 22.7514C0.85 22.0573 1.21172 21.4875 1.71649 20.995C2.2161 20.5075 2.87443 20.0781 3.5074 19.6652L3.52108 19.6563L3.52124 19.6562L3.55144 19.6364C3.93434 19.386 4.35288 19.1122 4.69435 18.8431C4.86946 18.7052 5.02041 18.5714 5.13421 18.4458C5.25006 18.3179 5.31676 18.2098 5.34014 18.124C5.36647 18.0268 5.36502 17.8928 5.33197 17.7216C5.29929 17.5523 5.23817 17.3587 5.15701 17.1485C4.99447 16.7276 4.7589 16.2584 4.53397 15.811L4.52658 15.7963C4.19844 15.1442 3.85611 14.464 3.67595 13.8127C3.49387 13.1545 3.47005 12.5003 3.81434 11.9209C4.16257 11.3335 4.75843 11.0237 5.43764 10.8474C6.11251 10.6722 6.89487 10.6226 7.64636 10.5748L7.65581 10.5742L7.65605 10.5742C8.13418 10.5446 8.66185 10.5108 9.11621 10.4398C9.34323 10.4044 9.54743 10.3603 9.71531 10.3046C9.88578 10.2481 10.0052 10.1839 10.0751 10.1161C10.1444 10.049 10.2099 9.93382 10.2676 9.76827C10.3244 9.60512 10.3693 9.40614 10.4053 9.1844C10.4775 8.74052 10.5113 8.22466 10.5416 7.75706L10.5416 7.75681L10.5423 7.74625C10.5911 7.01245 10.642 6.24662 10.8214 5.58606C11.0024 4.91985 11.3203 4.3369 11.9208 3.99864C12.5126 3.66395 13.1786 3.68593 13.8504 3.86315C14.5205 4.03991 15.2206 4.37781 15.8927 4.70239C15.8928 4.70242 15.8929 4.70245 15.8929 4.70248L15.9173 4.7142C16.3678 4.93051 16.8378 5.15619 17.2608 5.3127C17.4759 5.39227 17.6743 5.45224 17.8483 5.48416C18.0241 5.51641 18.1633 5.51774 18.2656 5.49081L18.266 5.4907C18.3556 5.46739 18.4669 5.40143 18.5976 5.28838C18.7262 5.17713 18.863 5.02964 19.0041 4.85859C19.2794 4.52497 19.5594 4.11605 19.8157 3.74183L19.8359 3.71236L19.836 3.71219L19.8451 3.69886C20.2676 3.08024 20.7072 2.43667 21.2061 1.94832C21.7106 1.45452 22.2921 1.10293 22.9984 1.10293C23.7047 1.10293 24.2863 1.45452 24.7907 1.94832C25.2896 2.43667 25.7292 3.08024 26.1517 3.69886L26.1608 3.71219L26.1609 3.71236L26.1811 3.74183C26.4374 4.11605 26.7175 4.52497 26.9927 4.85859C27.1338 5.02964 27.2706 5.17713 27.3992 5.28838C27.5298 5.40134 27.6411 5.46729 27.7306 5.49065C27.8331 5.517 27.9725 5.51526 28.1484 5.48287C28.3225 5.45079 28.521 5.39088 28.7361 5.31149C29.1658 5.15287 29.6441 4.92322 30.101 4.70388L30.1041 4.70236L30.1042 4.70234L30.124 4.69283C30.7899 4.37277 31.4829 4.03974 32.1463 3.86433C32.8182 3.68672 33.4843 3.66388 34.0762 3.99878L34.0763 3.99879C34.6765 4.33859 34.9944 4.92131 35.1754 5.58721C35.3549 6.24765 35.4058 7.01306 35.4546 7.74712L35.4552 7.75681L35.4553 7.75706C35.4855 8.22442 35.5202 8.7396 35.5927 9.18309C35.6289 9.40465 35.6739 9.60366 35.7307 9.7671C35.7882 9.93293 35.8535 10.0489 35.9226 10.117C35.9915 10.1849 36.1101 10.2493 36.2803 10.306C36.4479 10.3617 36.6521 10.4057 36.8793 10.441C37.334 10.5115 37.8624 10.5446 38.3408 10.5742L38.341 10.5742L38.3513 10.5749C39.1025 10.6226 39.8853 10.6723 40.5604 10.8474C41.2398 11.0237 41.8359 11.3334 42.1826 11.921C42.5267 12.5019 42.503 13.156 42.3209 13.8139C42.1412 14.4631 41.8001 15.1408 41.4728 15.7913L41.4629 15.811L41.4628 15.8111L41.4614 15.8139C41.2369 16.2606 41.002 16.7278 40.8398 17.1474C40.7586 17.3574 40.6975 17.5509 40.6649 17.7203C40.6318 17.8916 40.6303 18.0262 40.6568 18.1244L40.512 18.1634M5.48487 27.3393C5.35638 26.8677 4.40905 26.2481 3.63608 25.7425L3.60319 25.721L3.94329 33.5053C3.31395 32.4429 4.00051 31.0793 4.66799 29.7591L4.6715 29.7521C5.11881 28.8623 5.62436 27.8567 5.48487 27.3393ZM40.512 18.1634C40.6404 18.6351 41.5878 19.2547 42.3607 19.7603L42.3936 19.7818L42.0535 11.9975C42.681 13.0566 41.9973 14.4152 41.3349 15.7317L41.3288 15.7436L41.3253 15.7506C40.878 16.6404 40.3725 17.646 40.512 18.1634ZM27.2928 38.3985L27.293 38.3984C27.852 38.2531 28.4503 38.3417 29.0478 38.5307C29.6408 38.7182 30.2505 39.0106 30.8398 39.2932L30.8538 39.2999L30.8539 39.2999L30.8704 39.3078C31.3305 39.5288 31.835 39.7711 32.2788 39.9295C32.5034 40.0096 32.7059 40.0658 32.8748 40.088C33.0479 40.1107 33.1622 40.0943 33.2292 40.0563C33.3005 40.0159 33.3741 39.9246 33.4418 39.7655C33.5083 39.6096 33.5609 39.4079 33.6029 39.1751C33.6869 38.7095 33.7238 38.1478 33.7574 37.6361L33.7574 37.636L33.7584 37.6201C33.8024 36.9589 33.8461 36.3014 33.9734 35.7176C34.102 35.1281 34.3193 34.5962 34.7242 34.2023C35.1268 33.8089 35.6697 33.5972 36.2713 33.4714C36.8727 33.3457 37.5507 33.3026 38.233 33.2593L38.2331 33.2593C38.7564 33.2265 39.3318 33.1896 39.809 33.107C40.0475 33.0657 40.2547 33.0141 40.4152 32.9489C40.5793 32.8823 40.6727 32.8102 40.7136 32.742C40.7512 32.6785 40.7682 32.5693 40.7453 32.4014C40.723 32.2374 40.6661 32.0403 40.5844 31.8213C40.421 31.3834 40.1693 30.8849 39.9396 30.4328L39.9393 30.4323L39.9324 30.4184C39.6433 29.8442 39.3431 29.2479 39.1506 28.6675C38.9567 28.0826 38.8653 27.4948 39.0164 26.9457C39.0164 26.9456 39.0164 26.9455 39.0165 26.9454L27.2928 38.3985ZM27.2928 38.3985C26.7544 38.5392 26.3032 38.8877 25.8973 39.3285C25.4919 39.7687 25.1202 40.3142 24.7466 40.8634C24.4513 41.297 24.1266 41.7731 23.808 42.1411C23.6487 42.3251 23.4955 42.4766 23.3529 42.5812C23.2079 42.6874 23.09 42.7331 22.9984 42.7331C22.9069 42.7331 22.7891 42.6873 22.6441 42.5808C22.5014 42.476 22.3482 42.3242 22.1889 42.14C21.8731 41.7749 21.5514 41.3041 21.2582 40.8751L21.2503 40.8635L21.2501 40.8632L27.2928 38.3985ZM41.5395 24.4552L41.5393 24.4554L18.6661 38.5436L18.7041 38.3985C18.704 38.3985 18.704 38.3985 18.7039 38.3985C18.5124 38.3483 18.3152 38.3253 18.1131 38.3253C17.6332 38.3253 17.1342 38.4537 16.6371 38.6375C16.1484 38.8181 15.6517 39.0561 15.1685 39.2877L15.1431 39.2998L15.1426 39.3001C14.6784 39.5246 14.1671 39.7708 13.7181 39.9306C13.4936 40.0105 13.2911 40.0664 13.1222 40.0884C12.9492 40.1108 12.8349 40.0944 12.7678 40.0564C12.6973 40.016 12.624 39.9248 12.5564 39.7656C12.49 39.6096 12.4373 39.4078 12.3951 39.175C12.3107 38.7094 12.273 38.1476 12.2395 37.6361L12.2395 37.636C12.1951 36.9693 12.151 36.3059 12.0222 35.7175C11.8932 35.1282 11.676 34.5966 11.2731 34.2027C10.8704 33.8075 10.3272 33.5957 9.72539 33.4702C9.12877 33.3459 8.45657 33.3032 7.77977 33.2603L7.76382 33.2593L7.76368 33.2593C7.24024 33.2265 6.66488 33.1904 6.18776 33.1082C5.94918 33.0671 5.74212 33.0155 5.58177 32.9503C5.41775 32.8836 5.32433 32.8112 5.28337 32.7423C5.24657 32.6798 5.22999 32.5714 5.25322 32.4035C5.27589 32.2397 5.33309 32.0427 5.41483 31.8236C5.57828 31.3855 5.82925 30.8862 6.05751 30.4322L6.05755 30.4321L6.06457 30.4182C6.35363 29.8424 6.65297 29.2463 6.84503 28.6663C7.03861 28.0817 7.12991 27.4947 6.98046 26.9458L6.98041 26.9456C6.83581 26.4174 6.47833 25.9759 6.02772 25.5796C5.57738 25.1835 5.01934 24.8203 4.45735 24.4552C4.01369 24.1667 3.52639 23.8492 3.14969 23.5378C2.96135 23.382 2.80632 23.2323 2.69951 23.0931C2.59062 22.9512 2.54536 22.8377 2.54536 22.7514C2.54536 22.6652 2.5907 22.5517 2.69986 22.4097C2.80692 22.2705 2.96226 22.1208 3.15082 21.965C3.52455 21.6564 4.00636 21.3419 4.44536 21.0554L4.45729 21.0476L4.45755 21.0474L4.45943 21.0462C5.02059 20.6816 5.57788 20.3196 6.02767 19.9244C6.47827 19.5285 6.83571 19.0871 6.98035 18.5574C7.13158 18.0082 7.04019 17.4203 6.8462 16.8353C6.65373 16.2549 6.35358 15.6586 6.06451 15.0844L6.05748 15.0705L6.05732 15.0702C5.82756 14.6164 5.57584 14.1171 5.41246 13.6788C5.33075 13.4596 5.27378 13.2624 5.25148 13.0983C5.22866 12.9303 5.2456 12.8211 5.28319 12.7576C5.3241 12.6894 5.41754 12.6174 5.58167 12.5507C5.74212 12.4856 5.94928 12.4339 6.18787 12.3926C6.66499 12.31 7.24044 12.2731 7.76368 12.2404L7.76382 12.2404C8.44617 12.1971 9.12417 12.1539 9.72548 12.0282C10.3272 11.9024 10.8701 11.6907 11.2728 11.2973C11.6775 10.9033 11.8948 10.3715 12.0234 9.78209C12.1508 9.19833 12.1945 8.54078 12.2384 7.87966L12.2395 7.86369L12.2395 7.86355C12.273 7.35186 12.3099 6.79016 12.394 6.32452C12.436 6.09173 12.4886 5.89007 12.555 5.73411C12.6226 5.5753 12.6961 5.48411 12.7673 5.44354C12.8344 5.40612 12.9489 5.39017 13.1219 5.41299C13.2909 5.43529 13.4935 5.49144 13.7181 5.57139C14.1673 5.73128 14.6786 5.97673 15.143 6.19975L15.143 6.19979L15.1571 6.2065C15.7464 6.4891 16.3561 6.78145 16.949 6.96897C17.5466 7.15796 18.1449 7.24655 18.7039 7.1012L18.7041 7.10115C19.2424 6.9604 19.6936 6.61199 20.0995 6.17119C20.5049 5.73096 20.8767 5.18542 21.2503 4.63621C21.5455 4.20262 21.8703 3.72655 22.1889 3.35853C22.3481 3.17458 22.5013 3.02302 22.6439 2.91851C22.7889 2.81223 22.9068 2.76658 22.9984 2.76658C23.0899 2.76658 23.2077 2.81232 23.3528 2.91885C23.4954 3.02361 23.6486 3.17547 23.8079 3.35964C24.1237 3.72475 24.4454 4.19547 24.7386 4.62451L24.7465 4.63615L24.7467 4.63642L24.748 4.63828C25.121 5.18667 25.4916 5.73145 25.8961 6.17113C26.3016 6.61194 26.7527 6.96031 27.2926 7.1011C27.8518 7.24818 28.4511 7.1595 29.0491 6.97012C29.6425 6.78219 30.2522 6.48904 30.84 6.20642L30.8539 6.19972L30.8542 6.19957C31.3184 5.97508 31.8297 5.72889 32.2787 5.56906C32.5032 5.48913 32.7057 5.4332 32.8746 5.41129C33.0475 5.38884 33.1618 5.40528 33.229 5.44321C33.2995 5.48363 33.3728 5.57485 33.4405 5.73401C33.5068 5.89007 33.5595 6.09182 33.6017 6.32464C33.6861 6.79028 33.7238 7.35207 33.7574 7.86355L33.7574 7.86369C33.8017 8.53036 33.8459 9.19372 33.9747 9.78219C34.1036 10.3714 34.3208 10.9031 34.7237 11.2969C35.1265 11.6922 35.6696 11.904 36.2714 12.0294C36.8681 12.1537 37.5403 12.1964 38.2171 12.2394L38.233 12.2404L38.2331 12.2404C38.7566 12.2731 39.3319 12.3093 39.8091 12.3915C40.0476 12.4326 40.2547 12.4841 40.4151 12.5494C40.5788 12.616 40.6722 12.6882 40.7133 12.757C40.7503 12.8205 40.7668 12.9299 40.7436 13.098C40.7209 13.2622 40.6637 13.4595 40.582 13.6788C40.4185 14.1173 40.1676 14.6166 39.9393 15.0705L39.9393 15.0706L39.9323 15.0846C39.6432 15.6603 39.3439 16.2565 39.1518 16.8365C38.9582 17.4211 38.8669 18.008 39.0164 18.5569L39.0164 18.5571C39.161 19.0854 39.5185 19.5269 39.9691 19.9232C40.4194 20.3192 40.9775 20.6824 41.5395 21.0475C41.9831 21.3361 42.4704 21.6535 42.8471 21.965C43.0355 22.1207 43.1905 22.2704 43.2973 22.4096C43.4062 22.5515 43.4515 22.6651 43.4515 22.7514C43.4515 22.8376 43.4061 22.9511 43.297 23.093C43.1899 23.2322 43.0346 23.382 42.846 23.5377C42.4723 23.8464 41.9905 24.1609 41.5515 24.4474L41.5395 24.4552Z" fill="#2C2C2C" stroke="#2C2C2C" stroke-width="0.3"/>
</g>
</svg>
