<svg width="18" height="17" viewBox="0 0 18 17" fill="none" xmlns="http://www.w3.org/2000/svg">
<g id="Group 25096">
<g id="Clip path group">
<mask id="mask0_218_18201" style="mask-type:luminance" maskUnits="userSpaceOnUse" x="0" y="0" width="18" height="17">
<g id="clip-path">
<path id="Rectangle 8793" d="M17.7656 0H0.765625V17H17.7656V0Z" fill="white"/>
</g>
</mask>
<g mask="url(#mask0_218_18201)">
<g id="Group 25095">
<path id="Path 54428" d="M10.8597 0H2.00549C1.67674 0.000300083 1.36155 0.131025 1.1291 0.36348C0.89664 0.595935 0.765925 0.911126 0.765625 1.23987V15.7601C0.765925 16.0889 0.89664 16.4041 1.1291 16.6365C1.36155 16.869 1.67674 16.9997 2.00549 17H10.8597C11.1883 16.9995 11.5034 16.8688 11.7357 16.6363C11.968 16.4039 12.0987 16.0888 12.099 15.7601V1.23987C12.0987 0.911224 11.968 0.596119 11.7357 0.36368C11.5034 0.131241 11.1883 0.000450059 10.8597 0Z" fill="#E3E3E3"/>
<path id="Path 54429" d="M16.5258 0H14.7549C14.4263 0.000450059 14.1113 0.131241 13.8789 0.36368C13.6466 0.596119 13.5159 0.911224 13.5156 1.23987V15.7601C13.5159 16.0889 13.6467 16.4041 13.8791 16.6365C14.1116 16.869 14.4267 16.9997 14.7555 17H16.5263C16.8551 16.9997 17.1703 16.869 17.4027 16.6365C17.6352 16.4041 17.7659 16.0889 17.7662 15.7601V1.23987C17.7659 0.911028 17.6351 0.595751 17.4025 0.36328C17.17 0.130809 16.8546 0.000150018 16.5258 0Z" fill="#E3E3E3"/>
</g>
</g>
</g>
</g>
</svg>
