<svg width="18" height="17" viewBox="0 0 18 17" fill="none" xmlns="http://www.w3.org/2000/svg">
<g id="Group 25098">
<g id="Clip path group">
<mask id="mask0_218_18208" style="mask-type:luminance" maskUnits="userSpaceOnUse" x="0" y="0" width="18" height="17">
<g id="clip-path-3">
<path id="Rectangle 8795" d="M17.3828 0H0.382812V17H17.3828V0Z" fill="white"/>
</g>
</mask>
<g mask="url(#mask0_218_18208)">
<g id="Group 25097">
<path id="Path 54430" d="M11.3626 7.26013V0.708333C11.3626 0.520472 11.2879 0.340304 11.1551 0.207466C11.0223 0.0746278 10.8422 0 10.6543 0L7.11263 0C6.92477 0 6.74459 0.0746278 6.61175 0.207466C6.47891 0.340304 6.4043 0.520472 6.4043 0.708333V7.26013C6.4043 7.448 6.47891 7.62816 6.61175 7.761C6.74459 7.89384 6.92477 7.96847 7.11263 7.96847H10.6543C10.8422 7.96847 11.0223 7.89384 11.1551 7.761C11.2879 7.62816 11.3626 7.448 11.3626 7.26013Z" fill="#2C2C2C"/>
<path id="Path 54431" d="M17.3822 7.26013V0.708333C17.382 0.520518 17.3074 0.340438 17.1746 0.207632C17.0418 0.074826 16.8616 0.000150072 16.6738 0L13.1322 0C12.9443 0.000150072 12.7643 0.074826 12.6315 0.207632C12.4987 0.340438 12.424 0.520518 12.4238 0.708333V7.26013C12.424 7.44795 12.4987 7.62803 12.6315 7.76083C12.7643 7.89364 12.9443 7.96832 13.1322 7.96847H16.6738C16.8616 7.96832 17.0418 7.89364 17.1746 7.76083C17.3074 7.62803 17.382 7.44795 17.3822 7.26013Z" fill="#2C2C2C"/>
<path id="Path 54432" d="M12.4245 9.03101H1.09115C0.90333 9.03116 0.723276 9.10583 0.59047 9.23864C0.457665 9.37144 0.382963 9.55152 0.382812 9.73934V16.2911C0.382963 16.479 0.457665 16.659 0.59047 16.7918C0.723276 16.9246 0.90333 16.9993 1.09115 16.9995H16.6745C16.8623 16.9993 17.0423 16.9246 17.1752 16.7918C17.308 16.659 17.3827 16.479 17.3828 16.2911V9.73934C17.3827 9.55152 17.308 9.37144 17.1752 9.23864C17.0423 9.10583 16.8623 9.03116 16.6745 9.03101H12.4245Z" fill="#2C2C2C"/>
<path id="Path 54433" d="M5.34115 7.26013V0.708333C5.341 0.520518 5.26629 0.340438 5.13349 0.207632C5.00068 0.074826 4.82063 0.000150072 4.63281 0L1.09115 0C0.90333 0.000150072 0.723276 0.074826 0.59047 0.207632C0.457665 0.340438 0.382963 0.520518 0.382812 0.708333V7.26013C0.382963 7.44795 0.457665 7.62803 0.59047 7.76083C0.723276 7.89364 0.90333 7.96832 1.09115 7.96847H4.63281C4.82063 7.96832 5.00068 7.89364 5.13349 7.76083C5.26629 7.62803 5.341 7.44795 5.34115 7.26013Z" fill="#2C2C2C"/>
</g>
</g>
</g>
</g>
</svg>
