<svg width="18" height="17" viewBox="0 0 18 17" fill="none" xmlns="http://www.w3.org/2000/svg">
<g id="Group 25102">
<g id="Clip path group">
<mask id="mask0_218_18224" style="mask-type:luminance" maskUnits="userSpaceOnUse" x="0" y="0" width="18" height="17">
<g id="clip-path">
<path id="Rectangle 8793" d="M17.5332 0H0.533203V17H17.5332V0Z" fill="white"/>
</g>
</mask>
<g mask="url(#mask0_218_18224)">
<g id="Group 25101">
<path id="Rectangle 8797" d="M15.054 12.0417H3.01237C1.64316 12.0417 0.533203 13.1516 0.533203 14.5209C0.533203 15.8901 1.64316 17 3.01237 17H15.054C16.4232 17 17.5332 15.8901 17.5332 14.5209C17.5332 13.1516 16.4232 12.0417 15.054 12.0417Z" fill="#E3E3E3"/>
<path id="Path 54436" d="M16.8249 0H1.24154C1.05367 0 0.873507 0.0746278 0.740669 0.207466C0.607831 0.340304 0.533203 0.520472 0.533203 0.708333L0.533203 4.25C0.533203 4.43786 0.607831 4.61803 0.740669 4.75087C0.873507 4.88371 1.05367 4.95833 1.24154 4.95833H16.8249C17.0127 4.95833 17.1929 4.88371 17.3257 4.75087C17.4586 4.61803 17.5332 4.43786 17.5332 4.25V0.708333C17.5332 0.520472 17.4586 0.340304 17.3257 0.207466C17.1929 0.0746278 17.0127 0 16.8249 0Z" fill="#E3E3E3"/>
<path id="Path 54437" d="M1.24154 10.9791H16.8249C17.0127 10.9791 17.1929 10.9045 17.3257 10.7717C17.4586 10.6388 17.5332 10.4587 17.5332 10.2708V6.72915C17.5332 6.54128 17.4586 6.36111 17.3257 6.22827C17.1929 6.09543 17.0127 6.02081 16.8249 6.02081H1.24154C1.05367 6.02081 0.873507 6.09543 0.740669 6.22827C0.607831 6.36111 0.533203 6.54128 0.533203 6.72915L0.533203 10.2708C0.533203 10.4587 0.607831 10.6388 0.740669 10.7717C0.873507 10.9045 1.05367 10.9791 1.24154 10.9791Z" fill="#E3E3E3"/>
</g>
</g>
</g>
</g>
</svg>
