<svg width="17" height="17" viewBox="0 0 17 17" fill="none" xmlns="http://www.w3.org/2000/svg">
<g id="Group 25100">
<g id="Clip path group">
<mask id="mask0_218_18217" style="mask-type:luminance" maskUnits="userSpaceOnUse" x="0" y="0" width="17" height="17">
<g id="clip-path">
<path id="Rectangle 8793" d="M17 0H0V17H17V0Z" fill="white"/>
</g>
</mask>
<g mask="url(#mask0_218_18217)">
<g id="Group 25099">
<path id="Path 54434" d="M8.2072 0.879493V16.1228C8.20905 16.2387 8.18755 16.3538 8.14398 16.4612C8.1004 16.5686 8.03561 16.6662 7.95354 16.748C7.87147 16.8299 7.77379 16.8944 7.66627 16.9377C7.55874 16.981 7.44362 17.0022 7.32773 17H0.879616C0.763531 17.0022 0.648204 16.9809 0.54053 16.9375C0.432855 16.894 0.335076 16.8293 0.252977 16.7472C0.170878 16.6651 0.106116 16.5673 0.0626812 16.4596C0.0192462 16.352 -0.00200445 16.2366 0.000148685 16.1206V0.879493C-0.00200445 0.763408 0.0192462 0.64808 0.0626812 0.540405C0.106116 0.43273 0.170878 0.334919 0.252977 0.252821C0.335076 0.170722 0.432855 0.10602 0.54053 0.0625854C0.648204 0.0191503 0.763531 -0.00212669 0.879616 2.64519e-05H7.32773C7.44382 -0.00212669 7.55914 0.0191503 7.66682 0.0625854C7.77449 0.10602 7.87227 0.170722 7.95437 0.252821C8.03647 0.334919 8.10116 0.43273 8.1446 0.540405C8.18803 0.64808 8.20935 0.763408 8.2072 0.879493ZM16.1207 2.64519e-05H9.96558C9.8495 -0.00212669 9.7341 0.0191503 9.62643 0.0625854C9.51875 0.10602 9.42097 0.170722 9.33887 0.252821C9.25677 0.334919 9.19208 0.43273 9.14865 0.540405C9.10521 0.64808 9.08396 0.763408 9.08611 0.879493V4.68976C9.08396 4.80585 9.10521 4.92117 9.14865 5.02885C9.19208 5.13652 9.25677 5.23433 9.33887 5.31643C9.42097 5.39853 9.51875 5.46323 9.62643 5.50667C9.7341 5.5501 9.8495 5.57138 9.96558 5.56923H16.1207C16.2368 5.57138 16.3521 5.5501 16.4598 5.50667C16.5674 5.46323 16.6652 5.39853 16.7473 5.31643C16.8294 5.23433 16.8942 5.13652 16.9376 5.02885C16.9811 4.92117 17.0023 4.80585 17.0001 4.68976V0.879493C17.0023 0.763408 16.9811 0.64808 16.9376 0.540405C16.8942 0.43273 16.8294 0.334919 16.7473 0.252821C16.6652 0.170722 16.5674 0.10602 16.4598 0.0625854C16.3521 0.0191503 16.2368 -0.00212669 16.1207 2.64519e-05ZM16.1207 6.44813H9.96558C9.8495 6.44597 9.7341 6.46725 9.62643 6.51069C9.51875 6.55412 9.42097 6.61882 9.33887 6.70092C9.25677 6.78302 9.19208 6.88083 9.14865 6.9885C9.10521 7.09618 9.08396 7.21151 9.08611 7.32759V8.50003C9.08396 8.61611 9.10521 8.73144 9.14865 8.83911C9.19208 8.94679 9.25677 9.0446 9.33887 9.1267C9.42097 9.2088 9.51875 9.2735 9.62643 9.31693C9.7341 9.36037 9.8495 9.38165 9.96558 9.37949H16.1207C16.2368 9.38165 16.3521 9.36037 16.4598 9.31693C16.5674 9.2735 16.6652 9.2088 16.7473 9.1267C16.8294 9.0446 16.8942 8.94679 16.9376 8.83911C16.9811 8.73144 17.0023 8.61611 17.0001 8.50003V7.32759C17.0023 7.21151 16.9811 7.09618 16.9376 6.9885C16.8942 6.88083 16.8294 6.78302 16.7473 6.70092C16.6652 6.61882 16.5674 6.55412 16.4598 6.51069C16.3521 6.46725 16.2368 6.44597 16.1207 6.44813ZM16.1207 10.2584H9.96558C9.8495 10.2562 9.7341 10.2775 9.62643 10.321C9.51875 10.3644 9.42097 10.4291 9.33887 10.5112C9.25677 10.5933 9.19208 10.6911 9.14865 10.7988C9.10521 10.9064 9.08396 11.0218 9.08611 11.1379V12.3103C9.08396 12.4264 9.10521 12.5417 9.14865 12.6494C9.19208 12.7571 9.25677 12.8549 9.33887 12.937C9.42097 13.0191 9.51875 13.0838 9.62643 13.1272C9.7341 13.1706 9.8495 13.1919 9.96558 13.1898H16.1207C16.2368 13.1919 16.3521 13.1706 16.4598 13.1272C16.5674 13.0838 16.6652 13.0191 16.7473 12.937C16.8294 12.8549 16.8942 12.7571 16.9376 12.6494C16.9811 12.5417 17.0023 12.4264 17.0001 12.3103V11.1379C17.0023 11.0218 16.9811 10.9064 16.9376 10.7988C16.8942 10.6911 16.8294 10.5933 16.7473 10.5112C16.6652 10.4291 16.5674 10.3644 16.4598 10.321C16.3521 10.2775 16.2368 10.2562 16.1207 10.2584ZM16.1207 14.0687H9.96558C9.8495 14.0665 9.7341 14.0878 9.62643 14.1312C9.51875 14.1747 9.42097 14.2394 9.33887 14.3215C9.25677 14.4036 9.19208 14.5014 9.14865 14.609C9.10521 14.7167 9.08396 14.832 9.08611 14.9481V16.1206C9.08396 16.2366 9.10521 16.352 9.14865 16.4596C9.19208 16.5673 9.25677 16.6651 9.33887 16.7472C9.42097 16.8293 9.51875 16.894 9.62643 16.9375C9.7341 16.9809 9.8495 17.0022 9.96558 17H16.1207C16.2368 17.0022 16.3521 16.9809 16.4598 16.9375C16.5674 16.894 16.6652 16.8293 16.7473 16.7472C16.8294 16.6651 16.8942 16.5673 16.9376 16.4596C16.9811 16.352 17.0023 16.2366 17.0001 16.1206V14.9481C17.0023 14.832 16.9811 14.7167 16.9376 14.609C16.8942 14.5014 16.8294 14.4036 16.7473 14.3215C16.6652 14.2394 16.5674 14.1747 16.4598 14.1312C16.3521 14.0878 16.2368 14.0665 16.1207 14.0687Z" fill="#E3E3E3"/>
<path id="Path 54435" d="M16.1188 2.64519e-05H9.9636C9.84751 -0.00212669 9.73219 0.0191503 9.62451 0.0625854C9.51684 0.10602 9.41913 0.170722 9.33703 0.252821C9.25493 0.334919 9.19024 0.43273 9.1468 0.540405C9.10337 0.64808 9.08198 0.763408 9.08413 0.879493V4.68976C9.08198 4.80585 9.10337 4.92117 9.1468 5.02885C9.19024 5.13652 9.25493 5.23433 9.33703 5.31643C9.41913 5.39853 9.51684 5.46323 9.62451 5.50667C9.73219 5.5501 9.84751 5.57138 9.9636 5.56923H16.1188C16.2349 5.57138 16.3502 5.5501 16.4579 5.50667C16.5655 5.46323 16.6634 5.39853 16.7455 5.31643C16.8276 5.23433 16.8923 5.13652 16.9357 5.02885C16.9791 4.92117 17.0004 4.80585 16.9982 4.68976V0.879493C17.0004 0.763408 16.9791 0.64808 16.9357 0.540405C16.8923 0.43273 16.8276 0.334919 16.7455 0.252821C16.6634 0.170722 16.5655 0.10602 16.4579 0.0625854C16.3502 0.0191503 16.2349 -0.00212669 16.1188 2.64519e-05Z" fill="#E3E3E3"/>
</g>
</g>
</g>
</g>
</svg>
