<svg width="18" height="17" viewBox="0 0 18 17" fill="none" xmlns="http://www.w3.org/2000/svg">
<g id="Group 25094">
<g id="Clip path group">
<mask id="mask0_218_18194" style="mask-type:luminance" maskUnits="userSpaceOnUse" x="0" y="0" width="18" height="17">
<g id="clip-path">
<path id="Rectangle 8793" d="M17.1484 0H0.148438V17H17.1484V0Z" fill="white"/>
</g>
</mask>
<g mask="url(#mask0_218_18194)">
<g id="Group 25093">
<path id="Path 54426" d="M17.1484 4.9385V9.9875H9.28594V0H12.2099C15.3039 0 17.1484 1.8445 17.1484 4.9385ZM0.148438 11.2625V12.0615C0.148438 15.1555 1.99294 17 5.08694 17H8.01094V7.0125H0.148438V11.2625ZM0.148438 4.9385V5.7375H8.01094V0H5.08694C1.99294 0 0.148438 1.8445 0.148438 4.9385ZM9.28594 17H12.2099C15.3039 17 17.1484 15.1555 17.1484 12.0615V11.2625H9.28594V17Z" fill="#E3E3E3"/>
<path id="Path 54427" d="M17.1477 4.9385V9.9875H9.28516V0H12.2091C15.3031 0 17.1477 1.8445 17.1477 4.9385Z" fill="#E3E3E3"/>
</g>
</g>
</g>
</g>
</svg>
