<svg className="fill-current" width="80" height="80" viewBox="0 0 65 65" fill="none" xmlns="http://www.w3.org/2000/svg">
<path id="Star 1" d="M32.5 0L34.5877 3.9763L37.232 0.34634L38.7185 4.58423L41.8632 1.37798L42.7168 5.78714L46.2948 3.07293L46.4974 7.55939L50.4324 5.39507L49.9796 9.8632L54.1879 8.2949L53.0892 12.6495L57.481 11.7106L55.7601 15.8588L60.2418 15.5694L57.9352 19.4229L62.4113 19.7891L59.5682 23.2656L63.9432 24.2797L60.6243 27.3052L64.805 28.9454L61.0809 31.4555L64.9783 33.687L60.9284 35.628L64.4594 38.4032L60.17 39.7339L63.2593 42.9936L58.8219 43.6856L61.4036 47.3604L56.9128 47.3989L58.9319 51.4104L54.4833 50.7946L55.8969 55.0574L51.5853 53.8005L52.3631 58.2236L48.2806 56.3523L48.4061 60.8416L44.6395 58.3958L44.11 62.8555L40.7396 59.8874L39.5665 64.2225L36.6642 60.7952L34.8723 64.9133L32.5 61.1L30.1277 64.9133L28.3358 60.7952L25.4335 64.2225L24.2604 59.8874L20.89 62.8555L20.3605 58.3958L16.5939 60.8416L16.7194 56.3523L12.6369 58.2236L13.4147 53.8005L9.10314 55.0574L10.5167 50.7946L6.06808 51.4104L8.08724 47.3989L3.59638 47.3604L6.1781 43.6856L1.74071 42.9936L4.82997 39.7339L0.540615 38.4032L4.07157 35.628L0.0216827 33.687L3.91908 31.4555L0.194969 28.9454L4.37574 27.3052L1.05678 24.2797L5.43182 23.2656L2.58875 19.7891L7.06482 19.4229L4.75822 15.5694L9.23991 15.8588L7.51897 11.7106L11.9108 12.6495L10.8121 8.2949L15.0204 9.8632L14.5675 5.39507L18.5026 7.55939L18.7052 3.07293L22.2832 5.78714L23.1368 1.37798L26.2815 4.58423L27.768 0.34634L30.4123 3.9763L32.5 0Z" fill="currentColor"/>
</svg>
