<svg className="fill-current" width="25" height="24" viewBox="0 0 25 24" fill="none" xmlns="http://www.w3.org/2000/svg">
<g id="Group 145934">
<g id="Group">
<path id="Vector" d="M15.1871 15.8139C15.9204 15.8139 16.5148 15.1414 16.5148 14.3118C16.5148 13.4822 15.9204 12.8097 15.1871 12.8097C14.4538 12.8097 13.8594 13.4822 13.8594 14.3118C13.8594 15.1414 14.4538 15.8139 15.1871 15.8139Z" stroke="currentColor" stroke-width="1.3" stroke-linecap="round" stroke-linejoin="round"/>
<path id="Vector_2" d="M15.7406 8.86004L8.9082 15.8139" stroke="currentColor" stroke-width="1.3" stroke-linecap="round" stroke-linejoin="round"/>
<path id="Vector_3" d="M9.46153 11.8642C10.1948 11.8642 10.7893 11.1917 10.7893 10.3621C10.7893 9.53253 10.1948 8.86003 9.46153 8.86003C8.72824 8.86003 8.13379 9.53253 8.13379 10.3621C8.13379 11.1917 8.72824 11.8642 9.46153 11.8642Z" stroke="currentColor" stroke-width="1.3" stroke-linecap="round" stroke-linejoin="round"/>
</g>
<path id="Vector_4" d="M21.5075 13.8513L23.4629 12.4731C23.7126 12.2975 23.7132 11.9298 23.4642 11.753L21.4274 10.3071C21.2439 10.1764 21.1873 9.93005 21.2972 9.73361L22.4579 7.64917C22.6059 7.38324 22.4458 7.05163 22.1447 6.99983L19.6785 6.57473C19.4562 6.5362 19.298 6.3385 19.3107 6.11426L19.4473 3.73547C19.4644 3.43228 19.176 3.20236 18.8819 3.28511L16.4748 3.96539C16.2575 4.02666 16.0288 3.91676 15.9424 3.70895L15.0283 1.50639C14.9114 1.22531 14.5512 1.14256 14.3225 1.34469L12.4503 2.99582C12.2813 3.14488 12.0272 3.14425 11.8589 2.99455L10.0743 1.40406C9.84692 1.2013 9.48608 1.28215 9.36792 1.56261L8.40102 3.85801C8.31399 4.0652 8.08401 4.17447 7.86738 4.11194L5.56576 3.44871C5.27226 3.36407 4.98257 3.59272 4.99846 3.89591L5.12805 6.38082C5.13949 6.60505 4.98067 6.80213 4.75769 6.83939L2.39444 7.23417C2.09268 7.28471 1.93132 7.61506 2.07807 7.88224L3.28955 10.0854C3.39755 10.2819 3.34101 10.5276 3.15741 10.6577L1.18677 12.0518C0.937742 12.228 0.937742 12.5956 1.18677 12.7718L3.22602 14.2145C3.41025 14.3446 3.46679 14.5916 3.35753 14.7881L2.20068 16.8744C2.0533 17.1403 2.21339 17.4719 2.51451 17.5231L4.9813 17.9438C5.20365 17.9817 5.36247 18.1794 5.34977 18.4036L5.21699 20.783C5.19984 21.0862 5.48889 21.3161 5.78303 21.2321L8.18947 20.5474C8.40674 20.4855 8.63544 20.5954 8.72247 20.8032L9.64045 23.0039C9.75734 23.2844 10.1182 23.3665 10.3462 23.165L12.2159 21.5107C12.3849 21.3616 12.639 21.3616 12.8073 21.5107L14.595 23.098C14.8231 23.3001 15.1839 23.2193 15.3014 22.9382L16.2645 20.6415C16.3516 20.4344 16.5809 20.3251 16.7975 20.387L19.1004 21.0464C19.3939 21.1304 19.6836 20.9018 19.6671 20.598L19.533 18.113C19.521 17.8888 19.6798 17.6911 19.9028 17.6538L22.2654 17.2553C22.5665 17.2047 22.7279 16.8731 22.5805 16.6072L21.376 14.4261C21.2674 14.229 21.3245 13.9827 21.5088 13.8532L21.5075 13.8513Z" stroke="currentColor" stroke-width="1.3" stroke-linecap="round" stroke-linejoin="round"/>
</g>
</svg>
