<svg width="39" height="39" viewBox="0 0 39 39" fill="none" xmlns="http://www.w3.org/2000/svg">
<g id="002-speech bubble" clip-path="url(#clip0_249_9054)">
<path id="Vector" d="M1.52297 38.9982C1.32669 38.9982 1.12882 38.9602 0.940315 38.8822C0.371145 38.6464 0 38.0909 0 37.4748L0.000837799 19.6842C-0.119577 2.26541 21.0778 -6.59088 33.358 5.75469C45.5079 18.0825 36.736 39.0135 19.4075 38.9982C16.338 38.9982 13.4078 38.3098 10.6982 36.952C8.10921 35.6544 4.9747 36.1777 2.89833 38.2541L2.60038 38.552C2.30897 38.8434 1.91932 38.9982 1.52297 38.9982ZM7.71285 33.1984C9.1921 33.1984 10.6803 33.5352 12.0632 34.2283C14.3494 35.3742 16.8273 35.9541 19.4247 35.9516C33.9858 35.973 41.4477 18.1861 31.1932 7.89832C20.7917 -2.51096 2.9719 4.94477 3.0473 19.6622C3.0473 19.6671 3.04738 19.6721 3.04738 19.6769L3.04669 34.3817C4.49015 33.6012 6.09598 33.1984 7.71285 33.1984ZM14.9281 19.5003C14.9281 20.5519 14.0756 21.4044 13.024 21.4044C10.4982 21.3041 10.4989 17.6961 13.024 17.5962C14.0756 17.5962 14.9281 18.4487 14.9281 19.5003ZM19.574 17.5962C18.5224 17.5962 17.6699 18.4487 17.6699 19.5003C17.7703 22.026 21.3782 22.0254 21.4781 19.5003C21.4781 18.4487 20.6256 17.5962 19.574 17.5962ZM26.1241 17.5962C25.0725 17.5962 24.22 18.4487 24.22 19.5003C24.3203 22.026 27.9283 22.0254 28.0282 19.5003C28.0282 18.4487 27.1757 17.5962 26.1241 17.5962Z" fill="currentColor"/>
</g>
<defs>
<clipPath id="clip0_249_9054">
<rect width="39" height="39" fill="currentColor"/>
</clipPath>
</defs>
</svg>
