<svg width="14" height="12" viewBox="0 0 14 12" fill="none" xmlns="http://www.w3.org/2000/svg">
<g id="Group 25729">
<path id="Vector" d="M10.3278 8.43217L10.1403 7.61361L10.7804 7.06042C10.7804 7.06042 10.781 7.05965 10.7814 7.05948L12.513 5.56293L13.1864 4.98094C13.5386 4.67632 13.4445 4.39227 12.9774 4.34958L11.3838 4.20421L8.94072 3.98119L7.97007 1.76397L7.3372 0.31808C7.15162 -0.106027 6.84765 -0.106027 6.66207 0.31808L6.02903 1.76397L5.05847 3.98119L2.61507 4.20421L1.02183 4.34958C0.554411 4.39235 0.460578 4.67649 0.813257 4.98137L3.21762 7.05957C3.21762 7.05957 3.21797 7.06 3.21823 7.06017L3.85877 7.61379L3.67154 8.4314C3.67145 8.43191 3.67136 8.43252 3.67128 8.43294L2.96775 11.5047C2.86442 11.9553 3.1102 12.131 3.51384 11.8951L5.88379 10.5106L6.99968 9.85869L9.10948 11.0912L10.4857 11.895C10.889 12.1307 11.1347 11.9552 11.032 11.5051L10.6798 9.96866L10.3282 8.43294C10.3282 8.43294 10.3278 8.4326 10.3278 8.43234V8.43217Z" fill="#FFC900"/>
</g>
</svg>
