<svg width="42" height="42" viewBox="0 0 42 42" fill="none" xmlns="http://www.w3.org/2000/svg">
<g id="Group 144785">
<path id="Vector" d="M20.4453 15.392L20.5409 15.3632L20.5123 15.2676C20.2587 14.4189 20.1306 13.5251 20.1306 12.6101C20.1306 7.41069 24.3423 3.18172 29.5187 3.18172C34.6951 3.18172 38.9068 7.41069 38.9068 12.6101C38.9068 17.8096 34.6951 22.0386 29.5187 22.0386C27.0772 22.0386 24.7554 21.0663 23.0257 19.3945L25.2693 19.26L25.3691 19.254L25.3632 19.1543L25.269 17.5692L25.2631 17.4693L25.1632 17.4753L20.3782 17.7621L20.285 17.7677L20.2842 17.861L20.2394 22.6748L20.2385 22.7748L20.3385 22.7758L21.9198 22.7912L22.0199 22.7921L22.0208 22.6921L22.0372 20.9082C24.067 22.7556 26.7257 23.8261 29.5187 23.8261C35.6781 23.8261 40.6881 18.7942 40.6881 12.6096C40.6881 6.42511 35.6781 1.39365 29.5187 1.39365C23.3593 1.39365 18.3492 6.42561 18.3492 12.6101C18.3492 13.6982 18.5028 14.7647 18.8058 15.7809L18.8345 15.8769L18.9305 15.848L20.4453 15.392Z" fill="#2C2C2C" stroke="#2C2C2C" stroke-width="0.2"/>
<path id="Vector_2" d="M33.0489 7.74619H32.9953L32.9656 7.79088L29.4352 13.1087L29.4186 13.1338V13.164V14.9925V15.0925H29.5186H33.3719V16.5806V16.6806H33.4719H35.0533H35.1533V16.5806V15.0925H35.844H35.944V14.9925V13.4044V13.3044H35.844H35.1533V7.84619V7.74619H35.0533H33.0489ZM33.3719 13.3044H31.4462L33.3719 10.4032V13.3044Z" fill="#2C2C2C" stroke="#2C2C2C" stroke-width="0.2"/>
<path id="Vector_3" d="M23.1307 14.5329L23.0934 14.5629V14.6109V16.5806V16.6806H23.1934H28.7281H28.8281V16.5806V14.9925V14.8925H28.7281H25.5338L27.5684 13.2583L27.5684 13.2583C28.3689 12.615 28.8281 11.655 28.8281 10.6253C28.8281 9.03825 27.5421 7.74619 25.9607 7.74619C24.3793 7.74619 23.0934 9.03825 23.0934 10.6253V11.0223V11.1223H23.1934H24.7747H24.8747V11.0223V10.6253C24.8747 10.0233 25.3623 9.53426 25.9607 9.53426C26.5591 9.53426 27.0467 10.0233 27.0467 10.6253C27.0467 11.1093 26.8311 11.5604 26.4548 11.8624L26.4548 11.8625L23.1307 14.5329Z" fill="#2C2C2C" stroke="#2C2C2C" stroke-width="0.2"/>
<path id="Vector_4" d="M35.9184 28.9126L35.8475 28.8414L35.7767 28.9126L34.6586 30.0354L34.5884 30.106L34.6586 30.1765L38.6228 34.1583L36.5834 36.2064L30.5918 30.1898L32.6315 28.1415L33.5435 29.0567L33.6144 29.1278L33.6852 29.0567L34.8033 27.9339L34.8736 27.8633L34.8033 27.7927L32.7023 25.6836L32.6315 25.6125L32.5606 25.6836L28.7046 29.556C27.3476 30.9184 25.3843 31.2752 23.1613 30.6972C20.9369 30.1188 18.4627 28.6056 16.1112 26.2449C13.7598 23.8831 12.2533 21.3981 11.6777 19.1641C11.1024 16.9312 11.4583 14.9593 12.8142 13.5968L16.6702 9.72443L16.7404 9.65387L16.6702 9.58331L8.30185 1.17944L8.23099 1.10828L8.16013 1.17944L4.3041 5.05185C0.319659 9.05322 0.256728 14.2769 1.95637 19.2633C3.65564 24.2485 7.12176 29.0174 10.2341 32.146L10.2342 32.146C14.9173 36.8444 20.1545 39.84 24.974 40.9094C29.7939 41.9789 34.2061 41.1228 37.2149 38.1012L41.0709 34.2288L41.1411 34.1583L41.0709 34.0877L35.9184 28.9126ZM10.3003 9.80837L6.1933 5.68394L8.23123 3.63735L14.2225 9.65411L12.1846 11.7007L11.4154 10.9282L11.3445 10.857L11.2737 10.9282L10.1556 12.051L10.0853 12.1216L10.1556 12.1921L10.9723 13.0123C9.62015 14.8016 9.32141 17.1406 9.9815 19.6586C10.65 22.2086 12.3026 24.9484 14.8517 27.5091L14.8517 27.5091C17.4006 30.0684 20.1282 31.7279 22.6672 32.3995C25.1741 33.0625 27.5032 32.7632 29.2854 31.407L35.2905 37.4369C32.5874 39.6557 28.7565 40.1204 24.5509 38.9912C20.3024 37.8505 15.6836 35.0853 11.4939 30.882L11.434 30.8219C7.28181 26.6301 4.54892 22.0148 3.41858 17.768C2.29435 13.544 2.75743 9.69633 4.96753 6.98203L9.04049 11.0723L9.11135 11.1435L9.18221 11.0723L10.3003 9.94949L10.3705 9.87893L10.3003 9.80837Z" fill="#2C2C2C" stroke="#2C2C2C" stroke-width="0.2"/>
</g>
</svg>
