<svg width="26" height="26" viewBox="0 0 26 26" fill="none" xmlns="http://www.w3.org/2000/svg">
<g id="Group 132464">
<rect id="Rectangle 39173" x="0.35" y="0.644922" width="24.6915" height="24.6915" rx="12.3457" stroke="#2C2C2C" stroke-width="0.7"/>
<path id="Vector" d="M14.3789 16.5365L14.4838 16.6792H14.6609H14.6616H15.8752H16.568L16.1569 16.1216C15.6359 15.4148 14.4729 13.8618 13.3991 12.4298C13.1025 12.0342 12.8127 11.6479 12.5451 11.2912C11.8427 10.3547 11.2928 9.62163 11.1712 9.45678L11.0663 9.31447H10.8895H9.64846H8.95592L9.36666 9.87206C9.57125 10.1498 10.8077 11.7933 11.9998 13.3766L13.6242 15.5336L14.1614 16.2471L14.3172 16.4542L14.3612 16.5128L14.3739 16.5298L14.3776 16.5347C14.3786 16.5361 14.379 16.5366 14.3789 16.5365ZM9.34696 10.1372C9.05972 9.74761 8.79543 9.38917 8.5887 9.10879H11.1679C11.3242 9.32034 11.6257 9.72722 11.9463 10.1598C12.4373 10.8224 12.9729 11.5452 13.0998 11.7187L13.3422 12.0501L13.6311 11.7583C13.8401 11.5472 14.2909 11.092 14.7674 10.6107C15.3638 10.0084 16.0006 9.36534 16.2546 9.10879H16.2561H16.2586H16.261H16.2635H16.2659H16.2684H16.2709H16.2734H16.2759H16.2785H16.281H16.2836H16.2862H16.2888H16.2914H16.2941H16.2967H16.2994H16.302H16.3047H16.3074H16.3101H16.3129H16.3156H16.3184H16.3211H16.3239H16.3267H16.3295H16.3323H16.3352H16.338H16.3409H16.3437H16.3466H16.3495H16.3524H16.3553H16.3583H16.3612H16.3642H16.3671H16.3701H16.3731H16.3761H16.3791H16.3822H16.3852H16.3882H16.3913H16.3944H16.3974H16.4005H16.4036H16.4067H16.4099H16.413H16.4161H16.4193H16.4224H16.4256H16.4288H16.432H16.4352H16.4384H16.4416H16.4448H16.4481H16.4513H16.4546H16.4578H16.4611H16.4644H16.4677H16.471H16.4743H16.4776H16.4809H16.4842H16.4876H16.4909H16.4943H16.4976H16.501H16.5044H16.5078H16.5112H16.5145H16.518H16.5214H16.5248H16.5282H16.5316H16.5351H16.5385H16.542H16.5454H16.5489H16.5523H16.5558H16.5593H16.5608C15.5657 10.1139 14.4977 11.1923 13.6272 12.0711L13.4163 12.284L13.5941 12.5252C13.942 12.9967 14.7621 14.0505 15.5559 15.069C15.6089 15.1371 15.6618 15.2049 15.7144 15.2725C16.1832 15.8739 16.6309 16.4483 16.9571 16.8713H16.9491H16.941H16.9328H16.9247H16.9165H16.9082H16.9H16.8917H16.8834H16.875H16.8667H16.8583H16.8499H16.8414H16.8329H16.8244H16.8159H16.8073H16.7988H16.7901H16.7815H16.7729H16.7642H16.7555H16.7467H16.738H16.7292H16.7204H16.7116H16.7028H16.6939H16.685H16.6761H16.6672H16.6582H16.6492H16.6402H16.6312H16.6222H16.6131H16.6041H16.595H16.5859H16.5767H16.5676H16.5584H16.5492H16.54H16.5308H16.5216H16.5123H16.503H16.4937H16.4844H16.4751H16.4658H16.4564H16.4471H16.4377H16.4283H16.4189H16.4094H16.4H16.3906H16.3811H16.3716H16.3621H16.3526H16.3431H16.3336H16.324H16.3145H16.3049H16.2953H16.2858H16.2762H16.2666H16.2569H16.2473H16.2377H16.228H16.2184H16.2087H16.1991H16.1894H16.1797H16.17H16.1603H16.1506H16.1409H16.1312H16.1215H16.1117H16.102H16.0922H16.0825H16.0728H16.063H16.0532H16.0435H16.0337H16.0239H16.0142H16.0044H15.9946H15.9848H15.975H15.9653H15.9555H15.9457H15.9359H15.9261H15.9163H15.9065H15.8967H15.8869H15.8771H15.8673H15.8576H15.8478H15.838H15.8282H15.8184H15.8086H15.7989H15.7891H15.7793H15.7695H15.7598H15.75H15.7403H15.7305H15.7208H15.711H15.7013H15.6916H15.6818H15.6721H15.6624H15.6527H15.643H15.6333H15.6236H15.6139H15.6043H15.5946H15.585H15.5753H15.5657H15.5561H15.5464H15.5368H15.5272H15.5177H15.5081H15.4985H15.489H15.4794H15.4699H15.4604H15.4509H15.4414H15.4319H15.4224H15.413H15.4035H15.3941H15.3847H15.3753H15.3659H15.3565H15.3472H15.3378H15.3285H15.3192H15.3099H15.3006H15.2914H15.2821H15.2729H15.2637H15.2545H15.2454H15.2362H15.2271H15.218H15.2089H15.1998H15.1907H15.1817H15.1727H15.1637H15.1547H15.1457H15.1368H15.1279H15.119H15.1101H15.1013H15.0925H15.0837H15.0749H15.0661H15.0574H15.0487H15.04H15.0314H15.0227H15.0141H15.0055H14.997H14.9884H14.9799H14.9714H14.963H14.9546H14.9462H14.9378H14.9294H14.9211H14.9128H14.9046H14.8963H14.8881H14.88H14.8718H14.8637H14.8556H14.8476H14.8395H14.8315H14.8236H14.8156H14.8077H14.7999H14.792H14.7842H14.7765H14.7687H14.761H14.7533H14.7457H14.7381H14.7305H14.723H14.7155H14.708H14.7006H14.6932H14.6858H14.6785H14.6712H14.664H14.6568H14.6496H14.6424H14.6353H14.6283H14.6213H14.6143H14.6073H14.6004H14.5935H14.5867H14.5799H14.5732H14.5665H14.5598H14.5532H14.5466H14.54H14.5335H14.527H14.5206H14.5142H14.5079H14.5016H14.4954H14.4892H14.483H14.4769H14.4708H14.4648H14.4588H14.4528H14.447H14.4411H14.4353H14.4295H14.4238H14.4182H14.4125H14.407H14.4015H14.396H14.3905H14.3852H14.3798H14.3746H14.3693H14.3641H14.359H14.3539H14.3489H14.3439H14.339H14.3341H14.3293H14.3245H14.3198H14.3151H14.3144C13.9527 16.3727 13.5311 15.8198 13.1541 15.3293C13.0653 15.2138 12.9792 15.102 12.897 14.9953C12.5925 14.5999 12.3418 14.2744 12.2059 14.0859L11.9642 13.7506L11.6733 14.0444C11.4464 14.2737 11.1573 14.5656 10.8459 14.8801C10.1538 15.579 9.35107 16.3897 8.87343 16.8726H8.56324C8.92723 16.5047 9.40307 16.0252 9.87354 15.5513C9.9851 15.439 10.0964 15.3269 10.2057 15.2167C10.9048 14.5127 11.5263 13.8867 11.6523 13.7568L11.8586 13.5441L11.6829 13.3055C11.4426 12.9794 10.275 11.3958 9.34696 10.1372Z" fill="#2C2C2C" stroke="#2C2C2C" stroke-width="0.7"/>
</g>
</svg>
