<svg width="26" height="26" viewBox="0 0 26 26" fill="none" xmlns="http://www.w3.org/2000/svg">
<g id="Group 132465">
<rect id="Rectangle 39174" x="0.35" y="0.644922" width="24.6915" height="24.6915" rx="12.3457" stroke="#2C2C2C" stroke-width="0.7"/>
<path id="Vector" d="M17.5502 11.0814L17.5501 11.0812L17.5192 10.8573C17.5191 10.8572 17.5191 10.8571 17.5191 10.8569C17.4417 10.3055 16.9075 9.84512 16.2185 9.84512H9.17398C8.48463 9.84512 7.95072 10.3045 7.87336 10.857C7.87335 10.8571 7.87334 10.8572 7.87333 10.8572L7.84235 11.0812L7.84233 11.0814C7.66636 12.3497 7.66636 13.6324 7.84233 14.9007L7.84235 14.9009L7.87332 15.1248C7.95057 15.6764 8.48482 16.137 9.17398 16.137H16.2185C16.9077 16.137 17.4416 15.6778 17.5191 15.1254L17.5502 11.0814ZM17.5502 11.0814C17.7261 12.3497 17.7261 13.6324 17.5502 14.9007L17.5501 14.9009L17.5192 15.1249L17.5502 11.0814ZM11.4929 11.1538L10.9962 10.9244V11.4716V14.2839V14.5078V14.5092H11.3462H11.3468L11.4929 14.8256L14.7801 13.3075L15.4681 12.9897L14.7801 12.672L11.4929 11.1538Z" fill="#2C2C2C" stroke="#2C2C2C" stroke-width="0.7"/>
</g>
</svg>
