<svg width="129" height="30" viewBox="0 0 129 30" fill="none" xmlns="http://www.w3.org/2000/svg">
<g id="Logo">
<path id="Vector" fill-rule="evenodd" clip-rule="evenodd" d="M20.4791 17.8193L28.0474 21.9738C25.4487 26.2442 20.5918 29.1177 15.0294 29.1177C6.72933 29.1177 0 22.72 0 14.8282C0 6.93637 6.72933 0.538086 15.0294 0.538086C20.5918 0.538086 25.4487 3.41155 28.0474 7.68195L20.4773 11.8377C19.3872 10.0556 17.3561 8.85007 15.0399 8.85007H8.76051V11.0611H3.83399C3.26095 11.0611 2.78948 11.5076 2.79625 12.0595C2.8024 12.6025 3.29173 13.0292 3.86292 13.0292H8.76112V16.6272H3.83399C3.22895 16.6272 2.739 17.1287 2.80179 17.7151C2.85657 18.2242 3.32928 18.6005 3.86846 18.6005H8.76112V20.8063H15.0405C17.3573 20.8063 19.3903 19.603 20.4798 17.8198L20.4791 17.8193Z" fill="#0071DC"/>
<path id="Vector_2" d="M126.372 21.2862V12.1506H128.85V21.2862H126.372ZM127.611 10.6752C127.21 10.6752 126.879 10.5428 126.616 10.278C126.353 10.0006 126.222 9.66017 126.222 9.25667C126.222 8.86577 126.353 8.53162 126.616 8.25421C126.879 7.97679 127.21 7.83809 127.611 7.83809C128.024 7.83809 128.356 7.97679 128.606 8.25421C128.869 8.53162 129 8.86577 129 9.25667C129 9.66017 128.869 10.0006 128.606 10.278C128.356 10.5428 128.024 10.6752 127.611 10.6752Z" fill="#192C57"/>
<path id="Vector_3" d="M118.503 21.2865C117.633 21.2865 116.849 21.0765 116.151 20.6563C115.452 20.2362 114.905 19.6633 114.51 18.9376C114.115 18.2119 113.917 17.3971 113.917 16.4932C113.917 15.5765 114.115 14.7554 114.51 14.0297C114.905 13.304 115.452 12.7311 116.151 12.3109C116.849 11.8908 117.633 11.6807 118.503 11.6807C119.188 11.6807 119.801 11.8144 120.341 12.0818C120.882 12.3491 121.31 12.7247 121.626 13.2085C121.956 13.6796 122.134 14.2143 122.16 14.8126V18.1355C122.134 18.7466 121.956 19.2877 121.626 19.7588C121.31 20.2298 120.882 20.6054 120.341 20.8855C119.801 21.1529 119.188 21.2865 118.503 21.2865ZM118.977 18.9758C119.702 18.9758 120.289 18.7466 120.737 18.2883C121.185 17.8172 121.409 17.2125 121.409 16.4741C121.409 15.9903 121.303 15.5638 121.092 15.1946C120.895 14.8126 120.611 14.5198 120.242 14.3161C119.887 14.0997 119.465 13.9915 118.977 13.9915C118.503 13.9915 118.081 14.0997 117.712 14.3161C117.356 14.5198 117.073 14.8126 116.862 15.1946C116.665 15.5638 116.566 15.9903 116.566 16.4741C116.566 16.9706 116.665 17.4098 116.862 17.7918C117.073 18.161 117.356 18.4538 117.712 18.6702C118.081 18.8739 118.503 18.9758 118.977 18.9758ZM121.27 21.0956V18.613L121.685 16.3595L121.27 14.1443V11.8717H123.84V21.0956H121.27Z" fill="#192C57"/>
<path id="Vector_4" d="M107.032 21.2866C106.149 21.2866 105.358 21.079 104.66 20.6639C103.961 20.2487 103.408 19.6826 102.999 18.9655C102.604 18.2484 102.406 17.4432 102.406 16.55C102.406 15.6442 102.604 14.8328 102.999 14.1157C103.408 13.3986 103.955 12.8325 104.64 12.4173C105.338 12.0021 106.136 11.7946 107.032 11.7946C107.717 11.7946 108.33 11.9267 108.87 12.1909C109.424 12.455 109.865 12.8262 110.194 13.3042C110.537 13.7697 110.722 14.2981 110.748 14.8894V18.1352C110.722 18.7265 110.544 19.2611 110.214 19.7392C109.885 20.2173 109.443 20.5947 108.89 20.8715C108.336 21.1482 107.717 21.2866 107.032 21.2866ZM107.467 19.0032C107.954 19.0032 108.376 18.9026 108.732 18.7013C109.101 18.4874 109.384 18.1981 109.582 17.8332C109.793 17.4558 109.898 17.0218 109.898 16.5312C109.898 16.0531 109.793 15.6316 109.582 15.2668C109.384 14.8894 109.101 14.6 108.732 14.3987C108.376 14.1849 107.961 14.0779 107.486 14.0779C106.999 14.0779 106.571 14.1849 106.202 14.3987C105.846 14.6126 105.562 14.902 105.352 15.2668C105.154 15.6316 105.055 16.0531 105.055 16.5312C105.055 17.0218 105.154 17.4558 105.352 17.8332C105.562 18.1981 105.852 18.4874 106.221 18.7013C106.59 18.9026 107.005 19.0032 107.467 19.0032ZM112.329 21.0979H109.76V18.6447L110.175 16.4179L109.74 14.2289V7.45427H112.329V21.0979Z" fill="#192C57"/>
<path id="Vector_5" d="M95.4815 21.2865C94.6117 21.2865 93.8276 21.0765 93.1292 20.6563C92.4308 20.2362 91.8839 19.6633 91.4885 18.9376C91.0932 18.2119 90.8955 17.3971 90.8955 16.4932C90.8955 15.5765 91.0932 14.7554 91.4885 14.0297C91.8839 13.304 92.4308 12.7311 93.1292 12.3109C93.8276 11.8908 94.6117 11.6807 95.4815 11.6807C96.1667 11.6807 96.7795 11.8144 97.3198 12.0818C97.8601 12.3491 98.2884 12.7247 98.6047 13.2085C98.9341 13.6796 99.112 14.2143 99.1384 14.8126V18.1355C99.112 18.7466 98.9341 19.2877 98.6047 19.7588C98.2884 20.2298 97.8601 20.6054 97.3198 20.8855C96.7795 21.1529 96.1667 21.2865 95.4815 21.2865ZM95.9559 18.9758C96.6807 18.9758 97.2671 18.7466 97.7152 18.2883C98.1632 17.8172 98.3872 17.2125 98.3872 16.4741C98.3872 15.9903 98.2818 15.5638 98.071 15.1946C97.8733 14.8126 97.59 14.5198 97.221 14.3161C96.8652 14.0997 96.4435 13.9915 95.9559 13.9915C95.4815 13.9915 95.0598 14.0997 94.6908 14.3161C94.335 14.5198 94.0517 14.8126 93.8408 15.1946C93.6431 15.5638 93.5443 15.9903 93.5443 16.4741C93.5443 16.9706 93.6431 17.4098 93.8408 17.7918C94.0517 18.161 94.335 18.4538 94.6908 18.6702C95.0598 18.8739 95.4815 18.9758 95.9559 18.9758ZM98.2489 21.0956V18.613L98.664 16.3595L98.2489 14.1443V11.8717H100.819V21.0956H98.2489Z" fill="#192C57"/>
<path id="Vector_6" d="M87.4506 21.2862L81.3773 14.2656L87.2913 7.83809H90.6765L84.0854 14.8204V13.6152L90.8955 21.2862H87.4506ZM78.9878 21.2862V7.83809H81.6959V21.2862H78.9878Z" fill="#192C57"/>
<path id="Vector_7" d="M72.5168 21.2865V8.22266H75.1385V21.2865H72.5168ZM70.2554 14.258V12.0616H77.4V14.258H70.2554Z" fill="#192C57"/>
<path id="Vector_8" d="M66.1713 21.2865C65.214 21.2865 64.3537 21.0769 63.5904 20.6576C62.8272 20.2383 62.2256 19.6665 61.7858 18.9423C61.3459 18.218 61.126 17.4048 61.126 16.5027C61.126 15.5879 61.3459 14.7683 61.7858 14.0441C62.2256 13.3198 62.8272 12.7481 63.5904 12.3287C64.3666 11.8967 65.2269 11.6807 66.1713 11.6807C66.9087 11.6807 67.5879 11.8142 68.2089 12.081C68.8298 12.3478 69.3667 12.729 69.8195 13.2245L68.1894 14.8446C67.9436 14.5777 67.6461 14.3744 67.2968 14.2347C66.9605 14.0949 66.5853 14.025 66.1713 14.025C65.7056 14.025 65.2851 14.133 64.91 14.349C64.5478 14.5523 64.2567 14.8382 64.0367 15.2067C63.8298 15.5624 63.7263 15.9881 63.7263 16.4836C63.7263 16.9665 63.8298 17.3985 64.0367 17.7797C64.2567 18.1481 64.5478 18.4404 64.91 18.6564C65.2851 18.8597 65.7056 18.9613 66.1713 18.9613C66.5982 18.9613 66.9799 18.8914 67.3162 18.7517C67.6655 18.5992 67.9631 18.3832 68.2089 18.1037L69.8583 19.7237C69.3796 20.2319 68.8298 20.6195 68.2089 20.8863C67.5879 21.1531 66.9087 21.2865 66.1713 21.2865Z" fill="#192C57"/>
<path id="Vector_9" d="M55.5014 21.2865C54.5204 21.2865 53.6491 21.0832 52.8875 20.6766C52.126 20.2573 51.5193 19.6856 51.0675 18.9613C50.6286 18.2371 50.4092 17.4112 50.4092 16.4836C50.4092 15.5688 50.6222 14.7556 51.0481 14.0441C51.487 13.3198 52.0808 12.7481 52.8294 12.3287C53.5781 11.8967 54.4107 11.6807 55.3272 11.6807C56.2307 11.6807 57.0246 11.884 57.7087 12.2906C58.4057 12.6845 58.9479 13.2309 59.3351 13.9297C59.7353 14.6158 59.9353 15.3973 59.9353 16.274C59.9353 16.4392 59.9224 16.6107 59.8966 16.7886C59.8837 16.9538 59.8514 17.1444 59.7998 17.3604L51.9388 17.3794V15.5116L58.6187 15.4926L57.5925 16.274C57.5667 15.7276 57.4634 15.2702 57.2827 14.9017C57.1149 14.5333 56.8632 14.2537 56.5276 14.0631C56.2049 13.8598 55.8048 13.7582 55.3272 13.7582C54.8237 13.7582 54.3849 13.8725 54.0105 14.1012C53.6362 14.3173 53.3458 14.6285 53.1392 15.0351C52.9456 15.429 52.8488 15.8992 52.8488 16.4455C52.8488 17.0046 52.9521 17.4938 53.1586 17.9131C53.378 18.3197 53.6878 18.6373 54.088 18.866C54.4881 19.082 54.9528 19.19 55.4821 19.19C55.9597 19.19 56.3921 19.1138 56.7793 18.9613C57.1666 18.7961 57.5022 18.5547 57.7861 18.2371L59.277 19.7046C58.8252 20.2256 58.2702 20.6195 57.6119 20.8863C56.9665 21.1531 56.263 21.2865 55.5014 21.2865Z" fill="#192C57"/>
<path id="Vector_10" d="M46.043 21.2866V7.45427H48.8214V21.2866H46.043Z" fill="#192C57"/>
<path id="Vector_11" d="M34.5322 21.2862V7.83809H37.1816V21.2862H34.5322ZM36.4803 21.2862V18.9906H44.0584V21.2862H36.4803ZM36.4803 15.5282V13.3092H43.3766V15.5282H36.4803ZM36.4803 10.1336V7.83809H43.961V10.1336H36.4803Z" fill="#192C57"/>
</g>
</svg>
